<?xml version="1.0" encoding="UTF-8"?>
<svg version="1.1" xmlns="http://www.w3.org/2000/svg" width="512" height="512">
<path d="M0 0 C1.24458984 -0.02449219 2.48917969 -0.04898438 3.77148438 -0.07421875 C11.79999329 -0.0997466 18.89268172 0.43234658 25.03051758 6.06689453 C32.22775168 13.68047859 32.65456197 21.32768632 32.65625 31.39453125 C32.66386353 32.64828049 32.67147705 33.90202972 32.67932129 35.19377136 C32.69010498 37.84084933 32.69435836 40.48703186 32.68847656 43.1340332 C32.68376184 45.83142624 32.69763058 48.52764612 32.72949219 51.22485352 C32.77250529 55.13593966 32.78137538 59.04573351 32.78125 62.95703125 C32.79764526 64.15213821 32.81404053 65.34724518 32.83093262 66.5785675 C32.76207211 74.99873883 31.27425889 82.00509535 25.37341309 88.31477356 C20.59353999 92.73830194 15.99167155 94.54876086 9.46875 94.8671875 C8.37771973 94.92994873 7.28668945 94.99270996 6.16259766 95.05737305 C5.01581543 95.12093994 3.8690332 95.18450684 2.6875 95.25 C-16.71362374 96.56693283 -32.07721115 101.85279356 -45.8125 116.375 C-58.31602937 131.44272973 -61.24203472 148.5199575 -61.32421875 167.6171875 C-61.34111647 169.12176934 -61.35927329 170.6263375 -61.37861633 172.13088989 C-61.42557101 176.04005655 -61.45572938 179.94916781 -61.48205566 183.85852051 C-61.51214081 187.8680313 -61.55857287 191.87735184 -61.60351562 195.88671875 C-61.68892587 203.71605026 -61.75654338 211.54539659 -61.8125 219.375 C-60.73445602 219.36611755 -59.65641205 219.35723511 -58.54570007 219.3480835 C-48.35089787 219.2667467 -38.15616212 219.20691457 -27.96110821 219.16775131 C-22.72059721 219.1469397 -17.48034966 219.11874014 -12.23999023 219.07324219 C-7.17602283 219.02955441 -2.1123077 219.00581464 2.95183372 218.99549103 C4.87700556 218.98814064 6.80216469 218.9737877 8.72722816 218.95207977 C22.64588103 218.80146963 33.59663671 219.97224197 45.1875 228.375 C45.78175781 228.79265625 46.37601563 229.2103125 46.98828125 229.640625 C55.88402532 236.50474681 60.49350087 246.71387794 63.1875 257.375 C63.7203035 262.11414303 63.73559901 266.80068967 63.70507812 271.56616211 C63.71051345 272.94584385 63.71764394 274.32551976 63.72631836 275.70518494 C63.74438934 279.4161204 63.73755189 283.12660576 63.72480202 286.83754802 C63.71458722 290.74453888 63.72409119 294.65149436 63.73034668 298.55848694 C63.73759951 305.1174299 63.7280988 311.676192 63.70898438 318.23510742 C63.68722919 325.78673371 63.69426654 333.33792768 63.71629 340.88954347 C63.73452273 347.4054709 63.73696384 353.92126922 63.72653532 360.43721396 C63.7203422 364.31470501 63.71934778 368.19199381 63.73268127 372.06947136 C63.74435442 375.71822221 63.73600881 379.36642342 63.71310425 383.01511574 C63.70541107 384.9698476 63.71707509 386.92462671 63.72961426 388.8793335 C63.5880535 403.881424 59.01957666 415.16694313 48.875 426.125 C37.71738382 436.66136806 25.07991527 438.83227291 10.20166016 438.77905273 C8.83197986 438.78476929 7.46230431 438.79173846 6.09263611 438.79985046 C2.40444587 438.81765649 -1.28350483 438.8166373 -4.97172499 438.81090808 C-8.06530231 438.80779754 -11.15883485 438.81392932 -14.25240576 438.81994683 C-21.55828306 438.83394956 -28.86404331 438.83246669 -36.16992188 438.82104492 C-43.67436754 438.80957103 -51.17845551 438.82363666 -58.68285406 438.8504414 C-65.15628693 438.8726868 -71.62960825 438.87921589 -78.10307658 438.87336498 C-81.95600563 438.87001485 -85.80870559 438.8722794 -89.66160202 438.88961601 C-93.28815739 438.90522486 -96.91418811 438.90097789 -100.5407238 438.88231087 C-102.4835533 438.87694199 -104.42640718 438.89103279 -106.3691864 438.90600586 C-120.26634136 438.79100248 -132.25350201 434.8431453 -142.8046875 425.63671875 C-149.85284467 418.32229787 -155.92756998 407.13787511 -155.94392776 396.8413372 C-155.94776891 395.93182395 -155.95161005 395.02231069 -155.9555676 394.08523643 C-155.95470112 393.0897375 -155.95383463 392.09423856 -155.95294189 391.068573 C-155.95591302 390.00796476 -155.95888414 388.94735653 -155.9619453 387.85460865 C-155.97064057 384.28831842 -155.97214129 380.72206172 -155.97363281 377.15576172 C-155.97826067 374.60312834 -155.98328528 372.05049565 -155.98867798 369.49786377 C-156.00181343 362.55083234 -156.00828702 355.60381197 -156.01268864 348.65677023 C-156.01545388 344.31274513 -156.019692 339.96872224 -156.02419281 335.62469864 C-156.03639003 323.58227363 -156.04668534 311.53985041 -156.0500679 299.49741936 C-156.05028747 298.72657381 -156.05050703 297.95572827 -156.05073325 297.16152377 C-156.05095153 296.38887806 -156.05116981 295.61623236 -156.0513947 294.82017314 C-156.05183816 293.25462715 -156.05228472 291.68908115 -156.05273438 290.12353516 C-156.0529558 289.34697768 -156.05317723 288.5704202 -156.05340537 287.77033068 C-156.05734404 275.21825729 -156.07476746 262.66624229 -156.0980939 250.1141914 C-156.12188508 237.2069739 -156.13427343 224.29978558 -156.13543582 211.39254582 C-156.13634874 204.15406882 -156.14200298 196.91566771 -156.16025543 189.67721176 C-156.17739436 182.85641214 -156.17885131 176.03575789 -156.17011642 169.21494293 C-156.1693503 166.72303253 -156.17363212 164.23111417 -156.18357468 161.73922348 C-156.24844693 144.45407148 -155.34239932 127.97979764 -150.125 111.375 C-149.74371948 110.14100464 -149.74371948 110.14100464 -149.35473633 108.88208008 C-139.89244447 79.30002726 -121.71045521 52.14779336 -96.8125 33.375 C-96.27753906 32.97039551 -95.74257812 32.56579102 -95.19140625 32.14892578 C-67.18274909 11.11817599 -35.11807668 0.03694695 0 0 Z " fill="#d946ef" transform="translate(161.8125,36.625)"/>
<path d="M0 0 C1.28841797 -0.020625 2.57683594 -0.04125 3.90429688 -0.0625 C13.70258437 -0.10292615 19.57986061 1.04543428 26.9296875 7.703125 C31.68914516 12.58588468 32.5507027 17.41430295 32.61450195 23.99316406 C32.63375481 25.72581512 32.63375481 25.72581512 32.65339661 27.49346924 C32.66078354 28.73828064 32.66817047 29.98309204 32.67578125 31.265625 C32.683853 32.55055847 32.69192474 33.83549194 32.70024109 35.15936279 C32.71524116 37.87951523 32.72509149 40.59964184 32.73266602 43.31982422 C32.74371148 46.78759472 32.77810013 50.25472021 32.81783772 53.72226334 C32.85042483 57.04919011 32.85479262 60.37605105 32.86328125 63.703125 C32.88078934 64.93983948 32.89829742 66.17655396 32.91633606 67.45074463 C32.89586186 75.6228036 32.01026467 81.17292859 26.47265625 87.4921875 C25.82167969 88.03101562 25.17070312 88.56984375 24.5 89.125 C23.85160156 89.67929688 23.20320312 90.23359375 22.53515625 90.8046875 C18.52094279 93.5705329 14.79950689 94.49435715 9.97265625 94.7421875 C8.93197998 94.80494873 7.89130371 94.86770996 6.8190918 94.93237305 C5.17614136 95.02772339 5.17614136 95.02772339 3.5 95.125 C-15.75351086 96.48950894 -32.17741005 101.41905745 -45.5625 116.25 C-62.05136338 137.42770126 -60.89194115 161.53533839 -61.16339111 187.08947754 C-61.20394589 190.72380165 -61.25479844 194.35798167 -61.3046875 197.9921875 C-61.40049005 205.07801858 -61.48518879 212.16394097 -61.5625 219.25 C-60.48667664 219.24111755 -59.41085327 219.23223511 -58.3024292 219.2230835 C-48.12265485 219.14170428 -37.94294722 219.08189444 -27.76292038 219.04275131 C-22.53028467 219.02195032 -17.29791331 218.99377058 -12.06542969 218.94824219 C-7.0079415 218.904516 -1.95070627 218.88080669 3.10695648 218.87049103 C5.02851081 218.86314744 6.9500526 218.84880816 8.87149811 218.82707977 C26.04925424 218.64069953 38.54821777 220.99884205 51.50390625 233.1953125 C61.68846546 244.06177525 63.73793374 255.82546552 63.72802734 270.18066406 C63.73401862 271.59240573 63.74082554 273.00414414 63.74838257 274.4158783 C63.76599066 278.23634612 63.7707358 282.05672425 63.77201414 285.87722874 C63.77343945 288.26889786 63.77771626 290.66054444 63.78300858 293.05220795 C63.80149295 301.40965716 63.80968134 309.76704274 63.80810547 318.12451172 C63.80690508 325.89246428 63.82799124 333.66013853 63.8595928 341.42802072 C63.88582061 348.11534046 63.89647002 354.80256968 63.89519465 361.4899404 C63.89468685 365.47589908 63.90026849 369.46161034 63.92155075 373.4475174 C63.94104289 377.20038581 63.94098366 380.95277361 63.92651749 384.70565987 C63.92345942 386.72287983 63.94002939 388.74010041 63.95739746 390.75724792 C63.86619693 404.07542682 59.53047594 415.26848712 50.62890625 425.28515625 C39.21366705 436.08335549 25.88105597 438.55130212 10.79223633 438.54052734 C9.42300046 438.54652103 8.05376795 438.55332849 6.68453979 438.56088257 C2.98382717 438.5784674 -0.7167928 438.58323484 -4.41754317 438.58451414 C-6.7360318 438.58594092 -9.05449727 438.59022052 -11.37298012 438.59550858 C-19.47986964 438.61398617 -27.58669363 438.62218231 -35.69360352 438.62060547 C-43.22012515 438.61940568 -50.74635929 438.64048177 -58.27280825 438.6720928 C-64.75890758 438.69835201 -71.24491358 438.7089687 -77.73106557 438.70769465 C-81.59411549 438.70718771 -85.45690982 438.71272065 -89.31990623 438.73405075 C-92.95871082 438.75359601 -96.59702031 438.75344832 -100.23584366 438.73901749 C-102.1858743 438.73597165 -104.13590587 438.75249237 -106.08586121 438.76989746 C-121.08231748 438.66441881 -132.36261923 434.07450752 -143.3125 423.9375 C-152.88065112 413.80518902 -156.03877372 401.91836383 -155.94345093 388.26037598 C-155.9481309 387.21082654 -155.95281087 386.16127711 -155.95763266 385.07992315 C-155.96951702 381.59286382 -155.96015076 378.10620229 -155.95068359 374.61914062 C-155.95475239 372.10650403 -155.960096 369.59386923 -155.96661377 367.08123779 C-155.97884643 360.98091182 -155.97709192 354.88073099 -155.96837585 348.7804032 C-155.96157742 343.81466775 -155.96069189 338.84896326 -155.9639473 333.88322449 C-155.964407 333.17415741 -155.96486669 332.46509034 -155.96534032 331.73453638 C-155.9662996 330.29359614 -155.96727225 328.85265591 -155.9682581 327.41171569 C-155.97680048 313.91785694 -155.96699858 300.42405946 -155.950857 286.93021077 C-155.9374781 275.38964099 -155.93976407 263.84916186 -155.95361328 252.30859375 C-155.96972975 238.87265074 -155.97595227 225.43676148 -155.96677649 212.00081015 C-155.96582097 210.56297398 -155.96487786 209.12513781 -155.9639473 207.68730164 C-155.96348447 206.98007958 -155.96302164 206.27285753 -155.96254479 205.5442045 C-155.95997128 200.59719015 -155.9642907 195.6502103 -155.97138596 190.70320129 C-155.98076342 184.01853037 -155.97392408 177.33405464 -155.95670319 170.64939117 C-155.95276918 168.20950348 -155.95381874 165.76960129 -155.96049118 163.32971954 C-156.06925505 119.48112871 -143.09972229 80.4591475 -112.5625 48.25 C-111.66917969 47.29222656 -110.77585937 46.33445313 -109.85546875 45.34765625 C-81.56188477 15.61027652 -40.58240015 0.16289975 0 0 Z " fill="#d946ef" transform="translate(442.5625,36.75)"/>
</svg>
