<svg width="720" height="720" viewBox="0 0 720 720" fill="none" xmlns="http://www.w3.org/2000/svg">
<g opacity="0.2">
<path d="M402.06 614.7C485.582 614.7 553.29 606.135 553.29 595.57C553.29 585.005 485.582 576.44 402.06 576.44C318.538 576.44 250.83 585.005 250.83 595.57C250.83 606.135 318.538 614.7 402.06 614.7Z" fill="#371A45"/>
</g>
<path d="M301.82 359.95L309.84 373.26L313.93 380.04L384.42 496.98C384.42 496.98 376.17 501.33 364.65 506.28C362.39 507.25 360.02 508.24 357.55 509.23C339.16 516.59 315.88 523.64 303.18 518.73C284.19 511.38 248.61 446.41 246.12 414.74C244.98 400.22 267.5 382.19 284.26 370.87C286.13 369.6 287.93 368.42 289.62 367.34C296.73 362.77 301.82 359.95 301.82 359.95Z" fill="white"/>
<g opacity="0.2">
<path d="M309.84 373.26L313.93 380.04L369.9 472.89L384.42 496.98C384.42 496.98 384.25 497.07 383.92 497.24C383.83 497.29 383.71 497.34 383.6 497.41C383.51 497.46 383.4 497.51 383.29 497.56C383.21 497.6 383.13 497.64 383.05 497.69C383.02 497.7 382.98 497.73 382.95 497.74C382.8 497.82 382.63 497.9 382.46 497.99C382.43 498.01 382.39 498.03 382.34 498.05C382.2 498.12 382.05 498.2 381.88 498.28C381.66 498.39 381.44 498.5 381.2 498.62C381.03 498.7 380.85 498.8 380.67 498.88C380.48 498.97 380.29 499.07 380.1 499.16C379.86 499.28 379.6 499.41 379.34 499.54C378.8 499.8 378.24 500.08 377.64 500.36C377.11 500.62 376.56 500.89 375.97 501.16C375.3 501.48 374.6 501.81 373.87 502.15C371.17 503.41 368.06 504.82 364.65 506.28C363.99 506.56 363.31 506.85 362.63 507.14C362.16 507.34 361.67 507.54 361.18 507.75C360 508.24 358.78 508.74 357.55 509.23C339.16 516.59 315.88 523.64 303.18 518.72C287.54 512.67 260.65 467.55 250.25 434.12C262.95 461.33 281.11 488.07 292.9 492.63C298.73 494.89 295.42 474.89 290.63 466.55C278.28 445.04 276.59 412.58 287.75 385.06C288.04 384.35 300.61 379.53 309.83 373.25L309.84 373.26Z" fill="#371A45"/>
</g>
<path d="M313.41 523.15C309.2 523.15 305.38 522.61 302.16 521.36C288.06 515.9 270.91 486.18 265.98 477.21C253.17 453.85 244.48 429.99 243.3 414.96C242.47 404.41 251.99 391.47 271.58 376.49C285.74 365.66 299.86 357.82 300.46 357.49L302.84 356.17L388.39 498.09L385.75 499.48C383.65 500.59 340.55 523.16 313.42 523.16L313.41 523.15ZM300.82 363.75C283.93 373.47 247.63 397.97 248.93 414.5C250.05 428.79 258.48 451.77 270.93 474.48C283.08 496.63 296.13 512.96 304.19 516.08C323.14 523.41 368.91 501.59 380.44 495.83L300.82 363.75Z" fill="#371A45"/>
<path d="M262.36 473.79C264.45 468.99 287.89 456.97 287.89 456.97C290.59 455.86 293.7 456.71 295.46 459.04C301.89 467.59 315.7 488.08 310.19 499.91C305.62 509.73 293.64 512.6 285.01 510.08C278.27 508.11 273.14 500.59 268.8 492.68C264.1 484.1 260.72 477.54 262.35 473.8L262.36 473.79Z" fill="white"/>
<path d="M268.81 492.68C271.04 496.76 273.5 500.74 276.27 503.89C278.87 506.86 281.75 509.12 285.01 510.08C293.64 512.61 305.62 509.74 310.19 499.91C314.51 490.63 306.94 476.01 300.37 466.02V466.01C298.57 463.27 296.84 460.88 295.46 459.04C293.71 456.71 290.59 455.85 287.89 456.97C287.89 456.97 264.45 468.99 262.35 473.79C260.72 477.53 264.09 484.09 268.8 492.67L268.81 492.68Z" fill="white"/>
<g opacity="0.2">
<path d="M276.28 503.89C278.88 506.86 281.76 509.12 285.02 510.08C293.65 512.61 305.63 509.74 310.2 499.91C314.52 490.63 306.95 476.01 300.38 466.02C300.55 466.48 305 478.07 301.02 479.03C297.89 479.79 293.35 474.96 293.08 474.68C293.38 475.43 302.34 498.23 289.96 503.08C284.39 505.26 279.84 505.06 276.27 503.89H276.28Z" fill="#371A45"/>
</g>
<path d="M291.24 513.77C288.82 513.77 286.44 513.44 284.23 512.79C276.25 510.45 270.71 502 266.34 494.03C260.84 483.99 257.65 477.55 259.78 472.66C262.03 467.5 279.3 458.21 286.61 454.46L286.82 454.36C290.71 452.76 295.19 453.98 297.72 457.34C305.89 468.2 318.7 488.32 312.76 501.1C308.76 509.69 299.75 513.76 291.24 513.76V513.77ZM264.95 474.93C263.78 477.63 268.12 485.54 271.29 491.32C274.88 497.87 279.77 505.6 285.82 507.37C293.53 509.62 303.79 507.01 307.65 498.72C311.03 491.45 305.64 477.25 293.22 460.74C292.26 459.46 290.57 458.98 289.08 459.55C278.35 465.06 266.14 472.53 264.96 474.93H264.95Z" fill="#371A45"/>
<path d="M293.56 508.37C296.5 507.55 298.16 504.47 298.85 501.55C300.41 494.43 297.67 486.82 294.73 480.2C293.16 476.82 291.47 473.29 289.08 470.43C288.76 470.13 288.76 469.62 289.08 469.32C289.37 469.06 289.81 469.07 290.09 469.33C290.9 470.09 291.49 470.84 292.11 471.63C293.91 473.98 295.44 476.53 296.87 479.12C300.67 486.17 304.06 493.93 302.9 502.32C302.24 506.85 299.55 511.71 294.83 513.19C291.5 514.1 290.21 509.23 293.55 508.37H293.56Z" fill="#371A45"/>
<path d="M281.27 394.98C275.36 397.71 269.49 400.68 263.82 403.88C258.3 407.03 252.64 410.45 247.93 414.61C245.11 417.03 241.44 412.98 244.15 410.41C252.34 404.17 261.61 400.08 270.93 396C273.99 394.71 277.04 393.46 280.16 392.29C280.91 392.01 281.75 392.39 282.04 393.14C282.31 393.87 281.97 394.67 281.27 394.98Z" fill="#371A45"/>
<path d="M469.65 338.03C469.65 338.03 478.72 341.96 474.66 347.94C470.6 353.92 457.67 350.9 457.67 350.9C457.67 350.9 437.46 363.1 420.89 386.63C420.07 387.79 419.25 388.98 418.46 390.21L408.51 385.53L374.5 369.52L355.6 360.63L360.05 353.28L368.97 338.56C368.97 338.56 384.14 332.3 403.16 325.99C423.35 319.3 447.86 312.55 463.09 313.2C468.47 313.43 473.08 314.12 476.82 315.15C493.64 319.77 493.24 331.16 469.63 338.05L469.65 338.03Z" fill="white"/>
<g opacity="0.2">
<path d="M469.65 338.03C469.65 338.03 478.72 341.96 474.66 347.94C470.6 353.92 457.67 350.9 457.67 350.9C457.67 350.9 435.41 364.33 418.46 390.2L408.51 385.52L395.27 368.12C395.27 368.12 427.35 349.77 448.02 343.61C448.02 343.61 463.13 347.72 467.39 344.94C471.6 342.18 458.46 335.16 458.22 335.02C458.91 334.81 489.46 325.68 479.29 317.8C478.05 316.84 477.26 315.95 476.83 315.13C493.65 319.75 493.25 331.14 469.64 338.03H469.65Z" fill="#371A45"/>
</g>
<path d="M439.82 367.76C438.61 367.76 437.49 366.96 437.14 365.74C430.36 342.1 401.23 329.02 400.93 328.89C399.52 328.27 398.88 326.63 399.51 325.22C400.14 323.81 401.77 323.17 403.18 323.8C404.48 324.37 435 338.09 442.49 364.21C442.91 365.69 442.06 367.23 440.58 367.66C440.32 367.73 440.07 367.77 439.81 367.77L439.82 367.76Z" fill="#371A45"/>
<path d="M468.99 340.73C465.08 339.19 461.08 337.66 457.06 336.44C456.52 336.29 456.21 335.72 456.37 335.18C456.5 334.74 456.91 334.46 457.35 334.46C459.53 334.49 461.69 334.61 463.84 334.76C466 334.91 468.14 335.09 470.31 335.31C471.86 335.46 472.98 336.84 472.83 338.39C472.68 340.23 470.68 341.43 468.99 340.72V340.73Z" fill="#371A45"/>
<path d="M418.47 392.99C418.07 392.99 417.67 392.9 417.28 392.72L354.43 363.13C353.72 362.79 353.18 362.17 352.95 361.41C352.72 360.65 352.83 359.84 353.23 359.16L366.6 337.09C366.91 336.58 367.37 336.19 367.92 335.96C370.58 334.86 433.37 309.1 463.22 310.39C479.62 311.09 490.36 316.13 491.26 323.53C491.69 327.12 490.07 333.57 475.79 338.92C476.83 339.98 477.74 341.29 478.19 342.83C478.64 344.38 478.79 346.79 476.96 349.49C472.63 355.87 461.95 354.53 458.21 353.84C453.94 356.63 435.26 369.6 420.79 391.71C420.26 392.52 419.37 392.97 418.46 392.97L418.47 392.99ZM359.6 359.41L417.49 386.66C434.38 361.87 455.34 349.06 456.25 348.51C456.87 348.14 457.62 348.02 458.32 348.18C461.19 348.84 469.94 349.94 472.37 346.37C473.03 345.4 472.98 344.8 472.87 344.39C472.4 342.73 469.75 341.1 468.55 340.57C467.48 340.1 466.82 339 466.89 337.84C466.97 336.67 467.76 335.68 468.89 335.35C481.04 331.8 486.12 327.2 485.75 324.21C485.39 321.27 479.04 316.65 463 315.96C436.16 314.83 378.56 337.68 370.9 340.77L359.61 359.41H359.6Z" fill="#371A45"/>
<path d="M525.18 475.92C527.93 480.53 527.66 486.32 524.87 490.91C511.32 513.24 493.24 530.17 481.33 539.89C474.75 545.26 465.02 543.98 460.03 537.11L453.58 528.23V528.21L431.22 497.41L424.11 487.62C408.96 498.91 390.77 498.09 390.77 498.09C390.54 498.81 390.31 499.53 390.07 500.23C389.33 502.44 388.57 504.57 387.78 506.63C363.06 570.99 313.45 557.76 313.45 557.76C312.79 561.99 311.17 565.32 308.95 567.68C301.02 576.14 285.45 572.34 279.04 554C274.19 540.14 275.07 526.44 276.59 517.54C276.81 516.31 277.2 515.14 277.74 514.06C279.71 510.15 283.65 507.48 288.2 507.28C295.96 506.94 303.07 506.16 309.29 504.54C322.02 501.27 331.04 494.53 334.38 481.06C334.66 479.96 334.89 478.83 335.09 477.64C337.36 463.82 327.92 447.17 318.73 434.75C318.67 434.66 318.61 434.59 318.55 434.5C310.75 424.01 303.19 416.61 303.19 416.61C303.19 416.61 302.85 408.67 305 398.31C306.01 393.43 307.57 388.02 309.97 382.64C313.21 375.38 317.98 368.19 325.02 362.49C336.52 353.16 349.13 351.7 360.07 353.26C369.48 354.6 377.67 358.19 382.83 360.92C383.82 361.45 384.71 361.94 385.46 362.38C398.57 370 410.36 378.21 420.9 386.62C437.84 400.1 451.57 414.08 462.45 426.93C463.39 428.03 464.3 429.12 465.19 430.21C487.16 456.91 496.54 477.94 496.54 477.94C504.28 472.8 510.1 470.69 514.48 470.43C520.05 470.1 523.28 472.73 525.18 475.92Z" fill="white"/>
<g opacity="0.2">
<path d="M525.18 475.92C527.93 480.53 527.66 486.32 524.87 490.91C511.32 513.24 493.24 530.17 481.33 539.89C474.75 545.26 465.02 543.98 460.03 537.11L453.58 528.23V528.21C453.58 528.21 470.26 539.5 488.33 520.07C506.27 500.78 527.56 479.67 514.48 470.42C520.05 470.09 523.28 472.72 525.18 475.91V475.92Z" fill="#371A45"/>
</g>
<g opacity="0.2">
<path d="M362 464.19C342.47 445.2 329.56 412.43 329.56 412.43C329.56 412.43 321.46 421.13 318.72 434.75C327.91 447.17 337.34 463.81 335.08 477.64C334.88 478.83 334.65 479.97 334.37 481.06C337.58 484.51 340.95 487.51 344.38 490.1C352.4 496.15 353.98 507.52 348.06 515.64C343.29 522.18 337.64 528.16 331.49 531.28C320.38 536.91 304.82 533.96 294.47 530.86C288.97 529.21 283.65 533.82 284.43 539.52C285.41 546.64 287.45 555.5 291.66 562.54C296.8 571.12 304.04 569.95 308.95 567.7C311.17 565.34 312.79 562.01 313.45 557.78C313.45 557.78 363.06 571 387.78 506.65C388.15 505.7 388.51 504.72 388.86 503.74C388.91 503.6 388.96 503.46 389.01 503.31C389.61 501.63 390.2 499.9 390.76 498.11C390.76 498.11 408.96 498.93 424.1 487.64L431.21 497.43C471.45 466 468.56 440.28 465.19 430.23C464.3 429.14 463.39 428.05 462.45 426.95C430.86 482.67 381.38 483.05 362 464.21V464.19Z" fill="#371A45"/>
</g>
<path d="M312.88 560.36C309.53 559.27 306.42 557.84 303.36 556.15C302.36 555.58 301.39 554.95 300.46 554.25C300.17 554.03 300.11 553.62 300.33 553.33C300.48 553.13 300.72 553.04 300.94 553.08C304.21 553.52 307.59 554.25 310.82 554.72L314.01 555.18C317.79 555.85 316.59 561.34 312.87 560.37L312.88 560.36Z" fill="#371A45"/>
<path d="M350.79 555.16C350.28 555.16 349.76 555.01 349.31 554.71C315.96 532.22 320.06 499.61 320.25 498.24C320.45 496.79 321.79 495.77 323.24 495.97C324.69 496.17 325.7 497.51 325.51 498.96C325.34 500.21 321.76 529.72 352.28 550.31C353.5 551.13 353.82 552.78 353 554C352.49 554.76 351.65 555.17 350.8 555.17L350.79 555.16Z" fill="#371A45"/>
<path d="M388.23 497.33C389.23 492.77 389.92 488.08 390.06 483.41C390.18 481.82 390.22 480.23 390.47 478.55C390.54 477.85 391.18 477.34 391.88 477.44C392.29 477.5 392.63 477.76 392.8 478.11C395.45 483.71 395.08 490.25 394.01 496.21C393.82 497.09 393.62 497.89 393.31 498.85C392.15 502.09 387.42 500.65 388.22 497.32L388.23 497.33Z" fill="#371A45"/>
<path d="M422.77 485.34C429.41 481.23 435.03 475.68 441.15 470.85C442.2 470.03 443.62 471.33 442.89 472.45C440.68 475.9 437.92 478.92 435.04 481.83C432.08 484.8 429.01 487.63 425.45 489.92C422.34 491.69 419.69 487.2 422.76 485.34H422.77Z" fill="#371A45"/>
<path d="M438.18 509.66C437.16 509.66 436.19 509.07 435.75 508.08C435.16 506.74 435.76 505.17 437.1 504.58C437.33 504.48 460.71 493.75 484.61 458.18C485.43 456.96 487.08 456.64 488.3 457.46C489.52 458.28 489.84 459.93 489.02 461.15C464.19 498.11 440.26 509 439.26 509.44C438.91 509.59 438.55 509.67 438.19 509.67L438.18 509.66Z" fill="#371A45"/>
<path d="M498.25 479.98C492.49 484.9 487.79 491.01 483.79 497.44C483.44 498.03 482.65 498.22 482.08 497.84C481.61 497.54 481.42 496.96 481.58 496.45C482.18 494.51 482.91 492.59 483.82 490.76C486.6 485.21 490.25 480.13 494.84 475.91C497.59 473.64 500.98 477.66 498.25 479.98Z" fill="#371A45"/>
<path d="M305.04 414.72C317.94 428.07 331.74 445.35 336.71 463.48C337.74 467.27 338.2 471.31 338.01 475.29C337.35 482.57 334.99 489.74 330.16 495.49C319.64 507.73 302.53 509.13 287.55 510.02C283.68 510.46 280.3 513.46 279.37 517.25C278.9 519.52 278.62 521.85 278.4 524.16C277.07 538.04 279.38 560.77 293.09 567.85C297.82 570.3 303.48 569.69 306.99 565.9C309.14 563.55 310.31 560.59 310.82 557.37C311.05 555.84 312.56 554.83 314.06 555.19C322.38 556.99 331.2 556.38 339.38 554.14C356.29 549.51 369.42 536.55 377.87 521.5C382.23 513.91 385.54 505.7 388.23 497.3C388.6 496.15 389.68 495.42 390.83 495.45C391.44 495.47 392.19 495.46 392.9 495.44C400.64 495.12 408.4 493.29 415.35 489.86C417.9 488.67 420.24 487.11 422.53 485.51C423.71 484.63 425.4 484.89 426.27 486.08C431.61 493.37 457.83 529.71 462.75 536.25C466.69 541.15 474.49 542 479.39 538.03L479.65 537.84L479.94 537.6L481.12 536.62C496.04 524.18 509.45 509.8 520.09 493.53C521.39 491.28 523.49 488.69 524.05 486.09C525.36 481.44 523.42 475.44 518.71 473.64C516.01 472.62 512.58 473.17 509.79 474.12C505.64 475.47 501.8 477.71 498.02 480.16C496.76 480.98 495.08 480.61 494.28 479.34C493.53 477.8 492.8 476.15 491.97 474.55C489.71 470.08 487.26 465.7 484.68 461.39C471.66 439.84 455.56 420.15 437.24 402.88C421.39 387.64 403.29 375.38 385.03 363.15C384.64 362.88 384.54 362.35 384.8 361.96C385.04 361.61 385.49 361.49 385.87 361.66C387.42 362.37 388.96 363.11 390.49 363.87C398.88 367.96 406.92 373.1 414.56 378.47C444.49 399.83 470.33 427.08 489.33 458.61C492.86 464.57 496.2 470.55 498.99 476.93L495.08 475.75C498.66 473.41 502.41 471.23 506.58 469.62C511.06 467.97 515.83 466.96 520.59 468.67C527.9 471.4 531.19 480.22 529.21 487.42C528.69 489.69 527.51 491.83 526.25 493.76C525.44 495.13 523.69 497.75 522.8 499.06C514.55 511.25 504.73 522.35 493.98 532.39C490.44 535.7 486.76 538.9 483.01 541.97L482.64 542.24L481.9 542.78C474.81 547.89 464.19 546.47 458.69 539.68C457.37 538.1 456.06 536.11 454.87 534.53L451.21 529.49L421.96 489.2L425.69 489.77C417.54 495.77 407.72 499.25 397.71 500.4C395.32 500.65 393.08 500.83 390.64 500.76L393.29 498.91C387.73 516.33 379.21 533.47 365.24 545.8C351.25 558.36 331.26 564.33 312.76 560.34L316.07 558.18C315.46 562.25 313.76 566.44 310.86 569.54C303.21 577.62 291.17 575.33 284.1 567.68C276.8 559.95 274.24 549.17 273.08 538.92C272.4 531.62 272.74 524.25 273.98 517.03C275.04 510.68 280.48 505.46 286.89 504.74C300.44 503.86 316.63 502.99 326.09 492.06C331.77 485.19 334.02 475.26 331.96 466.49C330.98 461.87 329.2 457.5 327.14 453.26C322.83 444.66 317.17 436.71 311.04 429.27C307.93 425.53 304.65 421.84 301.27 418.46C298.92 416 302.39 412.25 305.03 414.71L305.04 414.72Z" fill="#371A45"/>
<path d="M435.31 394.65C435.31 394.65 438.19 389.62 433.57 385.32C429.34 381.39 425.4 383.62 425.4 383.62C425.4 383.62 414.6 395.47 399.41 401.05C399.41 401.05 399.47 413.81 408.8 412.36C423.11 410.13 435.31 394.64 435.31 394.64V394.65Z" fill="white"/>
<g opacity="0.2">
<path d="M408.79 412.37C423.11 410.14 435.3 394.65 435.3 394.65C435.3 394.65 438.18 389.62 433.56 385.33C433.07 384.88 432.6 384.51 432.12 384.21C433.02 387.28 431.52 389.9 431.52 389.9C431.52 389.9 419.32 405.4 405.01 407.62C403.18 407.91 401.7 407.64 400.51 407.03C401.66 410.12 404 413.12 408.78 412.37H408.79Z" fill="#371A45"/>
</g>
<path d="M407.39 414.82C405.16 414.82 403.17 414.12 401.57 412.75C397.23 409.05 397.08 401.88 397.07 401.07C397.07 400.09 397.68 399.21 398.6 398.87C413.08 393.55 423.56 382.17 423.67 382.06C423.84 381.88 424.03 381.72 424.25 381.6C424.47 381.47 429.75 378.59 435.16 383.62C439.89 388.01 438.65 393.52 437.34 395.82C437.28 395.92 437.22 396.01 437.15 396.1C436.63 396.76 424.21 412.34 409.16 414.69C408.56 414.78 407.97 414.83 407.4 414.83L407.39 414.82ZM401.86 402.62C402.12 404.68 402.85 407.7 404.61 409.2C405.59 410.03 406.84 410.31 408.44 410.06C420.91 408.12 432.02 394.98 433.35 393.36C433.71 392.62 434.84 389.68 431.99 387.03C429.59 384.8 427.5 385.29 426.81 385.55C424.91 387.55 415.27 397.22 401.88 402.61L401.86 402.62Z" fill="#371A45"/>
<g opacity="0.2">
<path d="M396.93 444.866L413.609 431.618C423.936 423.415 425.659 408.394 417.456 398.067C409.253 387.739 394.231 386.017 383.904 394.22L367.225 407.468C356.898 415.671 355.176 430.692 363.379 441.02C371.582 451.347 386.603 453.069 396.93 444.866Z" fill="#371A45"/>
</g>
<path d="M379.09 460.28C375.88 460.28 372.7 458.87 370.55 456.17L351.2 431.81C347.47 427.11 348.25 420.24 352.95 416.51L393.99 383.91C396.27 382.1 399.11 381.29 402 381.62C404.89 381.95 407.48 383.39 409.29 385.67L428.64 410.03C430.45 412.31 431.26 415.15 430.93 418.04C430.6 420.93 429.16 423.52 426.88 425.33L385.84 457.93C383.84 459.52 381.45 460.29 379.08 460.29L379.09 460.28ZM400.76 386.67C399.46 386.67 398.22 387.1 397.19 387.92L356.15 420.52C354.94 421.48 354.18 422.85 354.01 424.38C353.83 425.91 354.27 427.42 355.22 428.62L374.57 452.98C376.55 455.47 380.18 455.89 382.67 453.91L423.71 421.31C424.92 420.35 425.68 418.98 425.85 417.45C426.03 415.92 425.59 414.41 424.64 413.21L405.29 388.85C404.33 387.64 402.96 386.88 401.43 386.71C401.21 386.68 400.98 386.67 400.76 386.67Z" fill="#371A45"/>
<path d="M401.49 381.25L360.459 413.841C356.857 416.702 356.256 421.942 359.117 425.545L378.46 449.897C381.322 453.5 386.562 454.1 390.164 451.239L431.196 418.648C434.798 415.787 435.399 410.547 432.537 406.944L413.194 382.592C410.333 378.989 405.093 378.388 401.49 381.25Z" fill="white"/>
<g opacity="0.2">
<path d="M423.23 395.19L432.54 406.91C435.41 410.52 434.81 415.76 431.21 418.62L390.17 451.22C386.57 454.08 381.33 453.48 378.47 449.87L367.92 436.59C367.92 436.59 370.5 438.73 373.3 440.03C373.3 440.03 373.31 440.03 373.32 440.03C375.28 440.96 377.35 441.46 378.69 440.51C378.92 440.35 379.12 440.17 379.3 439.99C384.47 439.03 391.77 435.7 401.89 427.49C403.91 425.85 405.74 424.28 407.41 422.77C409.39 420.98 411.49 419.33 413.65 417.76C413.99 417.51 414.33 417.26 414.67 416.99C421.35 411.75 423.12 405.04 423.45 400.46C423.45 400.46 423.45 400.44 423.45 400.42C423.67 397.3 423.23 395.17 423.23 395.17V395.19Z" fill="#371A45"/>
</g>
<path d="M385 455.58C381.79 455.58 378.61 454.17 376.46 451.47L357.11 427.11C353.38 422.41 354.16 415.54 358.86 411.81L399.9 379.21C402.18 377.4 405.03 376.59 407.91 376.92C410.8 377.25 413.39 378.69 415.2 380.97L434.55 405.33C436.36 407.61 437.17 410.45 436.84 413.34C436.51 416.23 435.07 418.82 432.79 420.63L391.75 453.23C389.75 454.82 387.36 455.59 384.99 455.59L385 455.58ZM406.67 381.97C405.37 381.97 404.13 382.4 403.1 383.22L362.06 415.82C360.85 416.78 360.09 418.15 359.92 419.68C359.74 421.21 360.18 422.72 361.13 423.92L380.48 448.28C382.46 450.77 386.09 451.18 388.58 449.21L429.62 416.61C430.83 415.65 431.59 414.28 431.76 412.75C431.94 411.22 431.5 409.71 430.55 408.51L411.2 384.15C410.24 382.94 408.87 382.18 407.34 382.01C407.12 381.98 406.89 381.97 406.67 381.97Z" fill="#371A45"/>
<path d="M407.79 414.01C412.407 414.01 416.15 410.267 416.15 405.65C416.15 401.033 412.407 397.29 407.79 397.29C403.173 397.29 399.43 401.033 399.43 405.65C399.43 410.267 403.173 414.01 407.79 414.01Z" fill="#22A7F0"/>
<g opacity="0.7">
<path d="M401.25 410.85C401.69 411.41 402.2 411.9 402.73 412.31C401.21 408.9 402.11 404.77 405.17 402.34C408.22 399.91 412.45 399.97 415.43 402.23C415.15 401.61 414.79 401.01 414.34 400.45C411.47 396.83 406.21 396.23 402.6 399.1C398.98 401.97 398.38 407.23 401.25 410.85Z" fill="white"/>
</g>
<path d="M401.25 410.85C404.12 414.46 409.38 415.07 413 412.19C416.61 409.32 417.22 404.06 414.35 400.45C413.78 399.73 413.11 399.13 412.38 398.65C413.58 401.94 412.62 405.77 409.73 408.07C406.83 410.37 402.89 410.44 399.95 408.52C400.25 409.34 400.68 410.13 401.26 410.85H401.25Z" fill="#1C7AEA"/>
<path d="M407.82 416.25C407.41 416.25 407 416.23 406.59 416.18C403.78 415.86 401.26 414.46 399.49 412.24C397.73 410.02 396.94 407.25 397.26 404.44C397.58 401.63 398.98 399.11 401.2 397.34C405.78 393.7 412.46 394.47 416.1 399.05C417.86 401.27 418.65 404.04 418.33 406.85C418.01 409.66 416.61 412.18 414.39 413.94C412.5 415.44 410.2 416.24 407.82 416.24V416.25ZM407.79 399.53C406.46 399.53 405.11 399.96 403.99 400.85C402.71 401.87 401.9 403.32 401.72 404.94C401.53 406.56 401.99 408.16 403.01 409.44C404.03 410.72 405.48 411.53 407.1 411.71C408.73 411.89 410.32 411.44 411.6 410.42C412.88 409.4 413.69 407.95 413.87 406.33C414.06 404.71 413.6 403.11 412.58 401.83C411.37 400.31 409.59 399.52 407.78 399.52L407.79 399.53Z" fill="#371A45"/>
<path d="M396.88 448.13C396.22 448.13 395.57 447.84 395.12 447.28L384.6 434.03C382.22 431.04 382.09 426.91 384.26 423.77C385.3 422.26 385.24 420.28 384.1 418.85L372.51 404.26C371.74 403.29 371.9 401.88 372.87 401.11C373.84 400.34 375.25 400.5 376.02 401.47L387.61 416.06C389.99 419.05 390.12 423.18 387.95 426.32C386.91 427.83 386.97 429.81 388.11 431.24L398.63 444.49C399.4 445.46 399.24 446.87 398.27 447.64C397.86 447.97 397.37 448.13 396.88 448.13Z" fill="#371A45"/>
<path d="M366.56 448.18C366.56 448.18 370.29 443.09 365.88 438.54C361.85 434.38 357.33 436.56 357.33 436.56C357.33 436.56 340.37 452.33 328.05 455.58C328.05 455.58 325.79 465.17 336.17 466.36C345.3 467.41 366.55 448.18 366.55 448.18H366.56Z" fill="white"/>
<g opacity="0.2">
<path d="M336.17 466.36C345.3 467.41 366.55 448.18 366.55 448.18C366.55 448.18 370.28 443.09 365.87 438.54C365.21 437.86 364.53 437.35 363.86 436.97C364.1 437.97 364.09 438.93 363.94 439.79C363.64 441.54 362.72 443.07 361.43 444.19C356.89 448.14 340.05 462.26 332.19 461.36C330.53 461.17 329.2 460.77 328.12 460.22C328.78 462.85 330.76 465.74 336.16 466.36H336.17Z" fill="#371A45"/>
</g>
<path d="M336.84 468.85C336.51 468.85 336.2 468.83 335.89 468.8C332 468.35 329.11 466.83 327.3 464.26C324.47 460.23 325.6 455.23 325.65 455.02C325.86 454.14 326.54 453.44 327.42 453.21C338.99 450.16 355.49 434.92 355.65 434.76C355.83 434.59 356.04 434.45 356.26 434.35C356.51 434.23 362.43 431.47 367.64 436.84C372.27 441.61 370.25 447.3 368.54 449.64C368.44 449.77 368.33 449.9 368.21 450.01C366.02 451.99 347.07 468.86 336.84 468.86V468.85ZM330.3 457.47C330.27 458.57 330.42 460.17 331.34 461.46C332.31 462.81 334.03 463.64 336.45 463.92C342.24 464.59 356.74 453.71 364.69 446.56C365.25 445.67 366.66 442.88 364.11 440.26C361.83 437.91 359.45 438.42 358.66 438.68C356.22 440.9 341.97 453.6 330.3 457.48V457.47Z" fill="#371A45"/>
<path d="M314.27 385.44C317.25 388.34 319.93 392.25 322.18 396.23C326.87 404.52 329.72 413.05 329.72 413.05C324.9 420.67 321.27 427.92 318.55 434.51C310.39 454.26 310.34 468.08 310.34 468.08C322.99 477.07 321.17 483.19 317.84 486.58C315.74 488.73 313.04 489.79 313.04 489.79C312.97 495.7 311.59 500.63 309.29 504.55C303 515.29 289.82 518.5 277.74 514.07C269.68 511.1 262.1 504.74 257.4 494.92V494.9C254.97 489.84 253.31 483.86 252.74 476.95C249.93 442.98 272.95 412.3 286.39 397.48C291.81 391.52 295.67 388.13 295.67 388.13C295.67 388.13 302.35 379.86 309.97 382.63C311.39 383.13 312.83 384.03 314.27 385.43V385.44Z" fill="white"/>
<g opacity="0.2">
<path d="M317.84 486.58C315.74 488.73 313.04 489.79 313.04 489.79C312.64 522.75 271.72 524.8 257.4 494.92C257.8 495.32 277.9 515.71 294.37 504.6C311.01 493.38 298.89 486.64 298.89 486.64C298.89 486.64 304.73 475.15 312.98 480.44C315.51 482.06 317.01 484.27 317.85 486.58H317.84Z" fill="#371A45"/>
</g>
<g opacity="0.2">
<path d="M313.61 473.16C312.63 475.47 309.55 468.47 298.83 463.71C296.72 462.77 295.55 460.48 296 458.21C297.99 448.35 305.1 423.12 327.5 408.58C329.22 407.46 331.26 409.48 330.17 411.22C324 421.05 313.48 441.19 310.34 468.08C310.34 468.08 315.2 469.39 313.61 473.15V473.16Z" fill="#371A45"/>
</g>
<path d="M310.8 491.23C307.57 487.19 303.95 486.18 298.9 486.93C298.55 486.98 298.2 486.74 298.19 486.37C298.19 486.19 298.26 486.03 298.38 485.91C298.92 485.42 299.49 484.93 300.12 484.52C304.28 481.77 310.18 482.85 313.61 486.34C314.27 486.99 314.72 487.5 315.26 488.35C316.97 491.4 312.96 493.95 310.8 491.23Z" fill="#371A45"/>
<path d="M313.71 447.76C313.09 447.76 312.48 447.55 311.97 447.11C310.9 446.19 286 425.27 258.7 447.11C257.55 448.03 255.89 447.84 254.97 446.7C254.05 445.55 254.24 443.88 255.38 442.97C271.47 430.1 286.97 430.81 297.13 433.68C308.06 436.77 315.14 442.84 315.44 443.1C316.55 444.06 316.67 445.74 315.71 446.84C315.19 447.45 314.45 447.76 313.7 447.76H313.71Z" fill="#371A45"/>
<path d="M297.42 390.13C279.73 406.84 264.63 427.62 257.94 451.21C252.82 469.83 253.68 493.31 269.58 506.37C278.22 513.56 291.7 516.15 301.28 509.44C307.6 505.06 310.34 497.32 310.37 489.75L310.4 487.98C313.91 486.75 318.85 483.87 317.34 479.48C315.81 475.3 311.35 472.07 307.68 469.43C308.03 454.23 313.76 438.36 320.73 424.99C323.06 420.59 325.68 416.34 328.56 412.3C329 411.69 329.84 411.54 330.46 411.98C331.03 412.39 331.19 413.16 330.86 413.75C326.17 422.21 321.91 431.01 318.76 440.16C315.74 449.19 313.37 458.55 312.99 468.07L311.87 465.9C313.92 467.37 315.92 468.95 317.77 470.83C325.68 478.55 324.42 487.7 313.99 492.25L315.68 489.81C315.72 501.56 309.75 512.93 298.16 516.98C287.31 520.86 274.92 517.65 266.22 510.49C248.54 496.05 247.12 470.31 252.8 449.81C259.15 427.12 272.98 407.3 289.24 390.59C290.75 389.07 292.23 387.62 293.89 386.13C296.59 383.86 300.02 387.72 297.39 390.12L297.42 390.13Z" fill="#371A45"/>
<g opacity="0.2">
<path d="M403.18 325.97C402.03 329.23 400.72 332.47 399.23 335.65C397.62 339.1 395.82 342.49 393.81 345.81C392.84 347.43 391.81 349.03 390.74 350.64C388.28 354.27 385.64 357.7 382.83 360.93C381.93 361.98 381.01 363 380.07 364C378.28 365.91 376.43 367.75 374.52 369.52C372.91 371.02 371.24 372.46 369.55 373.85C365.09 377.5 360.39 380.75 355.48 383.6C353.69 384.63 351.88 385.62 350.04 386.56C341.2 391.04 331.82 394.29 322.18 396.24C316.53 397.39 310.78 398.09 305 398.33C298.8 398.6 292.58 398.33 286.39 397.51C291.81 391.55 295.67 388.16 295.67 388.16C295.67 388.16 302.35 379.89 309.97 382.66C313.21 375.4 317.98 368.21 325.02 362.51C336.52 353.18 349.13 351.72 360.07 353.28L368.99 338.56C368.99 338.56 384.16 332.3 403.18 325.99V325.97Z" fill="#371A45"/>
</g>
<path d="M402.25 273.73C403.63 291.44 400.55 309.62 392.66 326.53C391.05 329.98 389.25 333.37 387.24 336.69C386.27 338.31 385.24 339.91 384.17 341.51C380.92 346.31 377.35 350.76 373.5 354.87C370.19 358.42 366.66 361.7 362.97 364.72C358.52 368.37 353.81 371.62 348.91 374.47C347.12 375.51 345.31 376.49 343.47 377.43C309.86 394.49 268.35 393.66 234.95 371.69C185.74 339.33 172.78 273.35 205.98 224.32C212.38 214.88 220.02 206.74 228.56 200.02C229.55 199.22 230.57 198.45 231.6 197.71C234.34 195.69 237.17 193.81 240.07 192.08C246.77 188.07 253.86 184.81 261.17 182.34C268.48 179.86 276.04 178.16 283.69 177.28C286.12 177 288.56 176.79 291.01 176.68C294.69 176.51 298.37 176.51 302.07 176.71C320.47 177.68 338.82 183.37 355.21 194.15C383.52 212.76 399.82 242.5 402.26 273.74L402.25 273.73Z" fill="white"/>
<path d="M294.01 389.53C273.23 389.53 252.59 383.61 234.81 371.91C211.05 356.28 194.91 332.38 189.37 304.6C183.78 276.6 189.61 248.04 205.77 224.17C212.08 214.87 219.69 206.67 228.4 199.81C229.34 199.05 230.37 198.27 231.45 197.49C234.19 195.48 237.04 193.58 239.94 191.84C246.59 187.86 253.71 184.57 261.1 182.08C268.41 179.6 276 177.89 283.67 177.01C286.14 176.72 288.61 176.52 291.01 176.41C294.76 176.23 298.49 176.24 302.09 176.44C321.08 177.44 339.5 183.49 355.36 193.92C382.79 211.96 399.98 241.04 402.53 273.71C403.94 291.82 400.62 310.13 392.91 326.65C391.28 330.15 389.45 333.57 387.48 336.83C386.58 338.32 385.58 339.91 384.4 341.66C381.19 346.4 377.59 350.91 373.7 355.05C370.45 358.53 366.9 361.85 363.15 364.92C358.76 368.51 354.02 371.8 349.05 374.7C347.26 375.73 345.43 376.73 343.6 377.66C327.96 385.6 310.94 389.53 294.02 389.53H294.01ZM296.25 176.81C294.52 176.81 292.77 176.85 291.02 176.93C288.63 177.04 286.17 177.25 283.71 177.53C276.08 178.41 268.52 180.11 261.25 182.58C253.9 185.06 246.82 188.33 240.2 192.29C237.32 194.01 234.48 195.91 231.75 197.91C230.68 198.69 229.66 199.46 228.72 200.22C220.06 207.05 212.48 215.21 206.2 224.46C190.12 248.21 184.32 276.63 189.88 304.49C195.39 332.13 211.45 355.91 235.09 371.46C267.2 392.59 308.68 394.78 343.34 377.19C345.16 376.26 346.99 375.27 348.77 374.24C353.71 371.36 358.43 368.09 362.8 364.51C366.53 361.46 370.07 358.15 373.3 354.69C377.17 350.57 380.75 346.08 383.95 341.36C385.12 339.61 386.12 338.04 387.02 336.55C388.98 333.3 390.8 329.89 392.42 326.42C400.09 309.99 403.4 291.77 401.99 273.75C399.45 241.24 382.35 212.31 355.06 194.37C339.28 183.99 320.95 177.97 302.05 176.97C300.15 176.86 298.21 176.81 296.25 176.81Z" fill="#371A45"/>
<g opacity="0.2">
<path d="M234.95 371.68C268.35 393.66 309.86 394.49 343.47 377.42C345.31 376.49 347.12 375.5 348.91 374.47C353.81 371.62 358.52 368.36 362.98 364.72C366.67 361.7 370.2 358.42 373.51 354.87C377.37 350.76 380.93 346.31 384.19 341.51C385.25 339.91 386.29 338.31 387.26 336.69C389.26 333.37 391.06 329.97 392.67 326.53C400.56 309.62 403.65 291.44 402.26 273.73C401.5 264 399.4 254.41 396 245.25C396.93 262.19 393.77 279.47 386.24 295.6C384.63 299.05 382.83 302.44 380.83 305.76C379.86 307.38 378.83 308.98 377.76 310.58C374.51 315.38 370.94 319.83 367.09 323.94C363.77 327.49 360.25 330.77 356.56 333.79C352.11 337.43 347.39 340.69 342.49 343.54C340.7 344.58 338.88 345.56 337.05 346.5C303.44 363.57 261.94 362.74 228.53 340.76C209.04 327.94 195.24 309.85 187.75 289.63C189.5 321.77 205.91 352.58 234.96 371.68H234.95Z" fill="#371A45"/>
</g>
<path d="M294.01 391.32C272.88 391.32 251.9 385.3 233.82 373.4C209.65 357.51 193.24 333.2 187.61 304.94C181.93 276.47 187.85 247.42 204.28 223.15C210.69 213.69 218.43 205.36 227.29 198.38C228.24 197.61 229.29 196.82 230.39 196.02C233.16 193.98 236.07 192.05 239.01 190.29C245.77 186.24 253.01 182.9 260.51 180.37C267.94 177.85 275.66 176.12 283.45 175.21C285.96 174.92 288.47 174.71 290.91 174.6C294.72 174.42 298.51 174.43 302.18 174.64C321.48 175.66 340.21 181.81 356.34 192.42C384.23 210.76 401.72 240.34 404.31 273.57C405.75 291.99 402.36 310.6 394.53 327.4C392.87 330.95 391.01 334.44 389.01 337.75C388.1 339.27 387.08 340.87 385.88 342.65C382.61 347.48 378.95 352.06 375 356.27C371.7 359.81 368.09 363.18 364.28 366.3C359.82 369.95 355 373.3 349.95 376.24C348.13 377.29 346.27 378.3 344.41 379.25C328.52 387.32 311.22 391.31 294.01 391.31V391.32ZM296.25 178.6C294.55 178.6 292.83 178.64 291.11 178.72C288.76 178.83 286.35 179.03 283.93 179.31C276.42 180.18 268.99 181.85 261.83 184.28C254.6 186.72 247.63 189.94 241.12 193.83C238.29 195.52 235.5 197.38 232.82 199.36C231.76 200.13 230.77 200.88 229.85 201.62C221.32 208.35 213.87 216.37 207.69 225.47C191.88 248.82 186.18 276.76 191.65 304.14C197.07 331.3 212.85 354.68 236.09 369.96C267.66 390.73 308.45 392.89 342.54 375.58C344.33 374.67 346.13 373.69 347.88 372.68C352.74 369.85 357.38 366.63 361.67 363.12C365.34 360.12 368.82 356.87 372 353.46C375.81 349.4 379.33 344.99 382.47 340.35C383.62 338.63 384.61 337.09 385.48 335.62C387.41 332.42 389.2 329.07 390.8 325.65C398.34 309.5 401.59 291.59 400.21 273.88C397.72 241.93 380.9 213.49 354.08 195.85C338.56 185.64 320.54 179.73 301.96 178.75C300.09 178.65 298.18 178.59 296.25 178.59V178.6Z" fill="#371A45"/>
<path d="M294.01 391.92C272.77 391.92 251.67 385.87 233.49 373.91C209.19 357.93 192.69 333.48 187.02 305.07C181.31 276.44 187.26 247.23 203.79 222.83C210.24 213.32 218.02 204.94 226.92 197.93C227.88 197.16 228.93 196.36 230.04 195.55C232.82 193.5 235.74 191.56 238.7 189.79C245.5 185.72 252.77 182.36 260.32 179.81C267.79 177.28 275.55 175.53 283.38 174.63C285.9 174.34 288.43 174.13 290.88 174.01C294.71 173.83 298.53 173.84 302.21 174.05C321.62 175.07 340.45 181.26 356.66 191.92C384.71 210.36 402.29 240.11 404.9 273.52C406.34 292.04 402.94 310.76 395.07 327.65C393.4 331.22 391.53 334.73 389.52 338.06C388.61 339.58 387.58 341.2 386.38 342.99C383.09 347.85 379.41 352.45 375.44 356.69C372.12 360.25 368.49 363.64 364.66 366.78C360.18 370.45 355.33 373.81 350.25 376.77C348.42 377.83 346.55 378.85 344.68 379.8C328.7 387.91 311.31 391.93 294.01 391.93V391.92ZM296.25 179.2C294.56 179.2 292.85 179.24 291.14 179.32C288.81 179.43 286.4 179.63 284 179.91C276.53 180.77 269.14 182.44 262.03 184.85C254.84 187.28 247.91 190.48 241.44 194.35C238.63 196.04 235.85 197.88 233.18 199.84C232.13 200.6 231.14 201.36 230.23 202.08C221.74 208.77 214.33 216.75 208.19 225.8C192.47 249.01 186.81 276.79 192.24 304.02C197.63 331.03 213.32 354.27 236.42 369.46C267.81 390.12 308.38 392.26 342.28 375.05C344.06 374.14 345.85 373.17 347.59 372.16C352.42 369.35 357.03 366.15 361.3 362.65C364.95 359.66 368.41 356.43 371.57 353.05C375.36 349.01 378.86 344.63 381.99 340.01C383.13 338.3 384.11 336.76 384.98 335.31C386.9 332.13 388.68 328.79 390.27 325.39C397.76 309.33 401 291.53 399.62 273.92C397.14 242.16 380.42 213.88 353.76 196.35C338.33 186.2 320.41 180.32 301.94 179.34C300.08 179.24 298.18 179.18 296.26 179.18L296.25 179.2Z" fill="#371A45"/>
<path d="M400.83 300.96C371.8 371.64 282.83 392.45 237.83 332.2C207.21 291.21 224.44 229.48 266.42 202.49C296.97 182.85 335.33 176.81 378.61 215.09C378.61 215.09 395.09 234.99 398.56 253.11C402.03 271.23 402.3 289.47 402.3 289.47L400.83 300.97V300.96Z" fill="#371A45"/>
<path d="M237.83 332.2C282.83 392.45 371.81 371.64 400.83 300.97L401.12 298.64C349.62 346.64 269.12 350.04 222.47 289.97C223.48 304.93 228.38 319.55 237.82 332.21L237.83 332.2Z" fill="#220F2D"/>
<path d="M306.17 381.34C301.72 381.34 297.28 381.05 292.89 380.46C266.37 376.88 243.44 363.07 226.59 340.51C211.11 319.79 205.33 293.2 210.31 265.65C215.84 235.05 234.2 207.1 259.41 190.9C273.42 181.89 287.64 176.24 301.67 174.09L301.94 174.05H302.21C321.62 175.09 340.46 181.27 356.67 191.94C384.72 210.38 402.3 240.13 404.91 273.54C406.35 292.06 402.95 310.78 395.08 327.67C393.41 331.24 391.54 334.75 389.53 338.08C388.62 339.6 387.59 341.22 386.39 343.01C383.1 347.87 379.42 352.47 375.45 356.71L375.14 356.99C354.82 372.8 330.29 381.36 306.19 381.36L306.17 381.34ZM302.2 179.37C289 181.44 275.57 186.81 262.28 195.36C238.29 210.79 220.81 237.41 215.54 266.59C210.82 292.68 216.26 317.8 230.85 337.33C246.83 358.72 268.53 371.82 293.61 375.2C320.33 378.8 348.79 370.68 371.71 352.91C375.44 348.92 378.89 344.59 381.98 340.03C383.12 338.32 384.1 336.78 384.97 335.33C386.89 332.15 388.67 328.81 390.26 325.41C397.75 309.35 400.99 291.55 399.61 273.94C397.13 242.18 380.41 213.9 353.75 196.37C338.4 186.27 320.58 180.4 302.2 179.38V179.37Z" fill="#371A45"/>
<path d="M195.23 354.29C205.62 372.47 225.24 381.53 239.06 374.52C252.88 367.51 255.65 347.09 245.26 328.9C245.2 328.78 245.12 328.67 245.06 328.55C234.62 310.6 215.15 301.7 201.44 308.66C190.77 314.07 186.68 327.49 190.17 341.7C191.2 345.88 192.88 350.14 195.25 354.27L195.23 354.29Z" fill="white"/>
<g opacity="0.2">
<path d="M195.23 354.29C205.62 372.47 225.24 381.53 239.06 374.52C252.88 367.51 255.65 347.09 245.26 328.9C245.2 328.78 245.12 328.67 245.06 328.55C244.61 331.19 243.29 334.22 239.74 335.23C233.51 336.99 216.76 330.4 216.76 330.4C216.76 330.4 205.2 335.23 190.17 341.7C191.2 345.88 192.88 350.14 195.25 354.27L195.23 354.29Z" fill="#371A45"/>
</g>
<path d="M228.9 379.52C215.84 379.52 201.4 370.45 192.92 355.61C186.53 344.43 184.63 332.14 187.7 321.89C189.83 314.77 194.16 309.38 200.22 306.31C215.25 298.68 236.49 308.23 247.56 327.59C253.95 338.77 255.85 351.06 252.78 361.31C250.65 368.43 246.32 373.82 240.26 376.89C236.75 378.67 232.89 379.52 228.91 379.52H228.9ZM211.72 308.94C208.51 308.94 205.43 309.62 202.62 311.04C197.89 313.44 194.49 317.72 192.78 323.41C190.16 332.14 191.94 343.19 197.53 352.97C207.21 369.91 225.3 378.52 237.85 372.15C242.58 369.75 245.98 365.47 247.69 359.78C250.31 351.05 248.53 340 242.95 330.22C235.43 317.07 222.85 308.94 211.73 308.94H211.72Z" fill="#371A45"/>
<path d="M230.361 374.133C240.134 367.775 240.494 350.998 231.166 336.661C221.837 322.325 206.353 315.857 196.581 322.215C186.809 328.574 186.449 345.35 195.777 359.687C205.105 374.024 220.589 380.491 230.361 374.133Z" fill="white"/>
<g opacity="0.2">
<path d="M228.92 374.95C218.44 380.17 203.04 372.4 194.5 357.6C193.57 356 192.77 354.37 192.08 352.75C200.62 361.42 211.69 365.07 219.83 361.01C229.02 356.42 231.47 343.49 226.33 330.46C228.59 332.88 230.67 335.65 232.44 338.73C240.97 353.53 239.4 369.74 228.92 374.95Z" fill="#371A45"/>
</g>
<path d="M221.86 379.19C211.39 379.19 199.41 371.42 192.21 358.93C186.75 349.47 184.98 338.88 187.47 330.62C189.08 325.27 192.32 321.26 196.84 319.01C208.53 313.19 225.53 321.45 234.74 337.41C240.2 346.87 241.97 357.46 239.48 365.72C237.87 371.07 234.63 375.08 230.11 377.33C227.57 378.59 224.78 379.19 221.87 379.19H221.86ZM196.81 356.28C204.64 369.85 218.52 377.16 227.74 372.57C230.91 370.99 233.21 368.09 234.39 364.18C236.47 357.29 234.88 348.27 230.14 340.06C222.31 326.49 208.44 319.18 199.21 323.77C196.04 325.35 193.74 328.25 192.56 332.16C190.48 339.05 192.07 348.07 196.81 356.29V356.28Z" fill="#371A45"/>
<g opacity="0.5">
<path d="M257.17 235.3C257.17 235.3 297.58 212.77 333.22 221.02C333.26 221.02 333.29 221.04 333.33 221.05C340.83 222.79 347.7 226.52 353.24 231.78C360.57 238.74 364.58 244.61 367.91 249.92C378.02 266.06 379.69 275.52 379.69 275.52C383.68 261.21 382.88 248.26 374.59 234.74C373.77 233.41 372.87 232.07 371.91 230.72C371.69 230.41 371.46 230.1 371.23 229.8C371.23 229.8 371.23 229.79 371.21 229.78C369.06 227.19 366.11 223.89 362.46 220.44C351.46 210.04 334.17 198.31 313.65 200.61C275.28 204.91 254.76 234.46 257.17 235.31V235.3Z" fill="white"/>
</g>
<g opacity="0.5">
<path d="M261.726 309.039C269.35 306.796 273.442 297.874 270.864 289.111C268.287 280.347 260.016 275.061 252.392 277.303C244.767 279.546 240.676 288.468 243.254 297.232C245.831 305.995 254.102 311.282 261.726 309.039Z" fill="white"/>
</g>
<g opacity="0.5">
<path d="M267.1 328.618C270.32 327.989 272.343 324.477 271.619 320.775C270.896 317.073 267.699 314.582 264.479 315.212C261.26 315.841 259.236 319.352 259.96 323.054C260.684 326.756 263.88 329.247 267.1 328.618Z" fill="white"/>
</g>
<path d="M596.29 369.02C597.15 370.9 597.88 372.81 598.49 374.73C590.54 381.22 574.82 390.33 556.04 398.94C537.25 407.55 520.09 413.5 509.98 415.28C508.92 413.57 507.95 411.76 507.09 409.89C507.05 409.8 507.01 409.71 506.97 409.63C506.59 408.8 506.24 407.96 505.92 407.13C505.16 405.16 504.53 403.18 504.04 401.18C504.02 401.1 504 401.02 503.98 400.94C503.26 397.97 502.83 394.97 502.68 391.98C502.39 386.3 503.1 380.65 504.72 375.3C508.65 362.29 517.93 350.97 531.25 344.87C544.46 338.81 558.97 339.12 571.32 344.51C576.39 346.72 581.1 349.79 585.2 353.63C587.4 355.68 589.42 357.95 591.23 360.43C591.38 360.63 591.52 360.83 591.67 361.03C592.86 362.71 593.96 364.48 594.95 366.34C595.32 367.03 595.67 367.73 596.01 368.45C596.1 368.64 596.19 368.84 596.29 369.04V369.02Z" fill="#FFB200"/>
<path d="M600.57 393.67C600.4 395.67 600.1 397.66 599.68 399.61C599.1 402.36 598.28 405.05 597.24 407.65C592.73 418.94 584.04 428.59 572.12 434.06C560.17 439.54 547.15 439.81 535.64 435.82C533.11 434.94 530.65 433.86 528.3 432.59C526.45 431.59 524.67 430.47 522.95 429.24C534.97 426.15 548.85 421.2 563.21 414.62C577.57 408.04 590.38 400.76 600.57 393.67Z" fill="#FF9100"/>
<path d="M598.49 374.73C590.54 381.22 574.82 390.34 556.04 398.94C537.25 407.55 520.09 413.51 509.98 415.29C508.92 413.57 507.96 411.77 507.09 409.89C507.05 409.8 507.01 409.72 506.97 409.63C506.6 408.8 506.25 407.96 505.92 407.13C505.16 405.17 504.53 403.18 504.04 401.18C504.02 401.1 504 401.02 503.98 400.94C503.26 397.97 502.83 394.97 502.68 391.98C502.39 386.3 503.1 380.66 504.72 375.3C507.9 364.78 514.57 355.37 524.06 348.92C521.59 352.76 519.68 356.93 518.36 361.29C516.74 366.65 516.03 372.29 516.32 377.97C516.47 380.96 516.9 383.95 517.62 386.92C517.64 387 517.66 387.09 517.68 387.17C517.71 387.28 517.74 387.41 517.79 387.56C520.3 395.99 529.37 399.51 538.13 398.71C554.82 397.19 590.95 377.63 598.64 373.12C599.17 374.41 598.08 373.43 598.49 374.74V374.73Z" fill="#FF9100"/>
<path d="M563.22 414.62C577.58 408.04 590.39 400.76 600.58 393.67C600.41 395.67 600.11 397.66 599.69 399.61C591.85 405.36 579.32 412.48 564.73 419.17C550.75 425.58 537.71 430.29 528.31 432.59C526.46 431.59 524.68 430.47 522.96 429.24C534.98 426.15 548.86 421.2 563.22 414.62Z" fill="#D66B09"/>
<g opacity="0.35">
<path d="M599.51 368.22C599.16 368.5 598.8 368.79 598.43 369.08C598.77 368.71 599.1 368.34 599.43 367.96C599.46 368.04 599.49 368.13 599.52 368.22H599.51Z" fill="#371A45"/>
</g>
<path d="M596.01 368.43C596.1 368.62 596.19 368.82 596.29 369.02C597.15 370.9 597.88 372.81 598.49 374.73C590.54 381.22 574.82 390.33 556.04 398.94C537.25 407.55 520.09 413.5 509.98 415.28C508.92 413.57 507.95 411.76 507.09 409.89C507.05 409.8 507.01 409.71 506.97 409.63C516.56 408.52 534.03 402.76 553.18 393.98C573.09 384.86 589.35 374.98 596.01 368.43Z" fill="#D66B09"/>
<path d="M502.6 393.62L502.75 390.32C509.44 390.63 526.9 384.99 545.21 376.6C567.06 366.59 581.15 357.02 583.79 352.75L586.61 354.48C583.13 360.14 567.05 370.23 546.6 379.61C527.56 388.34 509.88 393.97 502.61 393.63L502.6 393.62Z" fill="#D66B09"/>
<path d="M504.97 376.93L504.47 373.66C511.98 372.51 525 367.96 538.44 361.81C552.52 355.36 564.7 348.26 570.22 343.28L572.44 345.74C566.69 350.93 554.19 358.24 539.83 364.82C526.13 371.1 512.78 375.74 504.98 376.94L504.97 376.93Z" fill="#D66B09"/>
<path d="M503.98 402.58V399.27C511.65 399.27 529.7 393.36 548.88 384.57C569 375.35 585.87 365.01 589.9 359.44L592.58 361.38C588.18 367.47 571.17 378 550.26 387.58C530.38 396.69 512.22 402.58 503.99 402.58H503.98Z" fill="#D66B09"/>
<path d="M535.71 436.64L535.65 435.82L535.26 435.09L535.41 435.01H535.58C542.21 434.49 554.84 430.33 567.76 424.41C580.74 418.46 591.82 411.81 596.67 407.06L597.83 408.24C592.85 413.12 581.6 419.89 568.45 425.92C555.17 432 542.63 436.11 535.71 436.65V436.64Z" fill="#D66B09"/>
<path d="M551.71 440.99C541.04 440.99 530.42 437.69 521.49 431.25C520.71 430.68 520.32 429.72 520.5 428.77C520.68 427.82 521.39 427.06 522.33 426.82C534.63 423.66 548.41 418.66 562.17 412.35C575.93 406.04 588.72 398.87 599.14 391.62C599.93 391.07 600.97 391.03 601.81 391.51C602.65 391.99 603.13 392.92 603.04 393.88C601.44 412.34 589.98 428.6 573.15 436.32C566.32 439.45 559 440.99 551.7 440.99H551.71ZM529.03 430.15C541.89 437.29 557.54 437.99 571.08 431.79C584.62 425.59 594.3 413.27 597.29 398.87C587.59 405.2 576.28 411.36 564.25 416.88C552.22 422.39 540.16 426.93 529.04 430.15H529.03Z" fill="#371A45"/>
<path d="M624.49 363.75C627.48 370.28 617.78 381.7 600.58 393.67C590.4 400.76 577.58 408.04 563.22 414.62C548.86 421.2 534.98 426.15 522.96 429.24C502.66 434.45 487.68 434.35 484.69 427.82C481.97 421.89 489.72 411.93 504.05 401.19C504.54 403.19 505.17 405.18 505.93 407.14C501.97 410.41 500.03 413 500.71 414.5C501.41 416.03 504.75 416.23 509.98 415.31C520.09 413.53 537.25 407.57 556.04 398.97C574.83 390.36 590.55 381.25 598.49 374.76C602.6 371.4 604.63 368.74 603.93 367.21C603.24 365.71 600.01 365.49 594.95 366.36C593.96 364.5 592.86 362.73 591.67 361.05C609.16 357.22 621.76 357.84 624.48 363.78L624.49 363.75Z" fill="#FFD766"/>
<path d="M505.62 406.33C505.72 406.6 505.82 406.86 505.92 407.13C501.96 410.4 500.01 412.98 500.7 414.48C501.4 416.01 504.75 416.21 509.97 415.29C516.67 414.11 526.49 411.09 537.82 406.68C537.64 407.67 537.64 408.61 537.82 409.46C533.45 411.11 529.21 412.56 525.18 413.8C507.69 419.19 498.57 419.12 497.5 416.77C496.87 415.4 498.69 411.95 505.61 406.33H505.62Z" fill="#FFAA39"/>
<path d="M504.31 403.95L504.73 404.47C501.17 407.24 498.42 409.71 496.36 411.88C497.9 409.6 500.55 406.96 504.32 403.94L504.31 403.95Z" fill="#FF9100"/>
<path d="M505.15 404.99L504.73 404.47C504.79 404.42 504.86 404.37 504.93 404.32L505.15 404.99Z" fill="#FF9100"/>
<path d="M496.36 411.89C494.74 414.26 494.33 416.25 495.08 417.89C495.81 419.49 497.54 420.38 499.92 420.76C506.14 421.74 516.84 419.18 525.98 416.36C530.12 415.09 534.48 413.59 538.98 411.89C539.85 412.98 541.13 413.83 542.8 414.46C536.15 417 529.7 419.16 523.66 420.85C502.11 426.89 492.75 425.28 491.28 422.06C490.46 420.27 491.64 416.85 496.37 411.88L496.36 411.89Z" fill="#FFAA39"/>
<path d="M562.33 415.02C548.29 421.4 534.72 426.21 522.95 429.23C502.65 434.44 487.67 434.34 484.67 427.8C481.95 421.87 489.71 411.91 504.03 401.17C504.18 401.76 504.34 402.36 504.51 402.95L503.69 401.88C495.38 408.25 486.05 417.12 488.83 423.18C489.9 425.52 492.45 426.79 495.81 427.32C503.72 428.56 516.14 425.74 524.37 423.43C531.59 421.41 539.39 418.73 547.39 415.55C551.37 416.06 556.44 415.86 562.33 415.02Z" fill="#FFAA39"/>
<path d="M538.97 411.89C534.47 413.58 530.11 415.08 525.97 416.36C516.83 419.18 506.13 421.74 499.91 420.76C497.53 420.38 495.8 419.49 495.07 417.89C494.32 416.25 494.73 414.26 496.35 411.89C498.42 409.71 501.16 407.24 504.72 404.48L505.14 405C505.29 405.45 505.45 405.89 505.61 406.34C498.69 411.96 496.87 415.41 497.5 416.78C498.57 419.12 507.69 419.19 525.18 413.81C529.2 412.57 533.44 411.12 537.82 409.47C537.91 409.9 538.04 410.31 538.22 410.7C538.42 411.13 538.66 411.53 538.96 411.9L538.97 411.89Z" fill="#FFCF6E"/>
<path d="M504.73 404.47C501.17 407.24 498.42 409.71 496.36 411.88C497.9 409.6 500.55 406.96 504.32 403.94L504.74 404.46L504.73 404.47Z" fill="#FFEC90"/>
<path d="M505.15 404.99L505.99 406.03C505.87 406.13 505.74 406.23 505.62 406.33C505.46 405.88 505.3 405.44 505.15 404.99Z" fill="#FFEC90"/>
<path d="M588.85 387.55C580.08 393.05 569.51 398.68 558.27 403.83C551.73 406.82 545.22 409.54 538.97 411.89C538.67 411.52 538.42 411.11 538.23 410.69C538.05 410.3 537.92 409.89 537.83 409.46C544.08 407.12 550.61 404.4 557.16 401.4C568.29 396.29 578.76 390.72 587.42 385.28C602.92 375.55 608.82 368.59 607.75 366.26C607.11 364.86 603.18 363.97 594.08 365.67L593.71 363.69L593.59 363.03C598.36 362.14 602.09 361.86 604.83 362.18C607.66 362.52 609.43 363.5 610.18 365.14C612.83 370.92 600.04 380.52 588.85 387.55Z" fill="#FFEC90"/>
<path d="M547.39 415.55C539.39 418.74 531.6 421.41 524.37 423.43C516.14 425.74 503.72 428.56 495.81 427.32C492.45 426.79 489.91 425.53 488.83 423.18C486.05 417.12 495.38 408.25 503.69 401.88L504.51 402.95C504.64 403.41 504.78 403.86 504.92 404.32C504.85 404.37 504.78 404.42 504.72 404.47L504.3 403.95C500.53 406.97 497.88 409.61 496.34 411.89C491.61 416.86 490.43 420.29 491.25 422.07C492.72 425.28 502.09 426.9 523.63 420.86C529.67 419.17 536.12 417.01 542.77 414.47C544.07 414.97 545.61 415.33 547.37 415.55H547.39Z" fill="#FFCF6E"/>
<path d="M504.31 403.95L504.73 404.47C501.17 407.24 498.42 409.71 496.36 411.88C497.9 409.6 500.55 406.96 504.32 403.94L504.31 403.95Z" fill="#FFAA39"/>
<path d="M504.52 402.95L505.33 404.01C505.2 404.12 505.06 404.22 504.93 404.32C504.78 403.87 504.65 403.41 504.52 402.95Z" fill="#FFEC90"/>
<path d="M595.26 390.95C585.51 397.43 573.66 403.92 560.98 409.73C556.43 411.82 551.88 413.76 547.39 415.55C545.64 415.33 544.1 414.96 542.79 414.47C548.38 412.34 554.12 409.93 559.86 407.3C572.41 401.55 584.14 395.13 593.77 388.73C612.41 376.35 617.3 368.21 615.83 364.99C615.01 363.21 611.66 361.86 604.83 362.19C601.83 362.33 598.15 362.8 593.71 363.7C593.47 363.75 593.22 363.8 592.97 363.85L592.43 361.23C602.68 359.09 615.49 357.82 618.27 363.88C621.88 371.75 605.4 384.23 595.26 390.97V390.95Z" fill="#FFEC90"/>
<path d="M498.62 435.44C491.09 435.44 484.69 433.79 482.42 428.84C478.32 419.88 491.1 407.76 502.55 399.18C503.22 398.68 504.09 398.55 504.88 398.83C505.67 399.11 506.26 399.77 506.46 400.58C506.93 402.49 507.53 404.39 508.25 406.23C508.64 407.23 508.34 408.37 507.51 409.05C504.9 411.2 503.82 412.56 503.37 413.27C504.23 413.4 506.03 413.46 509.55 412.84C519.76 411.04 537.18 404.85 555 396.68C572.82 388.51 588.88 379.37 596.91 372.8C599.67 370.54 600.81 369.13 601.27 368.4C600.44 368.27 598.7 368.21 595.37 368.78C594.31 368.96 593.26 368.44 592.75 367.5C591.82 365.76 590.78 364.06 589.64 362.46C589.16 361.78 589.05 360.9 589.35 360.12C589.65 359.34 590.32 358.76 591.14 358.59C605.12 355.53 622.64 353.76 626.75 362.71C631.52 373.12 613.29 387.85 601.99 395.71C591.33 403.13 578.28 410.45 564.25 416.88C550.22 423.31 536.16 428.41 523.57 431.64C516.58 433.43 506.92 435.44 498.61 435.44H498.62ZM502.66 405.38C488.91 416.28 485.52 423.66 486.95 426.77C488.82 430.84 500.48 432.43 522.34 426.82C534.64 423.66 548.42 418.66 562.18 412.35C575.94 406.04 588.73 398.87 599.15 391.62C617.68 378.73 624.09 368.85 622.22 364.78C620.8 361.67 612.99 359.42 595.76 362.72C595.94 363.01 596.11 363.31 596.28 363.6C600.42 363.04 604.78 363.08 606.19 366.14C607.82 369.69 603.77 373.62 600.06 376.65C591.59 383.57 575.52 392.74 557.07 401.2C538.61 409.66 521.17 415.84 510.41 417.73C505.69 418.56 500.07 419.06 498.44 415.51C497.04 412.45 499.85 409.12 502.98 406.35C502.87 406.03 502.76 405.7 502.65 405.38H502.66Z" fill="#371A45"/>
<g opacity="0.41">
<path d="M597.16 375.72C596.24 376.48 595.21 377.27 594.08 378.09C593.62 376.8 593.09 375.52 592.51 374.26C592.42 374.06 592.33 373.87 592.23 373.67C591.89 372.95 591.54 372.25 591.17 371.56C590.18 369.7 589.08 367.93 587.89 366.25C587.75 366.05 587.6 365.85 587.45 365.65C585.64 363.17 583.61 360.9 581.41 358.85C577.3 355.02 572.6 351.94 567.53 349.74C555.18 344.35 540.67 344.04 527.46 350.1C518.64 354.14 511.59 360.47 506.69 368.07C511.54 358.6 519.49 350.64 529.91 345.86C543.12 339.81 557.63 340.11 569.98 345.5C575.05 347.71 579.76 350.78 583.86 354.62C586.05 356.67 588.08 358.94 589.89 361.42C590.04 361.62 590.18 361.82 590.33 362.02C591.52 363.7 592.62 365.47 593.61 367.33C593.98 368.02 594.33 368.72 594.67 369.44C594.76 369.63 594.86 369.83 594.95 370.03C595.81 371.91 596.54 373.82 597.15 375.74L597.16 375.72Z" fill="white"/>
</g>
<path d="M509.97 417.78C509.12 417.78 508.31 417.34 507.85 416.6C506.73 414.79 505.71 412.88 504.82 410.93C504.38 409.96 503.97 408.99 503.59 408.02C502.8 405.99 502.14 403.89 501.61 401.77C495.69 377.79 507.71 352.9 530.2 342.59C552.69 332.28 579.39 339.43 593.69 359.57C594.95 361.35 596.11 363.23 597.14 365.15C597.63 366.06 598.1 367.01 598.54 367.98C599.44 369.94 600.21 371.95 600.85 373.98C601.16 374.95 600.85 376.01 600.05 376.66C591.58 383.58 575.51 392.75 557.06 401.21C538.6 409.67 521.16 415.85 510.4 417.74C510.26 417.77 510.11 417.78 509.97 417.78ZM551.66 342.89C545.13 342.89 538.53 344.26 532.28 347.12C511.96 356.43 501.1 378.91 506.45 400.57C506.92 402.48 507.52 404.38 508.24 406.22C508.58 407.09 508.95 407.98 509.35 408.85C509.92 410.09 510.55 411.32 511.22 412.51C521.6 410.37 538.11 404.41 554.99 396.68C571.87 388.95 587.17 380.33 595.56 373.86C595.1 372.58 594.58 371.3 594.01 370.05C593.61 369.18 593.18 368.32 592.74 367.49C591.81 365.75 590.76 364.05 589.62 362.44C580.68 349.84 566.36 342.87 551.65 342.87L551.66 342.89Z" fill="#371A45"/>
<path d="M422.07 223.96C419.03 218.99 417.53 213.02 418.17 206.78C419.73 191.63 433.27 180.6 448.43 182.16C463.59 183.72 474.61 197.26 473.05 212.42C471.49 227.57 457.95 238.6 442.79 237.04C438.57 236.61 434.68 235.24 431.29 233.18L418.53 236.04L422.07 223.96Z" fill="white"/>
<g opacity="0.5">
<path d="M447.88 187.44C433.72 185.99 420.97 195.51 418.09 209.13C418.09 208.16 418.13 207.18 418.23 206.19C419.79 191.04 433.33 180.01 448.49 181.57C463.64 183.13 474.67 196.67 473.11 211.83C473.01 212.82 472.85 213.8 472.65 214.75C472.6 200.83 462.05 188.9 447.88 187.45V187.44Z" fill="white"/>
</g>
<path d="M445.63 239.65C444.61 239.65 443.58 239.6 442.54 239.49C438.39 239.06 434.48 237.82 430.88 235.79L419.06 238.44C418.21 238.63 417.32 238.36 416.72 237.72C416.12 237.08 415.91 236.18 416.15 235.34L419.39 224.29C416.34 218.87 415.07 212.75 415.71 206.53C416.53 198.54 420.41 191.36 426.64 186.29C432.87 181.22 440.7 178.88 448.68 179.7C465.16 181.39 477.2 196.18 475.51 212.67C473.92 228.12 460.84 239.65 445.64 239.65H445.63ZM431.29 230.7C431.74 230.7 432.18 230.82 432.57 231.06C435.77 233.01 439.29 234.19 443.04 234.57C456.82 235.98 469.17 225.93 470.59 212.15C472 198.37 461.95 186.02 448.17 184.6C441.5 183.92 434.96 185.87 429.75 190.1C424.55 194.33 421.3 200.34 420.62 207.01C420.05 212.52 421.28 217.93 424.17 222.65C424.53 223.24 424.63 223.97 424.43 224.63L422.07 232.68L430.74 230.73C430.92 230.69 431.1 230.67 431.28 230.67L431.29 230.7Z" fill="#371A45"/>
<g opacity="0.2">
<path d="M421.91 223.7C429.47 230.09 439.87 232.89 450.21 230.32C461.67 227.47 470.12 218.74 473.16 208.14C473.23 209.54 473.2 210.97 473.05 212.42C471.49 227.57 457.95 238.6 442.79 237.04C438.57 236.61 434.68 235.24 431.29 233.18L418.53 236.04L422.07 223.96C422.02 223.87 421.97 223.78 421.92 223.7H421.91Z" fill="#371A45"/>
</g>
<path d="M436.79 201.85C439.18 199.46 443.05 199.89 445.43 202.28L445.8 202.65L446.17 202.28C448.56 199.89 452.43 199.47 454.81 201.85C457.2 204.24 457.2 208.11 454.81 210.49L454.44 210.86L446.93 218.37C446.3 219 445.28 219 444.65 218.37L437.14 210.86L436.77 210.49C434.38 208.1 434.38 204.23 436.77 201.85H436.79Z" fill="#FF0068"/>
<path d="M362.4 160.63C381.918 160.63 397.74 144.808 397.74 125.29C397.74 105.772 381.918 89.9502 362.4 89.9502C342.882 89.9502 327.06 105.772 327.06 125.29C327.06 144.808 342.882 160.63 362.4 160.63Z" fill="url(#paint0_linear_148_394)"/>
<path d="M348.24 117.02H354.32V136.54H348.24V117.02ZM351.28 107.32C353.22 107.32 354.8 108.9 354.8 110.84C354.8 112.78 353.23 114.36 351.28 114.36C349.33 114.36 347.76 112.78 347.76 110.84C347.76 108.9 349.33 107.32 351.28 107.32Z" fill="white"/>
<path d="M358.13 117.021H363.95V119.691H364.03C364.84 118.151 366.82 116.541 369.78 116.541C375.92 116.541 377.06 120.581 377.06 125.841V136.551H371V127.061C371 124.791 370.96 121.881 367.85 121.881C364.74 121.881 364.21 124.351 364.21 126.891V136.551H358.15V117.031L358.13 117.021Z" fill="white"/>
<path d="M240.58 172.01C261.716 172.01 278.85 154.876 278.85 133.74C278.85 112.604 261.716 95.4702 240.58 95.4702C219.444 95.4702 202.31 112.604 202.31 133.74C202.31 154.876 219.444 172.01 240.58 172.01Z" fill="url(#paint1_linear_148_394)"/>
<path d="M220.87 153.49L223.7 142.92C222.1 140.03 221.25 136.78 221.25 133.49C221.25 122.73 230 113.98 240.76 113.98C251.52 113.98 260.27 122.73 260.27 133.49C260.27 144.25 251.52 153 240.76 153C237.53 153 234.34 152.18 231.49 150.64L220.87 153.49ZM232.02 146.68L232.69 147.08C235.15 148.54 237.94 149.32 240.77 149.32C249.49 149.32 256.59 142.22 256.59 133.5C256.59 124.78 249.49 117.68 240.77 117.68C232.05 117.68 224.95 124.78 224.95 133.5C224.95 136.38 225.75 139.22 227.26 141.7L227.67 142.37L226.09 148.27L232.02 146.68Z" fill="white"/>
<path fill-rule="evenodd" clip-rule="evenodd" d="M248.03 136.21C247.23 135.73 246.18 135.19 245.24 135.58C244.51 135.88 244.05 137.01 243.58 137.59C243.34 137.89 243.05 137.93 242.68 137.79C239.96 136.7 237.87 134.89 236.36 132.38C236.11 131.99 236.15 131.68 236.46 131.32C236.91 130.79 237.48 130.18 237.61 129.46C237.73 128.74 237.39 127.9 237.1 127.26C236.72 126.44 236.29 125.27 235.47 124.81C234.71 124.38 233.72 124.62 233.05 125.17C231.89 126.12 231.33 127.6 231.35 129.07C231.35 129.49 231.41 129.9 231.5 130.31C231.73 131.28 232.18 132.18 232.69 133.04C233.07 133.69 233.48 134.32 233.93 134.92C235.39 136.9 237.2 138.62 239.3 139.91C240.35 140.55 241.48 141.12 242.65 141.5C243.96 141.93 245.13 142.38 246.55 142.12C248.03 141.84 249.5 140.92 250.08 139.49C250.25 139.07 250.34 138.6 250.24 138.15C250.04 137.23 248.79 136.68 248.04 136.23L248.03 136.21Z" fill="white"/>
<path d="M119.86 361.1C144.045 361.1 163.65 341.495 163.65 317.31C163.65 293.125 144.045 273.52 119.86 273.52C95.6755 273.52 76.07 293.125 76.07 317.31C76.07 341.495 95.6755 361.1 119.86 361.1Z" fill="url(#paint2_linear_148_394)"/>
<path d="M141.13 311.76C141.13 306.61 136.95 302.43 131.8 302.43H107.93C102.78 302.43 98.6 306.61 98.6 311.76V322.87C98.6 328.02 102.78 332.2 107.93 332.2H131.8C136.95 332.2 141.13 328.02 141.13 322.87V311.76ZM127.09 318.15L116.39 323.44C115.97 323.67 114.55 323.36 114.55 322.89V312.02C114.55 311.54 115.99 311.23 116.41 311.47L126.65 317.04C127.08 317.28 127.53 317.91 127.1 318.14L127.09 318.15Z" fill="white"/>
<path d="M157.41 234.71C174.21 234.71 187.83 221.623 187.83 205.48C187.83 189.337 174.21 176.25 157.41 176.25C140.609 176.25 126.99 189.337 126.99 205.48C126.99 221.623 140.609 234.71 157.41 234.71Z" fill="url(#paint3_linear_148_394)"/>
<path d="M164.49 204.21C164.63 204.27 164.76 204.33 164.9 204.39C166.81 205.27 168.2 206.6 168.93 208.24C169.95 210.53 170.05 214.25 166.95 217.22C164.59 219.49 161.71 220.51 157.65 220.54H157.63C153.05 220.51 149.53 219.03 147.16 216.14C145.05 213.57 143.97 209.99 143.93 205.51V205.49C143.96 200.99 145.05 197.41 147.15 194.84C149.52 191.95 153.04 190.47 157.62 190.44H157.64C162.23 190.47 165.79 191.94 168.23 194.82C169.43 196.24 170.32 197.96 170.88 199.94L168.24 200.62C167.78 199 167.08 197.62 166.14 196.52C164.23 194.28 161.38 193.12 157.62 193.1C153.9 193.13 151.09 194.28 149.25 196.51C147.54 198.6 146.65 201.62 146.62 205.49C146.65 209.36 147.54 212.38 149.25 214.48C151.08 216.71 153.9 217.86 157.62 217.89C160.97 217.86 163.19 217.1 165.04 215.33C167.15 213.31 167.11 210.83 166.44 209.32C166.04 208.43 165.32 207.69 164.36 207.13C164.12 208.82 163.59 210.16 162.75 211.19C161.63 212.56 160.05 213.3 158.01 213.4C156.47 213.48 154.99 213.12 153.84 212.4C152.48 211.53 151.69 210.22 151.6 208.68C151.44 205.65 153.93 203.48 157.81 203.26C159.19 203.18 160.48 203.24 161.67 203.44C161.51 202.51 161.19 201.77 160.72 201.23C160.07 200.5 159.05 200.12 157.71 200.11H157.66C156.58 200.11 155.12 200.4 154.18 201.76L151.94 200.28C153.19 198.46 155.22 197.45 157.67 197.45H157.72C161.8 197.48 164.24 199.93 164.49 204.2H164.48V204.21H164.49ZM154.31 208.52C154.39 210.09 156.16 210.83 157.87 210.73C159.54 210.64 161.43 210.02 161.75 206.14C160.89 205.96 159.94 205.86 158.92 205.86C158.61 205.86 158.29 205.86 157.98 205.89C155.18 206.04 154.25 207.34 154.31 208.51V208.52Z" fill="white"/>
<path d="M201.99 545.81C221.165 545.81 236.71 530.265 236.71 511.09C236.71 491.915 221.165 476.37 201.99 476.37C182.815 476.37 167.27 491.915 167.27 511.09C167.27 530.265 182.815 545.81 201.99 545.81Z" fill="url(#paint4_linear_148_394)"/>
<path d="M211.55 499.47C210.38 499.47 209.43 500.42 209.43 501.59C209.43 502.76 210.38 503.71 211.55 503.71C212.72 503.71 213.67 502.76 213.67 501.59C213.67 500.42 212.72 499.47 211.55 499.47Z" fill="white"/>
<path d="M202.13 502.19C197.22 502.19 193.23 506.18 193.23 511.09C193.23 516 197.22 519.99 202.13 519.99C207.04 519.99 211.03 516 211.03 511.09C211.03 506.18 207.04 502.19 202.13 502.19ZM202.13 516.79C198.99 516.79 196.43 514.23 196.43 511.09C196.43 507.95 198.99 505.39 202.13 505.39C205.27 505.39 207.83 507.95 207.83 511.09C207.83 514.23 205.27 516.79 202.13 516.79Z" fill="white"/>
<path d="M209.2 529.16H194.77C188.78 529.16 183.92 524.29 183.92 518.31V503.88C183.92 497.89 188.79 493.03 194.77 493.03H209.2C215.19 493.03 220.06 497.9 220.06 503.88V518.31C220.06 524.3 215.19 529.16 209.2 529.16ZM194.77 496.42C190.66 496.42 187.31 499.76 187.31 503.87V518.3C187.31 522.41 190.65 525.76 194.77 525.76H209.2C213.31 525.76 216.66 522.42 216.66 518.3V503.87C216.66 499.76 213.32 496.42 209.2 496.42H194.77Z" fill="white"/>
<path d="M525.54 306.43C546.118 306.43 562.8 289.748 562.8 269.17C562.8 248.592 546.118 231.91 525.54 231.91C504.962 231.91 488.28 248.592 488.28 269.17C488.28 289.748 504.962 306.43 525.54 306.43Z" fill="url(#paint5_linear_148_394)"/>
<path d="M529.66 292.91V272.14H536.58L537.9 263.55H529.66V257.98C529.66 255.63 530.81 253.34 534.5 253.34H538.25V246.03C538.25 246.03 534.85 245.45 531.6 245.45C524.81 245.45 520.38 249.56 520.38 257.01V263.56H512.83V272.15H520.38V292.92H529.67L529.66 292.91Z" fill="white"/>
<path d="M174.2 442.86C189.725 442.86 202.31 430.275 202.31 414.75C202.31 399.225 189.725 386.64 174.2 386.64C158.675 386.64 146.09 399.225 146.09 414.75C146.09 430.275 158.675 442.86 174.2 442.86Z" fill="url(#paint6_linear_148_394)"/>
<path d="M176.59 412.78L185.91 401.94H183.7L175.61 411.35L169.15 401.94H161.69L171.47 416.17L161.69 427.53H163.9L172.45 417.59L179.28 427.53H186.74L176.6 412.78H176.59ZM173.56 416.3L172.57 414.88L164.69 403.61H168.08L174.44 412.71L175.43 414.13L183.7 425.96H180.31L173.56 416.31V416.3Z" fill="white"/>
<path d="M580.78 506.79C593.941 506.79 604.61 496.121 604.61 482.96C604.61 469.799 593.941 459.13 580.78 459.13C567.619 459.13 556.95 469.799 556.95 482.96C556.95 496.121 567.619 506.79 580.78 506.79Z" fill="url(#paint7_linear_148_394)"/>
<path d="M567.12 482.4C567.12 482.4 579.04 477.51 583.18 475.78C584.76 475.09 590.14 472.89 590.14 472.89C590.14 472.89 592.62 471.93 592.41 474.27C592.34 475.23 591.79 478.61 591.24 482.26C590.41 487.43 589.52 493.08 589.52 493.08C589.52 493.08 589.38 494.67 588.21 494.94C587.04 495.22 585.11 493.98 584.76 493.7C584.48 493.49 579.59 490.39 577.8 488.88C577.32 488.47 576.77 487.64 577.87 486.67C580.35 484.4 583.31 481.57 585.11 479.78C585.94 478.95 586.76 477.02 583.32 479.37C578.43 482.75 573.6 485.92 573.6 485.92C573.6 485.92 572.5 486.61 570.43 485.99C568.36 485.37 565.95 484.54 565.95 484.54C565.95 484.54 564.3 483.51 567.12 482.4Z" fill="white"/>
<defs>
<linearGradient id="paint0_linear_148_394" x1="337.41" y1="100.3" x2="387.39" y2="150.29" gradientUnits="userSpaceOnUse">
<stop stop-color="#007BB8"/>
<stop offset="1" stop-color="#0044E9"/>
</linearGradient>
<linearGradient id="paint1_linear_148_394" x1="213.52" y1="106.68" x2="267.64" y2="160.8" gradientUnits="userSpaceOnUse">
<stop stop-color="#00FB73"/>
<stop offset="1" stop-color="#00B25B"/>
</linearGradient>
<linearGradient id="paint2_linear_148_394" x1="88.9" y1="286.35" x2="150.82" y2="348.27" gradientUnits="userSpaceOnUse">
<stop stop-color="#FF0000"/>
<stop offset="1" stop-color="#9B0000"/>
</linearGradient>
<linearGradient id="paint3_linear_148_394" x1="136.32" y1="184.39" x2="178.5" y2="226.58" gradientUnits="userSpaceOnUse">
<stop stop-color="#23004A"/>
<stop offset="0.96" stop-color="#010003"/>
<stop offset="1"/>
</linearGradient>
<linearGradient id="paint4_linear_148_394" x1="177.43" y1="486.53" x2="226.54" y2="535.64" gradientUnits="userSpaceOnUse">
<stop stop-color="#FFE185"/>
<stop offset="0.21" stop-color="#FFBB36"/>
<stop offset="0.38" stop-color="#FF5176"/>
<stop offset="0.52" stop-color="#F63395"/>
<stop offset="0.74" stop-color="#A436D2"/>
<stop offset="1" stop-color="#5F4EED"/>
</linearGradient>
<linearGradient id="paint5_linear_148_394" x1="499.2" y1="242.83" x2="551.89" y2="295.52" gradientUnits="userSpaceOnUse">
<stop stop-color="#1677F1"/>
<stop offset="0.18" stop-color="#176EE9"/>
<stop offset="0.46" stop-color="#1D55D3"/>
<stop offset="0.82" stop-color="#252EB0"/>
<stop offset="1" stop-color="#2B189C"/>
</linearGradient>
<linearGradient id="paint6_linear_148_394" x1="154.33" y1="394.88" x2="194.08" y2="434.63" gradientUnits="userSpaceOnUse">
<stop stop-color="#23004A"/>
<stop offset="0.96" stop-color="#010003"/>
<stop offset="1"/>
</linearGradient>
<linearGradient id="paint7_linear_148_394" x1="563.93" y1="466.11" x2="597.64" y2="499.82" gradientUnits="userSpaceOnUse">
<stop stop-color="#2CB5E5"/>
<stop offset="0.65" stop-color="#6C6EF5"/>
<stop offset="1" stop-color="#9146FF"/>
</linearGradient>
</defs>
</svg>
