<svg width="355" height="274" viewBox="0 0 355 274" fill="none" xmlns="http://www.w3.org/2000/svg">
<path d="M2.4815 172.574L176.967 273.329C178.455 274.224 180.391 274.224 181.88 273.329L352.494 176.303C354.876 174.96 355.695 171.903 354.355 169.516C353.908 168.77 353.313 168.099 352.494 167.652L175.106 65.9271C173.543 65.0321 171.682 65.0321 170.193 65.9271L2.4815 163.997C0.0994504 165.34 -0.719379 168.397 0.694963 170.784C1.06716 171.53 1.73711 172.126 2.4815 172.574Z" fill="#C685FF"/>
<path d="M137.886 185.849L95.977 210.758C95.977 210.758 95.6792 225.972 127.688 239.47L177.562 210.832" fill="url(#paint0_linear_139_1412)"/>
<path opacity="0.66" d="M150.987 218.588V174.214C150.987 168.024 154.263 162.282 159.548 159.15L236.444 113.732C238.528 112.538 241.208 113.284 242.399 115.372C242.771 116.044 242.994 116.715 242.994 117.46V173.096L157.389 222.317C155.379 223.511 152.774 222.839 151.583 220.751C151.136 220.155 150.987 219.409 150.987 218.588Z" fill="white"/>
<path opacity="0.66" d="M172.575 151.393V144.607C172.575 144.607 172.277 139.088 176.818 136.254C181.359 133.42 209.645 117.237 209.645 117.237C209.645 117.237 215.08 114.477 215.08 119.325V126.335L172.575 151.393Z" fill="white"/>
<path d="M118.234 200.615V156.241C118.234 150.051 121.51 144.309 126.869 141.176L203.765 95.7583C205.849 94.565 208.529 95.2362 209.72 97.3244C210.092 97.9956 210.315 98.7414 210.315 99.4872V155.122L124.71 204.344C122.701 205.537 120.095 204.866 118.904 202.778C118.383 202.107 118.234 201.361 118.234 200.615Z" fill="#FFE427"/>
<path d="M153.816 222.69L119.723 203.896L166.917 145.949L208.306 95.9072L241.505 114.104" fill="#FFE427"/>
<path d="M150.987 218.588V174.214C150.987 168.024 154.263 162.282 159.548 159.15L236.444 113.732C238.528 112.538 241.208 113.284 242.399 115.372C242.771 116.044 242.994 116.715 242.994 117.46V173.096L157.389 222.317C155.379 223.511 152.774 222.839 151.583 220.751C151.136 220.155 150.987 219.409 150.987 218.588Z" fill="#FFE427"/>
<path d="M172.575 151.393V144.607C172.575 144.607 172.277 139.088 176.818 136.254C181.359 133.42 209.645 117.237 209.645 117.237C209.645 117.237 215.08 114.477 215.08 119.325V126.335L172.575 151.393Z" fill="#FFE427"/>
<path opacity="0.21" d="M150.987 218.588V174.214C150.987 168.024 154.263 162.282 159.548 159.15L236.444 113.732C238.528 112.538 241.208 113.284 242.399 115.372C242.771 116.044 242.994 116.715 242.994 117.46V173.096L157.389 222.317C155.379 223.511 152.774 222.839 151.583 220.751C151.136 220.155 150.987 219.409 150.987 218.588Z" fill="#323234"/>
<path d="M204.211 106.945L210.613 110.674L217.834 106.498L211.432 102.843L204.211 106.945Z" fill="#323234"/>
<path d="M217.834 106.498V102.843L204.211 103.291V106.945" fill="#323234"/>
<path d="M204.211 103.291L210.613 107.02L217.834 102.843L211.432 99.2637L204.211 103.291Z" fill="#545454"/>
<path opacity="0.21" d="M172.575 151.393V144.607C172.575 144.607 172.277 139.088 176.818 136.254C181.359 133.42 209.645 117.237 209.645 117.237C209.645 117.237 215.08 114.477 215.08 119.325V126.335L172.575 151.393Z" fill="#323234"/>
<path d="M140.417 133.719V126.932C140.417 126.932 140.119 121.413 144.66 118.579C149.201 115.745 177.488 99.5619 177.488 99.5619C177.488 99.5619 182.922 96.8025 182.922 101.65V108.66L140.417 133.719Z" fill="#FFE427"/>
<path d="M213.591 116.64L182.103 99.2637L172.575 104.186L180.614 110.674" fill="#FFE427"/>
<path opacity="0.66" d="M172.575 151.394L140.417 133.047V127.454L172.575 146.024V151.394Z" fill="white"/>
<path d="M148.68 147.739C153.243 147.739 156.943 145.803 156.943 143.414C156.943 141.025 153.243 139.088 148.68 139.088C144.116 139.088 140.417 141.025 140.417 143.414C140.417 145.803 144.116 147.739 148.68 147.739Z" fill="#323234"/>
<path d="M140.417 143.414V139.909H156.943V143.414" fill="#323234"/>
<path d="M148.68 144.234C153.243 144.234 156.943 142.297 156.943 139.909C156.943 137.52 153.243 135.583 148.68 135.583C144.116 135.583 140.417 137.52 140.417 139.909C140.417 142.297 144.116 144.234 148.68 144.234Z" fill="#545454"/>
<path d="M177.637 143.339C177.637 142.593 178.083 141.848 178.753 141.475C183.517 138.641 202.648 127.454 208.976 123.8C209.645 123.427 210.464 123.651 210.837 124.322C210.985 124.546 210.985 124.769 210.985 124.993V126.335C210.985 127.081 210.613 127.827 209.869 128.2L180.986 145.204C179.944 145.8 178.604 145.427 178.009 144.383C177.786 144.085 177.711 143.712 177.637 143.339Z" fill="#323234"/>
<path d="M118.234 159.299L150.987 176.303L242.92 123.128L242.994 155.719L150.987 208.52L118.234 191.517V159.299Z" fill="#545454"/>
<path d="M237.858 149.678L215.377 137.149L183.815 191.889L205.998 204.94" fill="#42403E"/>
<path d="M218.765 175.748C227.563 160.481 227.451 143.914 218.514 138.745C209.578 133.576 195.201 141.762 186.403 157.029C177.605 172.296 177.718 188.862 186.654 194.031C195.591 199.201 209.967 191.015 218.765 175.748Z" fill="#42403E"/>
<path d="M238.089 186.634C246.887 171.367 246.774 154.8 237.838 149.631C228.901 144.462 214.525 152.648 205.727 167.915C196.929 183.181 197.041 199.748 205.978 204.917C214.914 210.086 229.291 201.901 238.089 186.634Z" fill="#323234"/>
<path d="M233.725 184.37C240.138 173.241 240.056 161.164 233.54 157.395C227.025 153.626 216.544 159.593 210.13 170.722C203.717 181.851 203.8 193.928 210.315 197.697C216.831 201.466 227.312 195.499 233.725 184.37Z" fill="#68E1FD"/>
<path opacity="0.66" d="M233.725 184.37C240.138 173.241 240.056 161.164 233.54 157.395C227.025 153.626 216.544 159.593 210.13 170.722C203.717 181.851 203.8 193.928 210.315 197.697C216.831 201.466 227.312 195.499 233.725 184.37Z" fill="white"/>
<path opacity="0.2" d="M150.987 208.52V176.303L118.234 159.299V191.517L150.987 208.52Z" fill="white"/>
<path d="M38.2123 112.464L87.3421 85.3917V1.56592L38.2123 30.0548V112.464Z" fill="#F2C39C"/>
<path d="M43.8696 93.819L81.238 73.3101V13.4238L43.8696 33.7837V93.819Z" fill="white"/>
<path d="M51.7602 89.3445C51.7602 89.3445 50.4203 66.5982 55.0355 62.4964C59.6507 58.3946 72.3798 51.9063 74.9107 55.0386C77.4417 58.1709 76.9206 75.5476 76.9206 75.5476" fill="#545454"/>
<path d="M60.9162 52.6519L61.3628 58.991C63.2982 59.2893 65.3081 58.6181 66.5736 57.1265" fill="#EDAF00"/>
<path d="M70.3699 43.3299C70.5188 43.7773 71.8587 56.5302 66.5735 57.1268C61.2884 57.7235 61.4373 48.5503 61.3628 45.791C61.2884 43.0316 68.9556 38.4823 70.3699 43.3299Z" fill="#FFC40C"/>
<path d="M69.1789 44.1498C69.1789 44.1498 72.3798 43.1057 72.2309 40.6446C72.082 38.1835 71.1143 35.797 68.4345 36.8411C68.4345 36.8411 64.2659 35.5733 61.6606 36.7665C59.0552 37.9598 59.7996 40.8683 59.7996 40.8683C59.7996 40.8683 57.2687 41.0921 56.4498 42.9565C55.631 44.821 57.8642 47.1329 57.8642 47.1329C56.8965 48.177 56.7476 49.6686 57.492 50.8618C58.7575 53.0246 62.3305 53.5466 62.3305 53.5466C62.3305 53.5466 61.5861 45.1939 64.2659 45.4922C66.0525 45.6413 67.7646 45.1939 69.1789 44.1498Z" fill="#545454"/>
<path d="M63.0749 50.1161C63.0749 50.1161 62.1072 47.7296 60.544 48.4754C58.9808 49.2212 60.544 50.9365 62.2561 51.8314" fill="#FFC40C"/>
<path d="M169.002 74.9512L139.375 92.9991C139.375 92.9991 137.588 97.6975 158.059 106.349L188.951 87.1074" fill="url(#paint1_linear_139_1412)"/>
<path d="M178.009 91.1347C186.971 91.1347 194.237 84.3566 194.237 75.9953C194.237 67.6341 186.971 60.856 178.009 60.856C169.047 60.856 161.781 67.6341 161.781 75.9953C161.781 84.3566 169.047 91.1347 178.009 91.1347Z" fill="#68E1FD"/>
<path d="M178.009 73.6087C184.71 73.6087 190.142 70.6704 190.142 67.0458C190.142 63.4212 184.71 60.4829 178.009 60.4829C171.308 60.4829 165.875 63.4212 165.875 67.0458C165.875 70.6704 171.308 73.6087 178.009 73.6087Z" fill="#D46A00"/>
<path d="M177.413 13.9459V65.554C177.562 66.1506 178.158 66.4489 178.753 66.2997C179.125 66.2252 179.423 65.9268 179.498 65.554V13.9459C179.349 13.3493 178.679 13.051 178.158 13.2001C177.786 13.3493 177.488 13.573 177.413 13.9459Z" fill="#1C7377"/>
<path d="M182.252 12.0071C182.922 10.8138 182.996 9.39684 182.55 8.05444C182.103 6.63745 181.359 5.22047 180.838 3.87806C180.316 2.53566 179.721 1.26783 179.2 0C178.604 0.298312 174.212 6.86119 174.064 9.62058C173.915 12.38 177.488 14.6919 177.488 14.6919L178.604 15.3631C178.828 15.5122 180.689 13.9461 180.912 13.7224C181.433 13.2749 181.88 12.6783 182.252 12.0071Z" fill="#1C7377"/>
<path d="M178.977 27.072C183.592 26.6245 186.718 22.7465 188.877 18.7192C184.038 19.0176 179.572 22.0753 178.977 27.072Z" fill="#1C7377"/>
<path d="M178.679 26.9227C177.264 22.5226 172.798 20.2107 168.481 18.9429C169.672 23.6413 173.691 27.3702 178.679 26.9227Z" fill="#1C7377"/>
<path d="M178.381 39.7502C184.262 39.1536 188.281 34.2315 191.036 29.1602C184.857 29.4585 179.125 33.4111 178.381 39.7502Z" fill="#1C7377"/>
<path d="M177.934 39.5263C176.148 33.9329 170.491 31.0244 164.908 29.3091C166.545 35.4245 171.533 40.1975 177.934 39.5263Z" fill="#1C7377"/>
<path d="M178.828 54.6656C185.527 53.9944 190.068 48.4011 193.269 42.584C186.197 42.8823 179.647 47.357 178.828 54.6656Z" fill="#1C7377"/>
<path d="M178.307 54.3676C176.297 47.9539 169.821 44.5979 163.493 42.7334C165.354 49.6692 171.086 55.1134 178.307 54.3676Z" fill="#1C7377"/>
<defs>
<linearGradient id="paint0_linear_139_1412" x1="136.77" y1="185.849" x2="136.77" y2="239.47" gradientUnits="userSpaceOnUse">
<stop stop-color="#9367BA"/>
<stop offset="1" stop-color="#C685FF"/>
</linearGradient>
<linearGradient id="paint1_linear_139_1412" x1="164.143" y1="74.9512" x2="164.143" y2="106.349" gradientUnits="userSpaceOnUse">
<stop stop-color="#9367BA"/>
<stop offset="1" stop-color="#C685FF"/>
</linearGradient>
</defs>
</svg>
