<svg width="356" height="265" viewBox="0 0 356 265" fill="none" xmlns="http://www.w3.org/2000/svg">
<path d="M172.718 262.207L6.93942 164.373C1.65653 161.401 -2.8823 156.573 2.25178 153.378L168.626 57.6238C171.156 56.0638 174.876 55.0981 177.48 56.5096L351.518 157.39C356.801 160.435 357.768 168.978 352.485 172.098L194.594 262.059C187.823 265.921 179.564 265.996 172.718 262.207Z" fill="#C685FF"/>
<path opacity="0.46" d="M104.561 107.692L83.8018 119.504C83.8018 119.504 85.5876 130.35 95.8557 134.658L123.014 117.275" fill="url(#paint0_linear_139_1722)"/>
<path d="M114.755 119.504C121.659 119.504 127.255 115.546 127.255 110.664C127.255 105.782 121.659 101.824 114.755 101.824C107.851 101.824 102.255 105.782 102.255 110.664C102.255 115.546 107.851 119.504 114.755 119.504Z" fill="#68E1FD"/>
<path d="M114.755 109.327C119.933 109.327 124.13 107.597 124.13 105.464C124.13 103.331 119.933 101.601 114.755 101.601C109.577 101.601 105.38 103.331 105.38 105.464C105.38 107.597 109.577 109.327 114.755 109.327Z" fill="#3E2928"/>
<path d="M114.383 99.1497C114.383 97.4411 114.309 95.6583 114.16 93.9497C114.16 93.504 114.085 93.0582 114.011 92.6125L113.937 91.7211C113.862 91.424 113.788 90.8297 113.788 90.8297C113.713 90.4582 113.639 90.1611 113.639 89.7897C112.597 83.9211 110.291 78.3496 106.942 73.4468C105.677 76.4925 105.008 79.7611 105.082 83.0296C105.082 83.9954 105.157 84.9611 105.231 85.8525V86.2239C105.231 86.2239 105.231 86.1497 105.305 86.3725C105.38 86.8182 105.454 87.2639 105.603 87.7839C105.975 89.5668 106.496 91.2754 107.091 92.984C107.612 94.544 108.356 96.0297 109.1 97.5154C109.919 99.1497 110.886 100.71 111.853 102.27C112.597 103.458 113.341 104.573 114.085 105.613C114.309 103.458 114.383 101.304 114.383 99.1497ZM109.472 79.6868C109.472 79.4639 109.472 79.2411 109.398 79.0182C109.621 79.2411 109.844 79.5382 110.067 79.7611C109.919 79.6868 109.695 79.6868 109.472 79.6868Z" fill="#999A1C"/>
<path d="M117.657 100.412C118.624 98.9266 119.443 97.4409 120.336 95.9552L120.931 94.7666L121.303 93.9494L121.675 93.1323C121.824 92.8352 121.973 92.4637 122.121 92.1666C124.428 86.6694 125.544 80.7266 125.321 74.7837C122.642 76.6408 120.336 79.018 118.55 81.8408C118.029 82.658 117.583 83.4751 117.136 84.2923C116.987 84.5151 116.987 84.5894 116.913 84.6637C116.838 84.738 116.987 84.5894 116.838 84.8123C116.69 85.258 116.466 85.7037 116.318 86.1494C115.648 87.858 115.127 89.5666 114.755 91.2752C114.383 92.9094 114.16 94.5437 114.011 96.178C113.862 98.0352 113.788 99.818 113.788 101.675C113.788 103.087 113.788 104.424 113.862 105.687C115.202 104.052 116.466 102.269 117.657 100.412ZM123.982 81.4694C124.13 81.3208 124.279 81.098 124.279 80.8751C124.354 81.1723 124.428 81.5437 124.428 81.9151C124.354 81.6923 124.205 81.5437 123.982 81.4694Z" fill="#999A1C"/>
<path d="M117.583 104.721C118.55 104.275 119.517 103.755 120.484 103.161L121.228 102.715C121.303 102.715 121.526 102.493 121.675 102.418L122.121 102.121L122.642 101.75C125.693 99.5211 128.148 96.6983 130.008 93.4297C127.925 93.5783 125.916 94.0983 124.056 95.064C123.535 95.3611 123.014 95.6583 122.493 95.9554L122.27 96.104L122.196 96.1783L121.452 96.6983C120.559 97.3668 119.74 98.184 118.922 99.0011C118.178 99.744 117.583 100.561 116.987 101.378C116.318 102.344 115.648 103.31 115.053 104.275C114.606 105.018 114.16 105.761 113.788 106.504C115.053 105.91 116.318 105.39 117.583 104.721ZM127.181 96.5497C127.33 96.4754 127.479 96.4011 127.553 96.3268C127.479 96.5497 127.404 96.7726 127.33 96.9211C127.255 96.8468 127.181 96.6983 127.181 96.5497Z" fill="#999A1C"/>
<path d="M114.383 99.1497C114.383 97.4411 114.309 95.6583 114.16 93.9497C114.16 93.504 114.085 93.0582 114.011 92.6125L113.937 91.7211C113.862 91.424 113.788 90.8297 113.788 90.8297C113.713 90.4582 113.639 90.1611 113.639 89.7897C112.597 83.9211 110.291 78.3496 106.942 73.4468C105.677 76.4925 105.008 79.7611 105.082 83.0296C105.082 83.9954 105.157 84.9611 105.231 85.8525V86.2239C105.231 86.2239 105.231 86.1497 105.305 86.3725C105.38 86.8182 105.454 87.2639 105.603 87.7839C105.975 89.5668 106.496 91.2754 107.091 92.984C107.612 94.544 108.356 96.0297 109.1 97.5154C109.919 99.1497 110.886 100.71 111.853 102.27C112.597 103.458 113.341 104.573 114.085 105.613C114.309 103.458 114.383 101.304 114.383 99.1497Z" fill="#999A1C"/>
<path d="M117.657 100.412C118.624 98.9266 119.443 97.4409 120.336 95.9552L120.931 94.7666L121.303 93.9494L121.675 93.1323C121.824 92.8352 121.973 92.4637 122.121 92.1666C124.428 86.6694 125.544 80.7266 125.321 74.7837C122.642 76.6408 120.336 79.018 118.55 81.8408C118.029 82.658 117.583 83.4751 117.136 84.2923C116.987 84.5151 116.987 84.5894 116.913 84.6637C116.838 84.738 116.987 84.5894 116.838 84.8123C116.69 85.258 116.466 85.7037 116.318 86.1494C115.648 87.858 115.127 89.5666 114.755 91.2752C114.383 92.9094 114.16 94.5437 114.011 96.178C113.862 98.0352 113.788 99.818 113.788 101.675C113.788 103.087 113.788 104.424 113.862 105.687C115.202 104.052 116.466 102.269 117.657 100.412Z" fill="#999A1C"/>
<path d="M117.583 104.721C118.55 104.275 119.517 103.755 120.484 103.161L121.228 102.715C121.303 102.715 121.526 102.493 121.675 102.418L122.121 102.121L122.642 101.75C125.693 99.5211 128.148 96.6983 130.008 93.4297C127.925 93.5783 125.916 94.0983 124.056 95.064C123.535 95.3611 123.014 95.6583 122.493 95.9554L122.27 96.104L122.196 96.1783L121.452 96.6983C120.559 97.3668 119.74 98.184 118.922 99.0011C118.178 99.744 117.583 100.561 116.987 101.378C116.318 102.344 115.648 103.31 115.053 104.275C114.606 105.018 114.16 105.761 113.788 106.504C115.053 105.91 116.318 105.39 117.583 104.721Z" fill="#999A1C"/>
<path opacity="0.46" d="M186.409 133.098L153.67 151.744C153.67 151.744 204.043 182.424 214.386 186.807L233.211 159.767" fill="url(#paint1_linear_139_1722)"/>
<path d="M199.43 125.818L181.349 134.51C179.266 135.476 178.373 138.001 179.415 140.081C179.787 140.824 180.382 141.493 181.052 141.864L223.984 166.824C225.919 167.938 228.374 167.344 229.565 165.487L239.982 149.293" fill="#3E2928"/>
<path d="M297.945 83.9211L153.521 0.869499C150.396 -0.913362 146.452 0.126641 144.592 3.24665C143.997 4.21236 143.699 5.32665 143.699 6.51523V92.9097C143.699 94.8411 144.741 96.624 146.378 97.5897L300.326 186.287C302.037 187.253 304.121 186.658 305.088 184.95C305.386 184.43 305.534 183.836 305.534 183.241V97.2183C305.609 91.7954 302.633 86.6697 297.945 83.9211Z" fill="#68E1FD"/>
<path d="M153.521 7.40665L293.555 87.8582C296.606 89.6411 298.466 92.8354 298.466 96.3268V161.104C298.466 163.036 296.903 164.67 294.894 164.67C294.299 164.67 293.629 164.521 293.108 164.224L150.322 82.3611C149.205 81.7668 148.536 80.5782 148.536 79.3154V10.2295C148.536 8.44666 150.024 6.96094 151.81 6.96094C152.405 6.96094 153 7.10951 153.521 7.40665Z" fill="white"/>
<path d="M212.449 129.626C214.104 129.308 215.149 127.515 214.784 125.622C214.418 123.728 212.781 122.451 211.127 122.769C209.472 123.087 208.427 124.88 208.792 126.774C209.157 128.667 210.795 129.944 212.449 129.626Z" fill="#3E2928"/>
<path opacity="0.32" d="M191.097 95.2867L256.203 134.287L288.346 115.641L230.904 82.2866" fill="url(#paint2_linear_139_1722)"/>
<path d="M271.53 87.487L201.216 44.6983C200.025 44.0298 198.537 44.4012 197.868 45.5898C197.644 45.9612 197.496 46.4069 197.57 46.9269V71.2927C197.57 72.1841 198.016 73.0755 198.761 73.5212L269.075 115.418C270.266 116.087 271.754 115.641 272.423 114.527C272.647 114.156 272.721 113.71 272.721 113.264L273.093 90.5327C273.167 89.2698 272.572 88.1556 271.53 87.487Z" fill="#E2AC00"/>
<path d="M263.863 102.766C267.138 100.963 268.087 96.4144 265.983 92.6064C263.879 88.7983 259.519 87.1731 256.245 88.9763C252.97 90.7794 252.021 95.3282 254.125 99.1362C256.229 102.944 260.589 104.569 263.863 102.766Z" fill="white"/>
<path d="M247.72 83.4013L238.047 77.607L222.571 68.3212L218.999 66.1669C218.553 66.0184 218.106 66.2412 217.883 66.6869C217.734 67.0584 217.883 67.4298 218.181 67.6526L227.854 73.4469L243.33 82.807L246.902 84.9613C247.274 85.1841 247.795 85.0355 248.018 84.6641C248.241 84.2927 248.092 83.6241 247.72 83.4013Z" fill="white"/>
<path d="M246.53 90.3839L233.062 82.2867L211.856 69.5096L206.945 66.5381C206.499 66.3153 206.052 66.5381 205.829 66.9096C205.68 67.281 205.755 67.7267 206.127 67.9496L219.52 76.0467L240.726 88.8239L245.637 91.7953C246.083 92.0182 246.53 91.7953 246.753 91.4239C246.902 91.0525 246.827 90.6068 246.53 90.3839Z" fill="white"/>
<path d="M257.542 92.2409L187.227 49.4522C186.037 48.7837 184.549 49.1551 183.879 50.3437C183.656 50.7894 183.507 51.2351 183.581 51.6808V76.0466C183.581 76.938 184.028 77.8294 184.772 78.2752L255.087 120.172C256.277 120.841 257.765 120.395 258.435 119.281C258.658 118.91 258.733 118.464 258.733 118.018L259.105 95.2866C259.179 94.098 258.584 92.9095 257.542 92.2409Z" fill="#F47B56"/>
<path d="M249.822 107.535C253.096 105.732 254.045 101.183 251.941 97.3754C249.837 93.5674 245.478 91.9422 242.203 93.7453C238.929 95.5485 237.98 100.097 240.083 103.905C242.187 107.713 246.547 109.338 249.822 107.535Z" fill="white"/>
<path d="M233.657 88.0812L223.984 82.2869L208.508 73.0012L204.936 70.8469C204.49 70.624 203.969 70.7726 203.746 71.144C203.523 71.5898 203.671 72.1098 204.043 72.3326L213.716 78.1269L229.193 87.4126L232.764 89.5669C233.137 89.7898 233.657 89.6412 233.881 89.2698C234.104 88.8984 234.029 88.3784 233.657 88.0812Z" fill="white"/>
<path d="M232.467 95.1381L218.999 87.0409L197.793 74.2638L192.882 71.2923C192.51 71.0695 191.989 71.218 191.766 71.6638C191.543 72.0352 191.692 72.5552 192.064 72.778L205.532 80.8752L226.738 93.6524L231.648 96.6238C232.095 96.8467 232.541 96.6238 232.764 96.2524C232.913 95.8067 232.839 95.361 232.467 95.1381Z" fill="white"/>
<path d="M239.833 95.1384L169.519 52.3497C168.328 51.6811 166.914 52.0525 166.17 53.2411C165.947 53.6125 165.798 54.1326 165.873 54.5783V78.944C165.873 79.8355 166.319 80.7269 167.063 81.1726L237.452 123.07C238.643 123.738 240.131 123.293 240.8 122.178C241.024 121.807 241.098 121.361 241.098 120.916L241.47 98.1841C241.47 96.9212 240.875 95.8069 239.833 95.1384Z" fill="#68E1FD"/>
<path d="M239.833 95.1384L169.519 52.3497C168.328 51.6811 166.914 52.0525 166.17 53.2411C165.947 53.6125 165.798 54.1326 165.873 54.5783V78.944C165.873 79.8355 166.319 80.7269 167.063 81.1726L237.452 123.07C238.643 123.738 240.131 123.293 240.8 122.178C241.024 121.807 241.098 121.361 241.098 120.916L241.47 98.1841C241.47 96.9212 240.875 95.8069 239.833 95.1384Z" fill="#68E1FD"/>
<path d="M232.187 110.417C235.462 108.614 236.411 104.065 234.307 100.257C232.203 96.4492 227.843 94.824 224.569 96.6272C221.294 98.4303 220.345 102.979 222.449 106.787C224.553 110.595 228.913 112.22 232.187 110.417Z" fill="white"/>
<path d="M216.023 90.9782L206.35 85.1839L190.873 75.8982L187.302 73.7439C186.93 73.521 186.409 73.6696 186.186 74.041C185.963 74.4124 186.111 74.9324 186.483 75.1553L196.156 80.9496L211.633 90.2353L215.204 92.3896C215.576 92.6125 216.097 92.4639 216.321 92.0925C216.544 91.7211 216.395 91.2011 216.023 90.9782Z" fill="white"/>
<path d="M214.832 98.0354L201.439 89.9383L180.233 77.1611L175.322 74.1897C174.95 73.9668 174.429 74.1154 174.206 74.4868C173.983 74.8582 174.132 75.3782 174.504 75.6011L187.972 83.6983L209.177 96.4754L214.088 99.4469C214.46 99.6697 214.981 99.5212 215.204 99.1497C215.428 98.7783 215.204 98.2583 214.832 98.0354Z" fill="white"/>
<path d="M169.072 28.8753C170.56 31.0296 171.453 33.5553 171.602 36.2296C171.676 37.8639 171.379 38.9782 170.784 39.6468C170.188 40.3153 169.221 40.4639 168.402 40.0925C167.882 39.8696 167.51 39.5725 167.138 39.201C166.84 38.9039 166.542 38.5325 166.319 38.161L166.096 37.7153C166.021 37.8639 165.947 37.9382 165.873 38.0125C165.649 38.161 165.352 38.3096 165.054 38.3839C164.608 38.4582 164.087 38.3839 163.64 38.2353C162.599 37.7896 161.706 36.9725 161.111 35.9325C160.441 34.8182 159.994 33.5553 159.994 32.2925C159.846 31.2525 160.218 30.2125 160.887 29.3953C161.483 28.801 162.45 28.6525 163.268 29.0239C163.64 29.1725 164.012 29.3953 164.31 29.6925C164.608 29.9153 164.831 30.1382 164.98 30.4353L165.129 30.7325V29.841L167.063 30.5839L167.286 36.0068C167.286 36.3782 167.435 36.7496 167.658 37.121C167.807 37.4182 168.105 37.7153 168.477 37.8639C169.37 38.2353 169.816 37.4182 169.816 35.4868C169.742 33.5553 169.072 31.6239 167.956 30.0639C166.914 28.4296 165.426 27.1667 163.64 26.4239C162.301 25.7553 160.739 25.9782 159.622 26.9439C158.581 27.9096 158.06 29.3953 158.134 31.401C158.209 33.481 158.878 35.4868 159.994 37.1953C160.962 38.8296 162.45 40.1668 164.161 40.9096C164.757 41.1325 165.426 41.2811 166.096 41.2811C166.542 41.2811 166.989 41.2068 167.361 41.0582L167.733 40.8353L168.923 42.9896L168.7 43.1382C168.551 43.2125 168.328 43.3611 168.105 43.4353C167.807 43.5839 167.51 43.6582 167.138 43.7325C166.691 43.8068 166.245 43.8068 165.873 43.7325C165.352 43.6582 164.757 43.5096 164.236 43.2868C162.748 42.6925 161.334 41.7268 160.292 40.5382C159.027 39.1268 158.06 37.5668 157.316 35.8582C156.572 34.2239 156.125 32.441 156.051 30.6582C155.977 29.1725 156.274 27.6125 156.944 26.2753C157.539 25.161 158.506 24.2696 159.697 23.8982C160.962 23.5267 162.301 23.601 163.492 24.121C165.724 24.9382 167.733 26.6467 169.072 28.8753ZM164.831 35.7096C165.129 35.3382 165.277 34.8182 165.203 34.2982C165.203 33.7039 164.98 33.0353 164.682 32.5153C164.459 32.0696 164.012 31.6982 163.492 31.4753C163.12 31.2525 162.599 31.3267 162.301 31.6239C161.929 31.9953 161.78 32.5153 161.855 33.0353C161.855 33.7039 162.078 34.2982 162.376 34.8182C162.673 35.3382 163.045 35.7096 163.566 35.9325C164.087 36.081 164.533 36.0068 164.831 35.7096Z" fill="#F47B56"/>
<path d="M283.212 133.395C284.701 135.55 285.593 138.075 285.742 140.675C285.817 142.31 285.519 143.424 284.924 144.093C284.328 144.761 283.287 144.91 282.543 144.538C282.022 144.315 281.65 144.018 281.278 143.647C280.98 143.35 280.683 142.978 280.459 142.607L280.236 142.161C280.162 142.31 280.087 142.384 280.013 142.458C279.79 142.681 279.492 142.755 279.194 142.83C278.748 142.904 278.227 142.904 277.781 142.681C276.739 142.235 275.846 141.418 275.251 140.378C274.507 139.264 274.135 138.001 274.135 136.664C273.986 135.624 274.358 134.584 275.028 133.767C275.623 133.173 276.59 133.024 277.334 133.395C277.706 133.544 278.078 133.767 278.376 134.064C278.674 134.287 278.897 134.51 279.046 134.807L279.194 135.104V134.287L281.129 135.03L281.352 140.453C281.352 140.824 281.501 141.195 281.724 141.567C281.873 141.864 282.171 142.161 282.543 142.235C283.51 142.607 283.882 141.79 283.808 139.858C283.733 137.927 283.064 135.995 281.947 134.361C280.906 132.727 279.418 131.464 277.632 130.721C275.995 130.053 274.656 130.275 273.614 131.241C272.498 132.207 272.051 133.693 272.126 135.698C272.2 137.778 272.795 139.858 273.986 141.641C274.953 143.275 276.441 144.613 278.153 145.355C278.748 145.578 279.418 145.727 280.013 145.727C280.459 145.727 280.906 145.653 281.278 145.504L281.65 145.281L282.84 147.435C282.766 147.51 282.692 147.51 282.617 147.584C282.468 147.658 282.245 147.807 282.022 147.881C281.724 148.03 281.427 148.104 281.055 148.178C280.608 148.253 280.162 148.253 279.79 148.178C279.269 148.104 278.674 147.955 278.153 147.733C276.665 147.064 275.325 146.098 274.284 144.91C273.019 143.498 272.051 141.938 271.307 140.23C270.563 138.595 270.117 136.813 270.042 135.03C269.968 133.544 270.266 132.058 270.935 130.647C271.53 129.533 272.498 128.641 273.688 128.27C274.953 127.898 276.293 127.973 277.483 128.493C279.938 129.458 281.873 131.167 283.212 133.395ZM278.971 140.23C279.269 139.858 279.418 139.338 279.343 138.818C279.343 138.224 279.12 137.555 278.822 137.035C278.599 136.59 278.153 136.218 277.632 135.995C277.26 135.773 276.739 135.847 276.441 136.144C276.069 136.515 275.92 137.035 275.995 137.555C275.995 138.224 276.218 138.818 276.516 139.338C276.813 139.858 277.26 140.23 277.706 140.453C278.227 140.601 278.674 140.527 278.971 140.23Z" fill="#F47B56"/>
<path opacity="0.46" d="M90.5728 174.55L57.8338 155.979L25.0947 174.624C25.0947 174.624 43.3244 185.99 59.6195 195.499C69.9621 188.144 79.1886 179.824 90.5728 174.55Z" fill="url(#paint3_linear_139_1722)"/>
<path d="M42.878 125.744V166.304L74.5009 184.356L110.291 163.258V122.698" fill="#68E1FD"/>
<path d="M42.878 125.744L79.635 104.87L110.291 122.698L74.5009 143.795L42.878 125.744Z" fill="#68E1FD"/>
<path d="M74.5009 143.795V184.356L110.291 163.258V122.698L74.5009 143.795Z" fill="#68E1FD"/>
<path opacity="0.17" d="M42.878 125.744V166.304L74.5009 184.356L110.291 163.258V122.698" fill="#2E2E75"/>
<path d="M42.878 125.744L79.635 104.87L110.291 122.698L74.5009 143.795L42.878 125.744Z" fill="#68E1FD"/>
<path opacity="0.33" d="M74.5009 143.795V184.356L110.291 163.258V122.698L74.5009 143.795Z" fill="#2E2E75"/>
<path d="M75.3938 114.155C79.635 114.007 83.2065 114.824 86.1084 116.533C87.9686 117.647 89.0103 118.761 89.1591 119.95C89.3079 121.138 88.7127 122.178 87.2989 123.07C86.6293 123.515 85.8852 123.813 85.0667 123.961C84.3971 124.11 83.7274 124.184 83.0577 124.184L82.3137 124.11C82.3881 124.258 82.3881 124.407 82.4625 124.63C82.4625 125.075 82.3137 125.447 82.0904 125.818C81.7184 126.487 81.1976 127.007 80.5279 127.378C79.0398 128.27 77.254 128.715 75.4682 128.715C73.608 128.79 71.8223 128.344 70.1853 127.378C68.6972 126.487 67.8787 125.447 67.8787 124.258C67.8787 123.07 68.474 122.03 69.7389 121.213C70.2597 120.841 70.855 120.618 71.5247 120.47C72.0455 120.321 72.5664 120.247 73.0872 120.173H73.608L72.6408 119.578L75.3938 117.87L81.7184 121.584C82.1648 121.881 82.7601 121.955 83.2809 121.955C83.8018 121.955 84.3971 121.807 84.8435 121.51C86.1828 120.693 85.7364 119.578 83.4298 118.241C80.9743 116.904 78.2213 116.31 75.4682 116.458C72.5663 116.533 69.6645 117.35 67.1346 118.835C64.828 120.247 63.7119 121.955 63.7119 123.961C63.7119 125.967 64.9024 127.601 67.2835 129.013C69.8133 130.424 72.7896 131.167 75.6914 131.018C78.5933 131.093 81.4952 130.275 84.025 128.79C84.9179 128.27 85.662 127.601 86.3316 126.858C86.7781 126.413 87.0757 125.818 87.2989 125.224L87.4477 124.63L91.0193 124.853V125.15C91.0193 125.298 90.9449 125.595 90.796 126.041C90.6472 126.487 90.424 126.933 90.1264 127.304C89.7543 127.824 89.3079 128.344 88.8615 128.79C88.2662 129.384 87.5221 129.904 86.7781 130.424C84.6203 131.687 82.2392 132.578 79.7094 132.95C77.0308 133.395 74.2777 133.47 71.5247 133.098C69.0692 132.801 66.6138 132.058 64.456 130.795C62.6702 129.83 61.3309 128.418 60.438 126.635C59.7684 125.075 59.7684 123.218 60.438 121.658C61.2565 119.801 62.6702 118.315 64.3816 117.35C67.6555 115.27 71.4502 114.23 75.3938 114.155ZM78.8909 124.11C78.7421 123.441 78.2957 122.921 77.7004 122.624C76.9564 122.178 76.0635 121.955 75.1706 121.955C74.3521 121.955 73.5336 122.104 72.864 122.55C72.2687 122.847 71.8967 123.367 71.8967 124.035C71.9711 124.704 72.4175 125.298 73.0128 125.521C73.7569 125.967 74.6497 126.19 75.5426 126.19C76.4355 126.19 77.254 125.967 77.9981 125.521C78.5189 125.298 78.8909 124.704 78.8909 124.11Z" fill="#3E2928"/>
<path opacity="0.46" d="M175.099 222.539L142.36 203.967L109.621 222.613C109.621 222.613 126.66 233.013 142.955 242.522C153.298 235.167 163.715 227.813 175.099 222.539Z" fill="url(#paint4_linear_139_1722)"/>
<path d="M147.569 92.7612C143.03 96.6984 139.607 101.676 137.598 107.321C134.101 116.978 142.881 132.727 142.881 132.727L156.497 121.956" fill="#F47B56"/>
<path d="M146.08 220.31L142.36 218.305L143.327 213.03C143.327 213.03 148.833 213.55 149.28 215.482" fill="#2E2E75"/>
<path d="M147.494 220.236C148.313 219.716 149.205 219.27 150.024 218.824C152.182 217.636 155.232 216.447 156.572 214.293C157.093 213.401 157.018 212.287 156.423 211.396C154.488 209.093 150.247 212.881 148.089 210.281C147.643 209.761 147.494 201.664 147.494 201.664L139.235 203.893C139.235 203.893 137.821 220.236 137.97 221.201C138.119 222.167 140.946 223.207 140.946 223.207C141.765 223.058 142.583 222.761 143.327 222.316C144.22 221.721 143.402 214.07 144.518 215.11C145.634 216.15 146.08 220.384 146.08 220.384C146.527 220.384 147.048 220.384 147.494 220.236Z" fill="#68E1FD"/>
<path d="M161.855 228.259L158.134 226.253L159.027 220.979C159.027 220.979 164.533 221.499 164.98 223.43" fill="#2E2E75"/>
<path d="M163.194 228.184C164.012 227.664 164.905 227.219 165.724 226.773C167.882 225.584 170.932 224.396 172.272 222.241C172.792 221.35 172.718 220.236 172.123 219.344C170.188 217.041 165.947 220.83 163.789 218.23C163.343 217.71 163.194 209.613 163.194 209.613L154.935 211.841C154.935 211.841 153.521 228.184 153.67 229.15C153.819 230.116 156.646 231.081 156.646 231.081C157.465 230.933 158.283 230.636 159.027 230.19C159.92 229.596 159.102 221.944 160.218 222.984C161.334 224.024 161.78 228.259 161.78 228.259C162.301 228.259 162.748 228.259 163.194 228.184Z" fill="#68E1FD"/>
<path d="M134.994 175.219L132.613 207.607C132.613 207.607 136.482 212.956 149.429 209.985L149.578 188.144" fill="#3E2928"/>
<path d="M150.024 181.607C149.726 184.43 150.024 215.184 150.024 215.184C150.024 215.184 153.595 221.87 169.221 215.184L168.998 189.036" fill="#3E2928"/>
<path d="M133.803 185.916C134.845 186.658 135.217 182.87 136.333 183.538C140.351 185.916 144.667 187.773 149.131 189.184L149.205 189.11C149.652 188.887 150.173 189.11 150.396 189.481C153.149 190.298 155.977 190.893 158.804 191.413C162.45 192.007 165.501 189.333 169.221 189.11C169.147 174.773 169.295 134.064 163.194 125.447L145.188 119.43C145.113 120.915 136.408 130.944 136.631 143.201C136.854 157.018 135.068 170.018 134.771 174.327C134.696 175.07 133.803 185.098 133.803 185.916Z" fill="#3E2928"/>
<path d="M164.831 109.03L163.194 125.447C163.194 125.447 149.726 125.967 143.923 121.955V108.064" fill="#F47B56"/>
<path d="M181.945 98.2581L180.531 100.115C181.275 98.6296 181.945 96.9953 182.465 95.4353C182.837 94.321 181.126 93.9495 180.754 94.9895L180.531 95.5838C180.68 94.9895 180.828 94.3953 180.977 93.801C181.126 93.3553 180.828 92.8353 180.308 92.6867C179.787 92.5381 179.34 92.8353 179.191 93.3553C178.819 94.841 178.373 96.3267 177.852 97.8124C178.15 96.4753 178.373 95.2124 178.522 93.8753C178.596 92.761 176.81 92.761 176.736 93.9495C176.587 95.4353 176.29 96.921 175.918 98.4067C175.918 97.8867 175.843 97.3667 175.769 96.8467C175.769 96.6238 175.62 96.3267 175.397 96.1781C175.322 95.9553 175.248 95.8067 175.248 95.5838C175.099 95.1381 174.578 94.841 174.132 94.9895C173.76 95.1381 173.537 95.4353 173.537 95.8067L173.462 102.567C173.165 103.235 172.718 103.904 172.197 104.498C173.09 105.092 173.909 105.761 174.727 106.43C175.471 107.024 176.141 107.692 176.81 108.361C177.406 107.618 177.927 106.875 178.522 106.132C178.596 106.058 178.671 105.984 178.671 105.91C180.308 103.532 181.945 101.155 183.656 98.8524C184.251 98.2581 182.614 97.3667 181.945 98.2581Z" fill="#C685FF"/>
<path d="M156.274 94.0981C156.274 94.0981 162.599 95.8067 165.203 99.9667C166.84 102.79 168.254 105.761 169.444 108.732L174.132 101.452C174.132 101.452 179.861 103.235 182.093 105.984C182.093 105.984 175.322 120.767 169.444 122.03C163.566 123.292 157.316 113.264 157.316 113.264C157.316 113.264 155.977 117.424 156.274 112.967" fill="#F47B56"/>
<path d="M160.367 109.921C158.581 108.361 157.018 106.504 156.349 104.201C155.604 101.601 156.572 99.2984 157.465 96.9212C158.432 94.5441 159.027 92.0184 159.102 89.4183C159.176 86.8926 158.878 84.3669 158.73 81.8412C158.73 81.7669 158.73 81.6183 158.804 81.544C157.986 78.7212 156.2 76.2697 152.777 75.9726C143.923 75.2297 143.402 85.0355 143.476 89.0469C143.551 93.0584 143.997 95.7326 141.021 97.4412C138.044 99.1498 135.961 103.458 138.714 107.024C141.467 110.59 139.012 109.253 137.152 112.447C135.291 115.641 135.738 119.504 139.607 120.916C143.476 122.327 161.334 119.653 162.971 118.018C163.566 117.35 163.864 116.458 163.789 115.641C163.417 113.19 162.078 111.481 160.367 109.921Z" fill="#007F68"/>
<defs>
<linearGradient id="paint0_linear_139_1722" x1="115.462" y1="105.189" x2="92.3105" y2="130.625" gradientUnits="userSpaceOnUse">
<stop stop-color="#78B46A"/>
<stop offset="0.03" stop-color="#3E2928"/>
<stop offset="1" stop-color="white"/>
</linearGradient>
<linearGradient id="paint1_linear_139_1722" x1="193.44" y1="133.098" x2="193.44" y2="186.807" gradientUnits="userSpaceOnUse">
<stop stop-color="#9367BA"/>
<stop offset="1" stop-color="#C685FF"/>
</linearGradient>
<linearGradient id="paint2_linear_139_1722" x1="269.894" y1="127.438" x2="256.738" y2="117.827" gradientUnits="userSpaceOnUse">
<stop stop-color="white" stop-opacity="0"/>
<stop offset="0.99" stop-color="#E2AC00"/>
</linearGradient>
<linearGradient id="paint3_linear_139_1722" x1="57.8338" y1="155.979" x2="57.8338" y2="195.499" gradientUnits="userSpaceOnUse">
<stop stop-color="#9367BA"/>
<stop offset="1" stop-color="#C685FF"/>
</linearGradient>
<linearGradient id="paint4_linear_139_1722" x1="142.36" y1="203.967" x2="142.36" y2="242.522" gradientUnits="userSpaceOnUse">
<stop stop-color="#9367BA"/>
<stop offset="1" stop-color="#C685FF"/>
</linearGradient>
</defs>
</svg>
