<svg width="49" height="49" viewBox="0 0 49 49" fill="none" xmlns="http://www.w3.org/2000/svg">
<g clip-path="url(#clip0_137_471)">
<path d="M24.81 48.6405C37.9709 48.6405 48.64 37.9714 48.64 24.8105C48.64 11.6495 37.9709 0.980469 24.81 0.980469C11.649 0.980469 0.97998 11.6495 0.97998 24.8105C0.97998 37.9714 11.649 48.6405 24.81 48.6405Z" fill="url(#paint0_linear_137_471)"/>
<path d="M31.38 16.8408C30.58 16.8408 29.93 17.4908 29.93 18.2908C29.93 19.0908 30.58 19.7408 31.38 19.7408C32.18 19.7408 32.83 19.0908 32.83 18.2908C32.83 17.4908 32.18 16.8408 31.38 16.8408Z" fill="white"/>
<path d="M24.91 18.7007C21.54 18.7007 18.8 21.4407 18.8 24.8107C18.8 28.1807 21.54 30.9207 24.91 30.9207C28.28 30.9207 31.02 28.1807 31.02 24.8107C31.02 21.4407 28.28 18.7007 24.91 18.7007ZM24.91 28.7207C22.75 28.7207 21 26.9607 21 24.8107C21 22.6607 22.76 20.9007 24.91 20.9007C27.06 20.9007 28.82 22.6607 28.82 24.8107C28.82 26.9607 27.06 28.7207 24.91 28.7207Z" fill="white"/>
<path d="M29.76 37.2106H19.86C15.75 37.2106 12.41 33.8706 12.41 29.7606V19.8606C12.41 15.7506 15.75 12.4106 19.86 12.4106H29.76C33.87 12.4106 37.21 15.7506 37.21 19.8606V29.7606C37.21 33.8706 33.87 37.2106 29.76 37.2106ZM19.86 14.7406C17.04 14.7406 14.74 17.0406 14.74 19.8606V29.7606C14.74 32.5806 17.04 34.8806 19.86 34.8806H29.76C32.58 34.8806 34.88 32.5806 34.88 29.7606V19.8606C34.88 17.0406 32.58 14.7406 29.76 14.7406H19.86Z" fill="white"/>
</g>
<defs>
<linearGradient id="paint0_linear_137_471" x1="7.95998" y1="7.96047" x2="41.66" y2="41.6605" gradientUnits="userSpaceOnUse">
<stop stop-color="#FFE185"/>
<stop offset="0.21" stop-color="#FFBB36"/>
<stop offset="0.38" stop-color="#FF5176"/>
<stop offset="0.52" stop-color="#F63395"/>
<stop offset="0.74" stop-color="#A436D2"/>
<stop offset="1" stop-color="#5F4EED"/>
</linearGradient>
<clipPath id="clip0_137_471">
<rect width="47.66" height="47.66" fill="white" transform="translate(0.97998 0.980469)"/>
</clipPath>
</defs>
</svg>
