<svg width="362" height="263" viewBox="0 0 362 263" fill="none" xmlns="http://www.w3.org/2000/svg">
<path d="M175.636 260.098L7.04097 160.631C1.68638 157.662 -2.92452 152.689 2.28133 149.423L171.471 52.1086C174 50.5498 177.867 49.5106 180.47 50.9951L357.469 153.505C362.824 156.623 363.79 165.307 358.436 168.425L197.873 259.949C191.031 263.958 182.553 264.032 175.636 260.098Z" fill="#C685FF"/>
<path d="M307.493 162.709L257.071 182.009C265.474 186.388 273.655 191.362 281.464 196.78L324.598 173.027C316.566 168.351 315.376 167.683 307.493 162.709Z" fill="url(#paint0_linear_139_1895)"/>
<path d="M116.364 186.017L163.96 157.736L155.11 156.623L151.466 147.715L133.915 145.191L91.9707 171.171C100.449 175.625 108.555 180.599 116.364 186.017Z" fill="url(#paint1_linear_139_1895)"/>
<path d="M172.736 227.288L220.332 199.007L211.482 197.894L202.558 201.086L183.222 192.549L148.417 212.443C156.821 216.896 165.001 221.795 172.736 227.288Z" fill="url(#paint2_linear_139_1895)"/>
<path d="M86.0212 164.12L81.559 162.264L83.3439 160.631L86.0212 164.12Z" fill="#68E1FD"/>
<path d="M210.515 1.85571L205.904 0.0742188L206.648 2.44954L209.623 2.598L210.515 1.85571Z" fill="#68E1FD"/>
<path d="M79.7742 78.9052L79.6254 159.146C79.6254 161.151 81.2616 162.784 83.2695 162.784C83.8645 162.784 84.5338 162.635 85.0544 162.338L203.376 96.2005C205.83 94.8644 207.318 92.2664 207.392 89.5199L209.549 4.8991C209.623 2.22686 207.541 0.0742288 204.863 0C203.971 0 203.078 0.222686 202.26 0.668059L84.3851 70.8143C81.559 72.4473 79.7742 75.5649 79.7742 78.9052Z" fill="#68E1FD"/>
<path opacity="0.1" d="M79.7742 78.9052L79.6254 159.146C79.6254 161.151 81.2616 162.784 83.2695 162.784C83.8645 162.784 84.5338 162.635 85.0544 162.338L203.376 96.2005C205.83 94.8644 207.318 92.2664 207.392 89.5199L209.549 4.8991C209.623 2.22686 207.541 0.0742288 204.863 0C203.971 0 203.078 0.222686 202.26 0.668059L84.3851 70.8143C81.559 72.4473 79.7742 75.5649 79.7742 78.9052Z" fill="#040411"/>
<path d="M170.505 105.85L157.639 124.704C157.639 124.704 155.854 129.9 161.804 133.834C167.753 137.768 182.924 145.711 182.924 145.711L152.656 164.565L129.527 151.427C129.527 151.427 119.19 147.641 130.866 126.337" fill="#68E1FD"/>
<path d="M170.505 105.85L157.639 124.704C157.639 124.704 155.854 129.9 161.804 133.834C167.753 137.768 182.924 145.711 182.924 145.711L152.656 164.565L129.527 151.427C129.527 151.427 119.19 147.641 130.866 126.337" fill="#68E1FD"/>
<path opacity="0.3" d="M170.505 105.85L157.639 124.704C157.639 124.704 155.854 129.9 161.804 133.834C167.753 137.768 182.924 145.711 182.924 145.711L152.656 164.565L129.527 151.427C129.527 151.427 119.19 147.641 130.866 126.337" fill="#040411"/>
<path d="M83.567 80.4638L83.4183 160.631C83.4183 162.635 85.0544 164.268 87.0624 164.268C87.6573 164.268 88.3267 164.12 88.8472 163.823L207.169 97.7591C209.623 96.423 211.11 93.825 211.185 91.0785L213.341 6.38347C213.416 3.71124 211.333 1.5586 208.656 1.48438C207.764 1.48438 206.871 1.70706 206.053 2.15243L88.1779 72.2986C85.3519 74.0059 83.567 77.1235 83.567 80.4638Z" fill="#68E1FD"/>
<path d="M89.5165 78.5339V145.934L208.359 76.2328V8.61035L89.5165 78.5339Z" fill="white"/>
<path opacity="0.47" d="M89.5165 118.246L208.21 50.3269L208.359 8.61035L89.5165 78.5339V118.246Z" fill="#68E1FD"/>
<path d="M198.468 33.18C198.691 33.0316 198.988 32.8831 199.286 32.8089C200.55 32.3635 201.219 33.18 201.442 34.6646C201.517 35.11 201.517 35.6296 201.517 36.0749C201.517 38.0049 201.517 39.9348 201.442 41.8648V42.0875L198.839 43.6463V43.3494C198.839 41.6421 198.914 39.9348 198.914 38.2276C198.914 37.8564 198.914 37.4111 198.839 37.0399C198.765 36.4461 198.468 36.1492 197.873 36.2976L197.575 36.4461C197.055 36.8172 196.608 37.4111 196.385 38.0049C196.236 38.5245 196.088 39.0441 196.088 39.5637C196.088 41.3452 196.013 43.2009 196.013 44.9824V45.2793L193.41 46.8381L193.559 36.3719L196.162 34.8131V36.1492H196.236V36.0007C196.608 34.8873 197.426 33.9223 198.468 33.18Z" fill="white"/>
<path d="M190.956 32.9577C191.254 32.735 191.7 32.6608 191.997 32.8835C192.369 33.1804 192.444 33.8485 192.221 34.5907C192.072 35.333 191.626 35.9269 191.031 36.3722L190.808 36.5207C189.766 37.1888 189.097 36.3722 189.469 34.9619C189.618 34.2938 189.989 33.7 190.436 33.2546C190.584 33.1804 190.733 33.0319 190.956 32.9577Z" fill="white"/>
<path d="M189.543 38.8215C190.436 38.3019 191.254 37.7823 192.146 37.2627C192.072 40.7514 192.072 44.2402 191.997 47.729L189.395 49.2878C189.395 45.799 189.469 42.3103 189.543 38.8215Z" fill="white"/>
<path d="M201.368 22.9365C203.227 21.8231 204.715 22.9365 204.64 25.3861L204.491 40.9741C204.491 43.4237 202.93 46.3186 201.145 47.432L189.395 54.4838C187.535 55.5972 186.048 54.4838 186.122 52.0342L186.271 36.4462C186.271 33.9966 187.833 31.1017 189.618 29.9883L201.368 22.9365ZM201.368 41.8649C201.368 39.9349 201.442 38.005 201.442 36.075C201.442 35.6296 201.442 35.11 201.368 34.6647C201.145 33.1801 200.476 32.4378 199.211 32.809C198.914 32.8832 198.691 33.0316 198.393 33.1801C197.352 33.8482 196.608 34.8874 196.162 36.075V36.2235H196.088V34.8874L193.485 36.4462L193.336 46.9124L195.939 45.3536V45.0567C195.939 43.2752 196.013 41.4195 196.013 39.638C196.013 39.1184 196.088 38.5988 196.311 38.0792C196.534 37.4111 196.906 36.8915 197.501 36.4462L197.798 36.2977C198.319 36.075 198.616 36.4462 198.765 37.04C198.839 37.4111 198.839 37.7823 198.839 38.2277C198.839 39.9349 198.839 41.6422 198.765 43.3494V43.6464L201.368 42.0875V41.8649ZM191.997 47.7289C192.072 44.2402 192.072 40.7514 192.146 37.2627C191.254 37.7823 190.436 38.3019 189.543 38.8215C189.469 42.3102 189.469 45.799 189.395 49.2877L191.997 47.7289ZM192.221 34.6647C192.444 33.8482 192.369 33.2543 191.997 32.9574C191.7 32.7347 191.254 32.7347 190.956 33.0316C190.808 33.1059 190.659 33.2543 190.51 33.4028C189.989 33.8482 189.692 34.442 189.543 35.11C189.171 36.5946 189.841 37.3369 190.882 36.6688L191.105 36.5204C191.626 36.0008 192.072 35.3327 192.221 34.6647Z" fill="#68E1FD"/>
<path d="M120.904 91.56C123.546 83.9266 120.967 76.1107 115.144 74.1026C109.321 72.0945 102.458 76.6546 99.8161 84.288C97.1738 91.9213 99.7524 99.7373 105.576 101.745C111.399 103.753 118.261 99.1933 120.904 91.56Z" fill="#68E1FD"/>
<path d="M104.019 101.025C103.275 100.654 105.283 89.4456 111.158 88.1837C117.033 86.9218 119.413 94.8643 119.413 94.8643C119.413 94.8643 116.513 99.9119 112.199 101.471C107.886 103.029 105.58 101.693 104.019 101.025Z" fill="#EA7554"/>
<path d="M114.676 85.7704C115.498 82.3416 114.254 79.1057 111.898 78.5427C109.541 77.9797 106.964 80.3028 106.142 83.7316C105.319 87.1604 106.563 90.3963 108.92 90.9593C111.277 91.5223 113.854 89.1992 114.676 85.7704Z" fill="#FFAC99"/>
<path d="M118.074 88.1096C117.479 86.1055 116.884 86.922 116.959 84.8436C117.033 82.7652 116.066 75.2681 109.819 76.6042C103.572 77.9403 104.019 84.1013 104.167 84.9178C104.316 85.7343 104.837 87.887 104.614 88.4808C104.39 89.0746 103.424 92.9345 105.134 94.6418C105.134 94.6418 106.77 91.2273 107.663 90.2623C107.44 88.4066 107.291 86.5508 107.291 84.6951C108.406 84.7694 109.224 84.1755 109.968 83.359C110.563 82.6167 111.307 82.0971 112.274 81.8744C112.645 81.8002 112.943 81.726 113.315 81.6517L113.687 88.1839C113.687 88.1839 116.736 89.2231 118 91.7469C118.372 90.5592 118.372 89.2973 118.074 88.1096Z" fill="#7F3800"/>
<path d="M108.109 87.1448C107.96 86.6994 107.737 86.4025 107.365 86.1056C107.068 85.8829 106.547 85.8829 106.324 86.254C105.803 87.0706 107.365 87.8871 107.96 87.9613C108.183 87.9613 108.406 87.7386 108.332 87.5159C108.332 87.3675 108.258 87.219 108.109 87.1448Z" fill="#FFAC99"/>
<path d="M114.207 83.6557C113.389 83.0618 112.72 84.4722 112.645 85.066C112.645 85.2145 112.72 85.3629 112.794 85.4372L112.72 85.5114C112.348 85.9568 112.943 86.5506 113.315 86.1794C113.687 85.8083 115.025 84.3237 114.207 83.6557Z" fill="#FFAC99"/>
<g opacity="0.3">
<path d="M126.329 75.7132L147.153 63.4654L150.128 61.7581C151.689 60.8674 150.276 58.4179 148.715 59.3086L127.891 71.5563L124.916 73.2636C123.355 74.1544 124.768 76.6039 126.329 75.7132Z" fill="#040411"/>
</g>
<path opacity="0.3" d="M126.999 82.0228L139.418 74.7483L159.052 63.2429L163.588 60.5706C165.15 59.6799 163.737 57.2304 162.175 58.1211L149.756 65.3955L130.122 76.901L125.586 79.5732C124.024 80.464 125.437 82.9135 126.999 82.0228Z" fill="#040411"/>
<g opacity="0.3">
<path d="M127.742 87.6644L140.162 80.39L159.796 68.8103L164.332 66.138C165.894 65.2473 164.481 62.7977 162.919 63.6885L150.499 70.9629L130.866 82.6168L126.329 85.2891C124.768 86.1798 126.181 88.6294 127.742 87.6644Z" fill="#040411"/>
</g>
<path opacity="0.47" d="M95.9123 120.028V127.228L204.863 64.1337V57.3047L95.9123 120.028Z" fill="#68E1FD"/>
<path opacity="0.47" d="M125.957 112.976L95.9123 130.271V137.472L125.957 120.028V112.976Z" fill="#68E1FD"/>
<path opacity="0.47" d="M179.578 82.1714V89.0005L204.863 74.3774V67.5483L179.578 82.1714Z" fill="#68E1FD"/>
<path opacity="0.47" d="M159.944 93.4541L132.725 109.116V116.168L159.944 100.357V93.4541Z" fill="#68E1FD"/>
<path d="M175.487 93.2314L174.669 71.5566L157.49 81.4291C157.416 81.5033 157.341 81.5775 157.341 81.6518L157.713 103.549L175.487 93.2314Z" fill="#68E1FD"/>
<path opacity="0.3" d="M172.81 85.1406C169.91 85.9571 170.877 89.2232 168.794 90.9305C166.266 93.0089 165.299 87.0706 162.101 87.4417C158.308 87.8871 157.639 100.432 157.639 100.432L157.713 103.549L175.562 93.1573L175.413 86.4025C174.744 85.6602 173.777 85.1406 172.81 85.1406Z" fill="#040411"/>
<path d="M297.602 147.418C296.04 147.567 298.42 167.831 303.552 172.359C308.683 176.887 322.441 176.59 326.457 171.394C330.473 166.198 332.035 148.977 332.035 148.977C332.035 148.977 335.01 143.558 297.602 147.418Z" fill="#68E1FD"/>
<path d="M314.707 154.841C324.277 154.841 332.035 151.684 332.035 147.79C332.035 143.895 324.277 140.738 314.707 140.738C305.137 140.738 297.379 143.895 297.379 147.79C297.379 151.684 305.137 154.841 314.707 154.841Z" fill="#2E6300"/>
<path d="M295.892 122.849C300.056 127.822 295.743 131.682 295.966 139.55C296.189 147.418 309.576 148.012 309.576 148.012C308.832 141.554 319.69 136.952 319.244 129.603C318.797 122.255 309.352 126.263 312.773 118.098C316.194 109.933 315.004 99.5407 309.427 95.6808C305.336 92.8601 300.651 86.5507 298.494 83.5073V86.1053C298.941 90.9302 297.007 96.2004 294.627 99.9861C292.471 103.475 289.273 106.444 287.562 110.304C287.413 110.675 287.265 111.12 287.116 111.492C285.554 118.098 292.247 118.543 295.892 122.849Z" fill="#CFE217"/>
<path d="M298.494 86.8477C298.494 87.293 298.494 87.7384 298.42 88.1095C299.461 89.8168 300.279 91.7468 300.8 93.6767C301.915 98.5016 299.313 103.326 300.279 108.151C301.172 112.382 304.221 115.5 305.783 119.434C307.716 124.259 305.634 128.787 304.89 133.538C303.998 139.03 306.303 143.558 308.906 148.086C309.129 148.458 309.724 148.086 309.501 147.715C308.088 145.488 306.973 143.113 306.08 140.664C305.262 138.14 305.188 135.468 305.708 132.869C306.526 128.564 308.237 124.407 306.749 120.028C305.411 116.02 302.362 112.902 301.172 108.819C299.759 103.92 302.51 98.9469 301.544 93.9736C301.097 91.4498 299.833 89.223 298.643 87.0703L298.494 86.8477Z" fill="#2E6300"/>
<path d="M339.769 112.531C344.232 110.601 348.619 103.92 345.422 99.912C342.224 95.9036 343.042 90.0396 343.042 90.0396C342.372 91.821 340.959 93.3056 339.249 94.1221C330.176 97.3882 329.358 102.881 329.209 107.038C329.06 111.195 333.82 120.325 319.392 125.15C304.965 129.975 317.012 148.309 317.012 148.309L322.59 149.423C322.739 149.274 326.829 146.379 335.233 143.113C343.86 139.773 340.662 131.756 336.869 127.154C333.076 122.552 335.382 114.461 339.769 112.531Z" fill="#CFE217"/>
<path d="M342.744 91.1527C340.513 94.6414 340.067 98.8725 338.951 102.807C337.761 107.112 335.084 110.378 333.002 114.238C331.961 116.019 331.291 117.875 330.845 119.879C330.473 122.106 330.399 124.333 330.176 126.486C330.027 128.935 329.358 131.31 328.168 133.463C326.978 135.467 325.714 137.323 324.226 139.104C321.846 142.148 319.392 145.562 318.872 149.571H319.615C320.136 145.637 322.665 142.371 325.044 139.327C327.499 136.135 329.878 132.943 330.622 128.787C331.44 124.259 330.994 119.657 333.151 115.425C334.935 111.863 337.613 108.819 339.026 105.033C340.662 100.58 340.811 95.5322 343.414 91.5238C343.488 91.3754 343.414 91.0784 343.265 91.0042C343.042 90.93 342.819 91.0042 342.744 91.1527Z" fill="#2E6300"/>
<path d="M316.194 149.571C313.666 143.559 315.004 135.245 319.244 129.678C323.631 123.888 326.309 118.469 323.259 112.234C321.475 108.448 320.582 104.292 320.657 100.135C316.194 109.636 311.807 112.976 312.773 118.098C313.74 123.22 312.625 125.595 309.501 133.538C306.675 140.961 311.286 148.161 312.03 149.2C313.443 149.423 314.781 149.497 316.194 149.571Z" fill="#CFE217"/>
<path d="M313.666 149.422L314.484 149.497C312.253 143.707 311.212 137.472 314.112 131.533C315.525 128.713 317.31 126.189 318.574 123.368C319.913 120.325 320.062 117.356 319.69 114.015C319.244 109.636 319.69 105.182 321.028 100.951C321.103 100.728 320.954 100.58 320.805 100.506C320.582 100.431 320.433 100.58 320.359 100.728C319.169 104.365 318.649 108.151 318.797 111.937C318.872 113.941 319.244 115.945 319.169 117.949C319.095 119.805 318.574 121.587 317.756 123.294C316.418 126.263 314.41 128.861 313.071 131.83C311.658 134.948 311.212 138.437 311.658 141.851C312.104 144.449 312.699 146.973 313.666 149.422Z" fill="#2E6300"/>
<path d="M216.837 90.485C216.837 90.485 225.017 99.912 225.315 106.667C225.612 113.422 215.944 125.372 215.944 125.372L209.697 115.574C209.697 115.574 217.804 107.186 209.697 100.729C209.697 100.729 206.946 89.8911 216.837 90.485Z" fill="#EA7554"/>
<path opacity="0.2" d="M216.837 90.485C216.837 90.485 225.017 99.912 225.315 106.667C225.612 113.422 215.944 125.372 215.944 125.372L209.697 115.574C209.697 115.574 217.804 107.186 209.697 100.729C209.697 100.729 206.946 89.8911 216.837 90.485Z" fill="#040411"/>
<path d="M213.788 182.751C213.788 182.751 216.837 186.982 216.614 189.506C216.391 192.03 212.449 196.187 211.557 197.968C210.664 199.75 210.441 200.492 211.557 201.828C212.672 203.164 222.266 194.776 222.489 193.44C222.712 192.104 221.15 186.982 221.15 186.982L225.389 192.327L228.513 190.471L221.968 179.411" fill="#7F3800"/>
<path d="M212.523 201.902C212.821 201.68 220.332 199.007 220.332 199.007C220.332 199.007 223.902 195.296 223.753 193.886C223.604 192.475 222.34 186.908 221.001 186.908C219.663 186.908 219.514 194.405 219.514 194.405L212.523 201.902Z" fill="#040411"/>
<path d="M203.525 189.803L202.558 201.086C202.558 201.086 200.104 202.867 199.509 202.719C198.914 202.57 197.129 202.125 197.055 201.828C196.98 201.531 197.947 193.811 197.649 193.663C197.352 193.515 193.634 199.527 192.444 199.676C191.254 199.824 182.255 194.554 183.147 192.624C184.04 190.694 188.353 191.659 190.51 191.659C192.667 191.659 195.642 190.397 197.203 186.76" fill="#7F3800"/>
<path d="M197.873 159.146L192.369 188.17C192.369 188.17 195.567 192.327 206.871 191.807L215.275 171.246" fill="#CFE217"/>
<path d="M195.418 113.644C195.418 113.644 186.94 125.966 189.543 145.86C191.849 163.526 209.549 184.31 209.549 184.31C209.549 184.31 214.829 186.611 225.835 176.219L213.713 156.92C213.713 156.92 225.538 129.529 211.557 112.16" fill="#CFE217"/>
<path d="M171.62 90.0393C171.695 88.4805 169.166 88.4805 169.166 90.0393V92.5631C169.092 92.4146 169.017 92.1919 168.869 92.0435C167.902 89.7424 167.158 87.367 166.712 84.9175C166.414 83.3587 164.109 84.0267 164.332 85.5856C164.481 86.7732 164.704 87.9609 165.076 89.1485L164.853 89.0743C164.035 88.7774 163.068 89.2228 162.845 90.1135V90.1877C162.696 90.5589 162.696 91.0042 162.77 91.3754H162.622C161.655 91.6723 161.134 92.6373 161.432 93.6023C161.506 93.8249 161.58 93.9734 161.729 94.1219C161.432 94.3445 161.209 94.7157 161.134 95.0868C161.06 95.9776 161.432 96.7941 162.175 97.3137C162.993 97.9818 163.96 98.9467 164.704 99.689C165.745 100.654 166.861 101.619 167.827 102.435C168.794 103.252 170.356 100.58 170.356 99.7632C170.951 99.9859 171.62 99.6148 171.769 99.021C171.843 98.8725 171.843 98.724 171.843 98.5756C171.546 95.6807 171.546 92.86 171.62 90.0393Z" fill="#FFAC99"/>
<path d="M166.637 92.6374C166.043 91.4498 165.522 90.1879 165.001 88.926C164.927 88.6291 164.481 88.7775 164.555 89.0745C165.076 90.3363 165.596 91.5982 166.191 92.8601C166.414 93.157 166.786 92.9344 166.637 92.6374Z" fill="#7F3800"/>
<path d="M196.683 86.4766C196.683 86.4766 192.592 90.188 190.956 92.786C189.32 95.384 182.924 102.436 180.321 100.283C177.719 98.1305 173.033 94.1221 173.033 94.1221C173.033 94.1221 166.34 98.7243 167.084 103.475C167.084 103.475 172.959 115.5 182.255 112.902C191.477 110.23 193.782 106.741 193.782 106.741L195.195 114.609C195.195 114.609 206.648 118.172 211.928 112.902C211.928 112.902 215.424 90.3365 212.821 86.9962" fill="#EA7554"/>
<path d="M195.418 72.8185C195.344 73.1154 195.121 81.2806 197.947 82.0228C200.773 82.7651 205.458 80.8352 206.723 78.2372C207.987 75.6392 206.202 67.3998 201.814 66.8802C197.426 66.3606 196.236 70.4431 195.418 72.8185Z" fill="#FFAC99"/>
<path d="M216.985 85.7342C216.167 83.9527 214.903 82.9877 215.201 80.8351C215.424 79.202 215.87 77.569 215.275 75.936C214.68 74.3029 213.267 73.4864 211.928 72.5214C211.557 72.2245 211.185 71.9276 210.813 71.5565L210.515 71.1111C209.697 69.7007 209.102 68.0677 208.061 66.88C207.02 65.8408 205.607 65.0986 204.12 64.8759C200.922 64.282 197.649 65.0243 195.047 66.9543C195.047 66.9543 192.667 69.2554 193.41 71.7049C194.154 74.1545 197.129 73.2637 198.765 74.3772C200.624 75.639 199.434 78.0144 198.691 79.4989C198.096 80.6866 197.873 81.9485 197.873 83.2104C197.873 84.398 197.501 85.5857 196.683 86.4764C195.79 87.6641 194.823 88.926 194.749 90.4848C194.6 93.5282 197.798 99.9118 207.02 97.5365C207.615 97.3881 208.21 97.2396 208.879 97.0169C210.813 96.4973 212.672 95.6066 214.308 94.3447C216.837 92.2663 218.324 88.7775 216.985 85.7342Z" fill="#7F3800"/>
<path d="M196.683 165.159C196.683 165.159 206.351 181.861 209.549 184.459L206.871 191.807C206.871 191.807 195.642 175.997 196.683 165.159Z" fill="#2E6300"/>
<path d="M213.49 156.177C210.367 149.645 208.656 142.593 208.433 135.393C208.433 134.799 207.541 134.799 207.541 135.393C207.764 142.742 209.549 150.016 212.746 156.623C212.97 157.142 213.788 156.697 213.49 156.177Z" fill="#2E6300"/>
<path d="M103.426 198.204V164.786C103.377 163.273 104.453 161.956 105.919 161.712C107.531 161.517 108.997 162.639 109.242 164.2C109.242 164.346 109.291 164.444 109.291 164.59V199.18C109.291 200.643 108.118 201.814 106.7 201.814C106.163 201.814 105.674 201.668 105.234 201.375L105.186 201.326C104.062 200.595 103.426 199.473 103.426 198.204Z" fill="#68E1FD"/>
<path opacity="0.27" d="M103.426 176.836V164.786C103.377 163.273 104.453 161.956 105.919 161.712C107.531 161.517 108.997 162.639 109.242 164.2C109.242 164.346 109.291 164.444 109.291 164.59V183.812C107.091 181.666 105.137 179.324 103.426 176.836Z" fill="#15156D"/>
<path d="M136.413 162.883C136.413 162.883 107.091 161.029 105.186 161.907C103.28 162.785 102.547 165.859 103.28 170.201C104.013 174.543 117.989 191.911 117.989 191.911" fill="#68E1FD"/>
<path opacity="0.51" d="M116.279 171.957C112.027 169.371 107.58 167.078 103.28 164.493C103.475 163.566 103.964 162.736 104.648 162.102C112.809 166.103 120.872 170.298 128.985 174.396L126.541 178.25C123.12 176.25 119.7 174.055 116.279 171.957Z" fill="#F2F2F2"/>
<path opacity="0.51" d="M117.354 175.616C112.614 172.592 107.678 169.86 103.035 166.688V166.103C107.14 168.542 111.392 170.738 115.497 173.226C118.918 175.324 122.29 177.47 125.759 179.519L125.173 180.495C122.534 178.934 119.944 177.275 117.354 175.616Z" fill="#F2F2F2"/>
<path d="M145.453 172.299C145.356 172.006 142.375 158.395 128.838 164.151C116.572 169.372 116.23 184.983 117.061 188.789C117.745 191.911 120.921 196.106 127.03 197.668" fill="#CE4242"/>
<path opacity="0.27" d="M145.453 172.299C145.356 172.006 142.375 158.395 128.838 164.151C116.572 169.372 116.23 184.983 117.061 188.789C117.745 191.911 120.921 196.106 127.03 197.668" fill="#15156D"/>
<path d="M125.66 197.196C119.32 194.455 117.311 185.017 121.173 176.116C125.035 167.215 133.305 162.223 139.645 164.964C145.985 167.706 147.994 177.144 144.132 186.044C140.27 194.945 132 199.938 125.66 197.196Z" fill="#CE4242"/>
<path d="M119.504 181.861L132.796 185.325L135.728 179.178L123.707 171.713C123.658 171.713 120.237 176.982 119.504 181.861Z" fill="#F2F2F2"/>
<path d="M132.458 185.262C131.11 184.579 130.712 182.661 131.568 180.98C132.424 179.299 134.21 178.49 135.557 179.173C136.905 179.857 137.303 181.774 136.447 183.456C135.591 185.137 133.805 185.946 132.458 185.262Z" fill="#FFC963"/>
<path d="M149.949 194.545H155.374C157.622 194.545 157.622 198.058 155.374 198.058H149.949C147.701 198.058 147.701 194.545 149.949 194.545Z" fill="#F2F2F2"/>
<path d="M149.118 202.595L156.547 210.01C158.159 211.62 155.667 214.06 154.054 212.498L146.626 205.083C145.014 203.473 147.506 200.985 149.118 202.595Z" fill="#F2F2F2"/>
<path d="M141.642 203.766V208.108C141.642 210.352 138.123 210.352 138.123 208.108V203.766C138.172 201.522 141.642 201.522 141.642 203.766Z" fill="#F2F2F2"/>
<defs>
<linearGradient id="paint0_linear_139_1895" x1="290.834" y1="162.709" x2="290.834" y2="196.78" gradientUnits="userSpaceOnUse">
<stop stop-color="#9367BA"/>
<stop offset="1" stop-color="#C685FF"/>
</linearGradient>
<linearGradient id="paint1_linear_139_1895" x1="127.965" y1="145.191" x2="127.965" y2="186.017" gradientUnits="userSpaceOnUse">
<stop stop-color="#9367BA"/>
<stop offset="1" stop-color="#C685FF"/>
</linearGradient>
<linearGradient id="paint2_linear_139_1895" x1="184.375" y1="192.549" x2="184.375" y2="227.288" gradientUnits="userSpaceOnUse">
<stop stop-color="#9367BA"/>
<stop offset="1" stop-color="#C685FF"/>
</linearGradient>
</defs>
</svg>
