<svg width="49" height="48" viewBox="0 0 49 48" fill="none" xmlns="http://www.w3.org/2000/svg">
<g clip-path="url(#clip0_137_408)">
<path d="M24.47 47.9803C37.631 47.9803 48.3 37.3113 48.3 24.1503C48.3 10.9894 37.631 0.320312 24.47 0.320312C11.3091 0.320312 0.640015 10.9894 0.640015 24.1503C0.640015 37.3113 11.3091 47.9803 24.47 47.9803Z" fill="url(#paint0_linear_137_408)"/>
<path d="M14.92 18.5703H19.02V31.7303H14.92V18.5703ZM16.97 12.0303C18.28 12.0303 19.34 13.0903 19.34 14.4003C19.34 15.7103 18.28 16.7703 16.97 16.7703C15.66 16.7703 14.59 15.7103 14.59 14.4003C14.59 13.0903 15.65 12.0303 16.97 12.0303Z" fill="white"/>
<path d="M21.59 18.5702H25.51V20.3702H25.56C26.11 19.3302 27.44 18.2402 29.43 18.2402C33.57 18.2402 34.34 20.9602 34.34 24.5102V31.7302H30.25V25.3302C30.25 23.8002 30.22 21.8402 28.12 21.8402C26.02 21.8402 25.67 23.5002 25.67 25.2202V31.7302H21.58V18.5702H21.59Z" fill="white"/>
</g>
<defs>
<linearGradient id="paint0_linear_137_408" x1="7.62001" y1="7.30031" x2="41.32" y2="41.0003" gradientUnits="userSpaceOnUse">
<stop stop-color="#007BB8"/>
<stop offset="1" stop-color="#0044E9"/>
</linearGradient>
<clipPath id="clip0_137_408">
<rect width="47.66" height="47.66" fill="white" transform="translate(0.640015 0.320312)"/>
</clipPath>
</defs>
</svg>
