<svg width="48" height="48" viewBox="0 0 48 48" fill="none" xmlns="http://www.w3.org/2000/svg">
<g clip-path="url(#clip0_137_487)">
<path d="M24.13 47.9803C37.291 47.9803 47.96 37.3113 47.96 24.1503C47.96 10.9894 37.291 0.320312 24.13 0.320312C10.9691 0.320312 0.300049 10.9894 0.300049 24.1503C0.300049 37.3113 10.9691 47.9803 24.13 47.9803Z" fill="black"/>
<path d="M29.6801 23.1101C29.7901 23.1601 29.8901 23.2101 30.0001 23.2501C31.4901 23.9701 32.5901 25.0501 33.1601 26.3901C33.9601 28.2601 34.0401 31.2901 31.6101 33.7101C29.7601 35.5601 27.5001 36.3901 24.3201 36.4201H24.3001C20.7101 36.3901 17.9601 35.1901 16.1001 32.8301C14.4501 30.7301 13.6001 27.8101 13.5701 24.1601V24.1401C13.6001 20.4701 14.4401 17.5501 16.1001 15.4601C17.9601 13.1001 20.7201 11.9001 24.3101 11.8701H24.3301C27.9201 11.9001 30.7201 13.1001 32.6301 15.4401C33.5701 16.6001 34.2701 18.0001 34.7101 19.6201L32.6401 20.1701C32.2801 18.8501 31.7301 17.7301 30.9901 16.8301C29.5001 15.0001 27.2601 14.0601 24.3201 14.0401C21.4101 14.0701 19.2001 15.0001 17.7701 16.8201C16.4301 18.5201 15.7401 20.9901 15.7101 24.1401C15.7401 27.2901 16.4301 29.7601 17.7701 31.4701C19.2001 33.2901 21.4101 34.2301 24.3201 34.2501C26.9501 34.2301 28.6901 33.6101 30.1301 32.1601C31.7801 30.5101 31.7501 28.4901 31.2201 27.2601C30.9101 26.5301 30.3501 25.9301 29.5901 25.4801C29.4001 26.8601 28.9901 27.9501 28.3301 28.7901C27.4601 29.9001 26.2101 30.5101 24.6101 30.5901C23.4001 30.6601 22.2401 30.3701 21.3401 29.7701C20.2801 29.0601 19.6501 27.9901 19.5901 26.7401C19.4601 24.2701 21.4201 22.5001 24.4601 22.3201C25.5401 22.2601 26.5501 22.3001 27.4901 22.4601C27.3701 21.7001 27.1201 21.1001 26.7401 20.6601C26.2301 20.0601 25.4301 19.7601 24.3801 19.7501H24.3401C23.4901 19.7501 22.3501 19.9901 21.6101 21.0901L19.8501 19.8801C20.8301 18.3901 22.4201 17.5701 24.3401 17.5701H24.3801C27.5801 17.5901 29.4901 19.5901 29.6801 23.0801H29.6701V23.0901L29.6801 23.1101ZM21.7001 26.6301C21.7701 27.9101 23.1501 28.5101 24.4901 28.4301C25.8001 28.3601 27.2801 27.8501 27.5301 24.6901C26.8601 24.5401 26.1101 24.4701 25.3101 24.4701C25.0601 24.4701 24.8201 24.4701 24.5701 24.4901C22.3801 24.6101 21.6501 25.6801 21.7001 26.6301Z" fill="white"/>
</g>
<defs>
<clipPath id="clip0_137_487">
<rect width="47.66" height="47.66" fill="white" transform="translate(0.300049 0.320312)"/>
</clipPath>
</defs>
</svg>
