<svg width="48" height="49" viewBox="0 0 48 49" fill="none" xmlns="http://www.w3.org/2000/svg">
<g clip-path="url(#clip0_137_439)">
<path d="M24.13 48.3202C37.291 48.3202 47.96 37.6511 47.96 24.4902C47.96 11.3292 37.291 0.660156 24.13 0.660156C10.9691 0.660156 0.300049 11.3292 0.300049 24.4902C0.300049 37.6511 10.9691 48.3202 24.13 48.3202Z" fill="url(#paint0_linear_137_439)"/>
<path d="M11.86 36.7899L13.62 30.2099C12.62 28.4099 12.1 26.3899 12.1 24.3399C12.1 17.6399 17.55 12.1899 24.25 12.1899C30.95 12.1899 36.4 17.6399 36.4 24.3399C36.4 31.0399 30.95 36.4899 24.25 36.4899C22.24 36.4899 20.25 35.9799 18.47 35.0199L11.86 36.7899ZM18.8 32.5499L19.22 32.7999C20.75 33.7099 22.49 34.1899 24.25 34.1899C29.68 34.1899 34.1 29.7699 34.1 24.3399C34.1 18.9099 29.68 14.4899 24.25 14.4899C18.82 14.4899 14.4 18.9099 14.4 24.3399C14.4 26.1299 14.9 27.8999 15.84 29.4499L16.1 29.8699L15.12 33.5399L18.82 32.5499H18.8Z" fill="white"/>
<path fill-rule="evenodd" clip-rule="evenodd" d="M28.77 26.0298C28.27 25.7298 27.62 25.3998 27.03 25.6398C26.58 25.8198 26.29 26.5298 26 26.8898C25.85 27.0798 25.67 27.0998 25.44 27.0098C23.74 26.3298 22.44 25.1998 21.51 23.6398C21.35 23.3998 21.38 23.2098 21.57 22.9798C21.85 22.6498 22.21 22.2698 22.28 21.8198C22.36 21.3698 22.15 20.8498 21.96 20.4498C21.72 19.9398 21.46 19.2098 20.95 18.9198C20.48 18.6498 19.86 18.7998 19.44 19.1398C18.72 19.7298 18.37 20.6498 18.38 21.5698C18.38 21.8298 18.41 22.0898 18.48 22.3398C18.63 22.9398 18.9 23.5098 19.22 24.0398C19.46 24.4398 19.71 24.8398 19.99 25.2098C20.9 26.4398 22.03 27.5098 23.33 28.3198C23.98 28.7198 24.69 29.0698 25.42 29.3098C26.24 29.5798 26.97 29.8598 27.85 29.6898C28.77 29.5098 29.68 28.9398 30.05 28.0498C30.16 27.7898 30.21 27.4898 30.15 27.2098C30.02 26.6298 29.25 26.2898 28.78 26.0098L28.77 26.0298Z" fill="white"/>
</g>
<defs>
<linearGradient id="paint0_linear_137_439" x1="7.28005" y1="7.64016" x2="40.98" y2="41.3402" gradientUnits="userSpaceOnUse">
<stop stop-color="#00FB73"/>
<stop offset="1" stop-color="#00B25B"/>
</linearGradient>
<clipPath id="clip0_137_439">
<rect width="47.66" height="47.66" fill="white" transform="translate(0.300049 0.660156)"/>
</clipPath>
</defs>
</svg>
