<svg width="49" height="48" viewBox="0 0 49 48" fill="none" xmlns="http://www.w3.org/2000/svg">
<g clip-path="url(#clip0_137_429)">
<path d="M24.81 47.66C37.9709 47.66 48.64 36.9909 48.64 23.83C48.64 10.6691 37.9709 0 24.81 0C11.649 0 0.97998 10.6691 0.97998 23.83C0.97998 36.9909 11.649 47.66 24.81 47.66Z" fill="url(#paint0_linear_137_429)"/>
<path d="M36.39 20.81C36.39 18 34.12 15.73 31.31 15.73H18.32C15.51 15.73 13.24 18 13.24 20.81V26.85C13.24 29.66 15.51 31.93 18.32 31.93H31.31C34.12 31.93 36.39 29.66 36.39 26.85V20.81ZM28.75 24.29L22.93 27.17C22.7 27.29 21.93 27.13 21.93 26.87V20.95C21.93 20.69 22.71 20.52 22.94 20.65L28.52 23.68C28.75 23.81 29 24.15 28.76 24.28L28.75 24.29Z" fill="white"/>
</g>
<defs>
<linearGradient id="paint0_linear_137_429" x1="7.95998" y1="6.98" x2="41.66" y2="40.68" gradientUnits="userSpaceOnUse">
<stop stop-color="#FF0000"/>
<stop offset="1" stop-color="#9B0000"/>
</linearGradient>
<clipPath id="clip0_137_429">
<rect width="47.66" height="47.66" fill="white" transform="translate(0.97998)"/>
</clipPath>
</defs>
</svg>
