<svg width="351" height="265" viewBox="0 0 351 265" fill="none" xmlns="http://www.w3.org/2000/svg">
<path d="M170.292 262.198L6.83392 165.432C1.62587 162.527 -2.83817 157.685 2.22108 154.556L166.275 59.876C168.73 58.3116 172.45 57.3432 174.979 58.8331L346.622 158.504C351.83 161.558 352.723 169.976 347.515 173.03L191.868 262.049C185.172 265.923 176.988 265.997 170.292 262.198Z" fill="#C685FF"/>
<path d="M139.193 176.457L181.155 160.516L215.9 176.457L176.765 200.295C167.911 194.559 147.749 182.64 139.193 176.457Z" fill="url(#paint0_linear_139_1463)"/>
<path d="M198.341 154.109L170.218 164.687C170.218 164.687 169.027 165.432 169.771 167.295C170.218 168.337 172.524 169.827 172.524 169.827L196.779 183.981C198.118 184.577 199.532 184.949 200.945 185.098C202.88 185.173 206.153 183.608 206.153 183.608L228.697 170.498L198.341 154.109Z" fill="#34323D"/>
<path d="M197.969 152.843L171.111 163.868C171.111 163.868 169.176 164.911 169.697 166.251C170.218 167.294 171.036 168.114 172.078 168.71L196.407 182.714C197.746 183.31 199.16 183.683 200.573 183.832C202.508 183.906 205.781 182.342 205.781 182.342L227.209 170.125L197.969 152.843Z" fill="#68E1FD"/>
<path opacity="0.45" d="M197.969 152.843L171.111 163.868C171.111 163.868 169.176 164.911 169.697 166.251C170.218 167.294 171.036 168.114 172.078 168.71L196.407 182.714C197.746 183.31 199.16 183.683 200.573 183.832C202.508 183.906 205.781 182.342 205.781 182.342L227.209 170.125L197.969 152.843Z" fill="#34323D"/>
<path d="M261.507 189.866C262.549 190.313 263.814 190.015 264.483 189.121C264.483 189.121 265.004 189.046 265.004 186.737V79.4678C264.93 77.6054 264.111 75.8176 262.698 74.6257C260.317 72.6889 254.514 69.6347 254.514 69.6347L135.473 0.878046L134.133 0.207612C133.166 -0.239343 132.05 0.058627 131.455 0.878046C131.083 1.47399 130.934 2.14442 130.86 2.81485C130.785 3.93224 130.86 14.8082 130.86 14.8082V111.351C130.86 113.213 131.678 115.001 133.017 116.267L261.507 189.866Z" fill="#68E1FD"/>
<path d="M262.847 173.552V81.0322C262.847 77.978 262.4 76.2646 260.094 74.9983L134.505 2.14449C133.315 1.39957 131.827 2.07 131.827 3.48536L132.125 98.6124L262.847 173.552Z" fill="white"/>
<path d="M254.216 81.926V113.883L231.152 100.475L231.301 68.5918L254.216 81.926Z" fill="#C685FF"/>
<path d="M225.349 65.9846V97.9419L202.284 84.5332L202.433 52.6504L225.349 65.9846Z" fill="#68E1FD"/>
<path d="M196.035 49.1491V81.1064L172.971 67.6978L173.119 35.8149L196.035 49.1491Z" fill="#F78B72"/>
<path d="M165.382 31.718V63.6753L142.318 50.2666L142.466 18.3838L165.382 31.718Z" fill="#8CCC00"/>
<path d="M254.737 121.705L237.253 111.797L209.278 95.9304L202.805 92.2803C202.284 91.9823 201.615 92.1313 201.243 92.6527C200.871 93.1742 201.094 93.8446 201.615 94.2171L219.173 104.199L247.148 120.066L253.547 123.716C254.067 124.014 254.737 123.791 255.035 123.269C255.407 122.673 255.258 122.077 254.737 121.705Z" fill="#FCB749"/>
<path d="M253.77 130.495L236.211 120.513L208.237 104.646L201.838 100.996C201.317 100.698 200.648 100.922 200.35 101.443C200.052 101.965 200.276 102.635 200.722 102.933L218.281 112.915L246.255 128.782L252.654 132.432C253.844 133.177 254.96 131.24 253.77 130.495Z" fill="#FCB749"/>
<path d="M253.175 138.913L235.616 128.931L207.641 113.064L201.243 109.414C200.722 109.116 200.052 109.265 199.68 109.786C199.308 110.307 199.532 110.978 200.052 111.35L217.611 121.332L245.586 137.199L251.984 140.849C252.505 141.147 253.175 140.924 253.472 140.403C253.844 139.881 253.621 139.211 253.175 138.913Z" fill="#FCB749"/>
<path d="M183.908 105.185C188.752 103.893 191.246 97.4634 189.48 90.8244C187.713 84.1855 182.354 79.8512 177.51 81.1435C172.666 82.4358 170.171 88.8653 171.938 95.5043C173.705 102.143 179.064 106.477 183.908 105.185Z" fill="#68E1FD"/>
<path d="M152.594 90.2951C157.438 89.0028 159.933 82.5732 158.166 75.9343C156.399 69.2954 151.04 64.961 146.196 66.2533C141.352 67.5456 138.857 73.9752 140.624 80.6141C142.391 87.2531 147.75 91.5874 152.594 90.2951Z" fill="#C685FF"/>
<path d="M252.579 147.48V155.227C252.579 156.121 251.835 156.791 250.942 156.791C250.645 156.791 250.422 156.717 250.198 156.568L243.056 152.62C242.535 152.322 242.238 151.8 242.238 151.204V143.308C242.238 142.414 242.982 141.744 243.8 141.744C244.098 141.744 244.321 141.818 244.618 141.967L251.761 146.064C252.282 146.362 252.579 146.884 252.579 147.48Z" fill="#F78B72"/>
<path d="M238.146 139.509V147.256C238.146 148.15 237.402 148.82 236.509 148.82C236.211 148.82 235.988 148.746 235.765 148.597L228.622 144.649C228.102 144.351 227.804 143.829 227.804 143.233V135.412C227.804 134.518 228.548 133.847 229.441 133.847C229.738 133.847 229.962 133.922 230.259 134.071L237.402 138.168C237.848 138.391 238.146 138.913 238.146 139.509Z" fill="#68E1FD"/>
<path d="M222.373 130.644V138.392C222.373 139.285 221.629 140.03 220.81 140.03C220.513 140.03 220.289 139.956 220.066 139.807L212.924 135.859C212.403 135.561 212.105 135.039 212.105 134.443V126.547C212.105 125.653 212.849 124.983 213.742 124.983C214.04 124.983 214.263 125.057 214.561 125.206L221.703 129.303C222.075 129.527 222.373 130.048 222.373 130.644Z" fill="#8CCC00"/>
<path d="M277.429 172.509L304.065 160.59L318.647 171.466L296.327 184.428C290.896 180.927 282.563 176.234 277.429 172.509Z" fill="url(#paint1_linear_139_1463)"/>
<path d="M324.525 150.311C324.525 150.311 326.682 168.859 316.861 172.435C307.041 176.01 301.833 166.699 301.684 150.311" fill="#68E1FD"/>
<path d="M313.141 156.94C319.469 156.94 324.599 153.972 324.599 150.311C324.599 146.649 319.469 143.681 313.141 143.681C306.814 143.681 301.684 146.649 301.684 150.311C301.684 153.972 306.814 156.94 313.141 156.94Z" fill="#34323D"/>
<path d="M310.165 135.635C310.165 135.635 314.629 129.154 312.695 124.685C312.695 124.685 311.058 121.78 308.826 121.333C308.826 121.333 309.049 127.441 306.743 126.696C304.437 125.951 306.743 120.29 306.743 120.29C306.743 120.29 304.362 117.012 301.684 117.161C299.005 117.31 301.684 122.897 299.824 122.003C297.964 121.109 299.675 116.267 297.666 115.671C295.806 115.224 293.872 114.926 291.937 114.777C291.937 114.777 290.003 120.364 291.937 121.184C293.872 122.003 296.773 122.227 295.36 123.493C293.946 124.759 290.077 123.344 290.077 123.344C290.077 123.344 289.854 126.473 291.119 127.888C292.384 129.303 300.196 126.249 298.857 128.931C297.517 131.613 292.309 130.272 292.309 130.272C292.309 130.272 294.913 134.071 298.038 135.784C301.237 137.349 310.165 135.635 310.165 135.635Z" fill="#8CCC00"/>
<path d="M309.124 151.875C309.124 151.875 312.397 148.672 311.728 145.915C311.728 145.915 311.133 144.128 309.868 143.606C309.868 143.606 309.347 147.107 308.157 146.437C306.966 145.766 308.826 142.787 308.826 142.787C308.826 142.787 307.785 140.701 306.297 140.478C304.809 140.254 305.701 143.755 304.734 143.01C303.767 142.265 305.255 139.733 304.139 139.211C303.097 138.764 302.056 138.392 301.014 138.094C301.014 138.094 299.303 141.073 300.345 141.744C301.386 142.414 302.949 142.861 302.056 143.383C301.163 143.904 299.08 142.712 299.08 142.712C299.08 142.712 298.633 144.5 299.229 145.394C299.824 146.288 304.585 145.394 303.469 146.809C302.353 148.225 299.601 146.884 299.601 146.884C300.27 148.299 301.163 149.566 302.279 150.608C303.916 151.875 309.124 151.875 309.124 151.875Z" fill="#8CCC00"/>
<path d="M321.028 144.947C321.028 144.947 328.914 145.245 331.593 141.222C331.593 141.222 333.155 138.317 332.337 136.156C332.337 136.156 327.278 139.658 326.682 137.274C326.087 134.89 332.114 133.847 332.114 133.847C332.114 133.847 333.602 130.048 332.039 127.888C330.477 125.728 327.203 130.942 326.98 128.931C326.757 126.919 331.742 125.728 331.146 123.716C330.477 121.928 329.733 120.141 328.84 118.427C328.84 118.427 323.037 119.768 323.483 121.854C323.93 123.94 325.12 126.472 323.409 126.025C321.698 125.579 320.73 121.481 320.73 121.481C320.73 121.481 317.978 122.971 317.531 124.834C317.085 126.696 323.781 131.612 320.805 131.91C317.829 132.208 316.192 127.143 316.192 127.143C316.192 127.143 314.406 131.389 314.629 134.89C314.853 138.317 321.028 144.947 321.028 144.947Z" fill="#8CCC00"/>
<path d="M293.723 117.161C294.541 117.831 295.36 118.576 296.252 119.321C296.178 118.427 296.029 117.533 295.88 116.639C295.806 116.193 296.55 115.969 296.624 116.416C296.773 117.608 296.922 118.8 297.071 119.992C299.303 121.928 301.461 123.94 303.469 126.1C303.618 124.61 303.693 123.046 303.618 121.556C303.618 121.109 304.362 121.109 304.362 121.556C304.437 123.344 304.362 125.057 304.139 126.845C305.404 128.26 306.669 129.75 307.785 131.24C309.049 129.452 309.942 127.441 310.314 125.281C310.389 124.834 311.133 124.983 311.058 125.504C310.612 127.813 309.719 129.974 308.305 131.836L308.231 131.91C311.505 136.529 313.737 141.743 313.96 147.777C313.96 148.224 313.216 148.224 313.216 147.777C313.067 141.967 310.909 136.976 307.71 132.432C304.734 133.251 301.609 133.549 298.484 133.326C298.038 133.326 298.038 132.581 298.484 132.581C301.461 132.804 304.362 132.506 307.264 131.761C305.701 129.601 303.916 127.59 302.056 125.728H301.981C300.27 125.877 298.484 126.026 296.773 126.1C295.657 126.249 294.541 126.1 293.5 125.728C293.053 125.504 293.425 124.908 293.872 125.057C295.062 125.653 296.773 125.355 298.038 125.281C299.154 125.206 300.27 125.132 301.312 124.983C298.633 122.375 295.806 119.917 293.053 117.608C292.83 117.384 293.351 116.863 293.723 117.161Z" fill="#34323D"/>
<path d="M316.787 131.687C316.713 131.464 316.862 131.24 317.085 131.24C317.308 131.166 317.531 131.315 317.531 131.538C318.35 134.294 319.986 136.678 322.293 138.391C323.111 136.008 323.93 133.698 324.599 131.315C322.814 129.527 321.326 127.441 320.21 125.132C319.986 124.685 320.656 124.312 320.879 124.759C321.846 126.845 323.186 128.782 324.822 130.495C325.566 127.739 326.31 124.983 326.831 122.227C326.906 121.78 327.65 121.929 327.575 122.45C326.757 126.249 325.79 130.048 324.674 133.773C326.087 133.475 327.426 133.028 328.766 132.432C329.212 132.209 329.584 132.879 329.138 133.102C327.65 133.773 326.087 134.294 324.45 134.592C323.706 137.051 322.814 139.434 321.846 141.893C324.078 141.818 326.236 141.371 328.319 140.477C328.766 140.328 329.138 140.924 328.691 141.148C326.459 142.116 324.004 142.638 321.549 142.712C320.358 145.692 319.019 148.671 317.606 151.502C317.382 151.949 316.787 151.577 316.936 151.13C318.87 147.256 320.582 143.308 321.995 139.285C319.54 137.274 317.68 134.667 316.787 131.687Z" fill="#34323D"/>
<path d="M303.321 141.297C303.99 142.414 304.66 143.606 305.404 144.724C305.627 144.351 305.85 144.053 306.073 143.681C306.297 143.234 306.892 143.606 306.743 144.053C306.52 144.5 306.222 145.022 305.925 145.394C306.669 146.66 307.413 147.852 308.157 149.119C308.38 148.895 308.603 148.597 308.603 148.225C308.677 147.778 309.421 147.778 309.347 148.225C309.273 148.821 308.975 149.342 308.529 149.789C309.496 151.353 310.389 152.918 311.281 154.408C311.356 154.631 311.281 154.78 311.133 154.929C310.984 155.004 310.761 154.929 310.686 154.78L307.041 148.672C306.445 148.672 305.85 148.597 305.255 148.374C304.809 148.225 304.957 147.48 305.478 147.629C305.85 147.778 306.222 147.778 306.594 147.852L302.874 141.595C302.874 141.371 303.023 141.222 303.172 141.148C303.097 141.148 303.246 141.222 303.321 141.297Z" fill="#34323D"/>
<path d="M5.42032 163.495L45.4479 143.755L75.7289 162.155L36.5942 183.31C27.7405 177.5 13.9764 169.604 5.42032 163.495Z" fill="url(#paint2_linear_139_1463)"/>
<path d="M77.7377 111.202V157.76C77.7377 157.76 33.0229 160.218 33.0229 157.76V111.202" fill="#68E1FD"/>
<path d="M55.3432 167.593C67.7114 167.593 77.7378 163.023 77.7378 157.387C77.7378 151.751 67.7114 147.182 55.3432 147.182C42.975 147.182 32.9486 151.751 32.9486 157.387C32.9486 163.023 42.975 167.593 55.3432 167.593Z" fill="#68E1FD"/>
<path d="M55.3432 121.407C67.7114 121.407 77.7378 116.838 77.7378 111.202C77.7378 105.565 67.7114 100.996 55.3432 100.996C42.975 100.996 32.9486 105.565 32.9486 111.202C32.9486 116.838 42.975 121.407 55.3432 121.407Z" fill="#34323D"/>
<path d="M69.3305 119.098L69.1817 119.172C68.2889 119.47 67.4705 119.768 66.5777 119.992L72.6785 68.9644C72.6785 68.9644 73.9433 68.294 75.8034 69.5604L69.5537 119.023L69.3305 119.098Z" fill="#F78B72"/>
<path d="M62.3368 120.737L60.4768 72.838C60.4768 72.838 61.5928 71.9441 63.676 72.9125L65.2385 120.364C64.2712 120.513 63.304 120.662 62.3368 120.737Z" fill="#F78B72"/>
<path d="M55.3431 121.407L49.1679 71.4971L36.743 78.0524L41.8022 119.992C46.1919 121.258 50.8047 121.78 55.3431 121.407Z" fill="#FCB749"/>
<path d="M93.2131 198.656L133.241 178.916L163.522 197.315L124.387 218.471C115.533 212.661 101.769 204.764 93.2131 198.656Z" fill="url(#paint3_linear_139_1463)"/>
<path d="M136.886 181.523C136.886 181.523 142.615 178.99 143.954 178.916C145.294 178.841 147.6 179.288 145.591 181.821C145.591 181.821 139.565 185.769 138.821 185.844C138.077 185.918 136.142 185.397 136.068 185.546C135.993 185.695 135.845 187.259 135.845 187.259C135.845 187.259 130.86 189.196 130.637 185.844C130.637 185.397 131.381 179.139 131.381 179.139" fill="#E16C3F"/>
<path d="M130.339 166.773C131.306 160.292 133.166 154.109 133.91 147.554C134.357 143.457 134.729 139.36 135.249 135.188C135.77 131.017 137.258 127.143 138.3 123.046C138.374 122.822 138.3 122.673 138.077 122.524L138.225 122.077C138.746 121.631 139.267 121.109 139.788 120.662L146.782 125.355C146.782 125.355 146.707 129.676 146.484 135.859C145.666 139.509 145.07 142.712 144.103 146.139C144.326 146.362 144.401 146.66 144.326 146.958C142.02 157.759 140.383 168.784 139.341 179.809C139.341 180.182 139.044 180.48 138.746 180.629L138.523 182.342C132.422 184.726 131.083 180.629 131.083 180.629C131.083 180.629 130.785 177.128 130.488 172.285C130.339 170.498 130.265 168.635 130.339 166.773Z" fill="#34323D"/>
<path d="M173.566 99.5806L173.715 99.6551C173.417 99.2827 173.491 98.8357 173.863 98.5377C173.938 98.4633 174.012 98.4633 174.087 98.3888C174.459 98.2398 174.756 98.1653 175.128 98.0908C175.128 98.0163 175.203 98.0163 175.203 98.0163C175.351 97.9418 175.426 97.7928 175.575 97.7183C175.723 97.4948 175.947 97.4204 176.17 97.4204H176.467C176.765 97.3459 177.063 97.2714 177.36 97.1969L178.402 96.9734C178.402 96.8989 178.476 96.7499 178.551 96.6754C180.039 94.8876 181.378 93.0253 182.568 91.0885C183.015 90.418 184.205 90.7905 183.907 91.6844C183.61 92.6528 183.238 93.5467 182.791 94.3662C184.354 92.7273 185.247 92.4293 186.66 90.6415C187.255 89.8966 188.297 90.9395 187.702 91.6844C187.33 92.1314 185.916 93.2488 185.544 93.6957C186.288 93.0253 188.074 91.6844 188.744 91.0885C189.413 90.4925 190.529 91.5354 189.785 92.1314C188.669 93.1743 187.553 94.2172 186.437 95.2601C187.479 94.6641 188.446 93.9937 189.413 93.3233C190.157 92.7273 190.901 94.0682 190.157 94.5896C189.041 95.4091 187.925 96.154 186.735 96.8244C187.479 96.6754 188.223 96.4519 188.892 96.2285C189.785 95.856 190.157 97.2714 189.264 97.6438C188.52 97.9418 187.776 98.1653 187.032 98.3888C186.66 98.4633 186.288 98.6122 185.916 98.7612C185.47 98.9102 185.023 99.0592 184.651 99.2827C183.238 100.177 181.601 100.847 179.964 101.294L179.667 101.443C179.443 101.592 179.22 101.592 178.997 101.517C177.063 101.89 174.979 101.741 173.119 101.07C172.227 100.698 172.599 99.2082 173.566 99.5806Z" fill="#FCBF81"/>
<path d="M151.766 87.5873C152.064 87.2893 152.362 86.9914 152.659 86.7679V86.8424C152.659 86.9169 152.659 86.9914 152.808 86.9914H152.957L153.552 86.5444C153.552 86.6189 153.478 86.6934 153.478 86.7679C153.403 87.0659 153.626 87.3638 153.924 87.4383C154.222 87.5128 154.594 87.2893 154.668 86.9914V86.9169L154.891 86.7679C154.891 86.8424 154.891 86.9169 154.817 86.9169C154.817 87.2148 155.04 87.4383 155.338 87.4383C155.412 87.4383 155.486 87.4383 155.561 87.3638C155.635 87.3638 155.71 87.2893 155.784 87.2893C155.858 87.3638 156.007 87.4383 156.082 87.4383C156.602 87.4383 157.198 87.4383 157.718 87.3638C157.644 87.2893 157.644 87.1403 157.718 86.9914L157.793 86.9169C158.537 86.6934 159.281 86.4699 160.025 86.3209H160.099L160.174 86.2464C160.471 85.7995 160.62 85.278 160.62 84.8311C161.066 84.5331 161.29 84.0861 161.364 83.6392C161.29 83.6392 161.29 83.5647 161.29 83.5647C161.215 83.4902 161.215 83.3412 161.141 83.1922C161.066 83.0433 161.066 82.8198 161.066 82.6708C161.066 82.5963 161.141 82.5218 161.215 82.4473C161.066 82.0748 160.918 81.7024 160.769 81.3299C161.662 80.585 162.331 79.5421 162.703 78.3502C162.778 78.0522 162.629 77.7543 162.331 77.6798C162.182 77.6053 161.959 77.6798 161.81 77.7543C161.438 78.0522 161.141 78.3502 160.769 78.6482C160.694 78.6482 160.62 78.7227 160.546 78.7227C158.834 80.3615 157.123 81.9259 155.263 83.4157C154.966 83.6392 151.246 86.1719 151.543 86.3954C151.618 86.5444 147.972 90.4925 151.766 87.5873Z" fill="#FCBF81"/>
<path d="M152.436 86.5449C153.106 86.3214 153.775 85.9489 154.296 85.502C154.742 85.1295 155.412 85.1295 155.858 85.5765C156.007 85.353 156.082 85.055 156.23 84.757C156.751 83.3417 158.909 84.0866 158.388 85.502C158.016 86.6194 157.346 87.5878 156.454 88.3327C155.486 88.9286 154.445 89.3756 153.329 89.5991C152.659 89.748 152.064 89.3011 151.99 88.6307V88.1837L151.915 88.1092C151.618 87.5133 151.841 86.8428 152.436 86.5449Z" fill="#FCBF81"/>
<path d="M155.635 88.6305C156.751 88.3325 157.718 87.6621 158.388 86.6937C158.388 86.7682 158.462 86.8427 158.537 86.7682L159.578 86.4702C159.802 86.3957 160.025 86.3212 160.248 86.2467C160.694 85.9488 160.546 85.4273 160.546 84.9059V84.8314L160.769 84.6824C161.141 84.4589 161.364 84.0865 161.513 83.714C161.587 83.3415 161.29 82.9691 161.29 82.5221C161.513 82.1497 161.438 81.7027 161.141 81.4047C160.769 81.0323 160.397 81.3302 160.025 81.5537C159.206 82.0752 158.462 82.6711 157.718 83.267C157.57 83.3415 157.793 83.565 157.942 83.4905C158.314 83.1925 158.76 82.8201 159.206 82.5221C159.578 82.1497 160.025 81.8517 160.546 81.6282C161.736 81.4047 161.066 82.6711 160.769 82.9691C160.62 83.1181 160.397 83.267 160.248 83.416L159.058 84.4589L158.983 84.5334C158.834 86.3212 157.57 87.8111 155.784 88.1835C155.412 88.407 155.412 88.705 155.635 88.6305ZM159.132 84.9059H158.983V84.8314C159.727 84.3099 160.397 83.714 160.992 83.0436C161.066 83.1181 161.066 83.267 161.066 83.3415C161.141 83.714 161.066 84.012 160.769 84.2354C160.546 84.6079 159.653 85.4273 159.132 84.9059ZM158.462 86.5447C158.686 86.0978 158.909 85.6508 158.983 85.1294C159.355 85.5018 159.876 85.3528 160.322 85.0549V85.6508C160.248 85.8743 160.099 86.0978 159.802 86.1723C159.355 86.3212 158.909 86.3957 158.462 86.5447Z" fill="#34323D"/>
<path d="M138.895 94.5901C139.341 93.9196 154.37 84.8315 155.263 83.6396C157.272 86.1724 157.495 89.6736 155.858 92.4298C155.858 92.4298 147.451 102.263 143.062 103.157" fill="#8B93FC"/>
<path opacity="0.5" d="M138.895 94.5901C139.341 93.9196 154.37 84.8315 155.263 83.6396C157.272 86.1724 157.495 89.6736 155.858 92.4298C155.858 92.4298 147.451 102.263 143.062 103.157" fill="#34323D"/>
<path d="M149.311 190.909L152.734 192.101C152.957 192.697 153.478 193.218 154.073 193.367C154.222 193.516 154.37 193.59 154.519 193.665C155.858 193.739 157.272 193.516 158.537 192.994C160.174 192.473 166.498 190.089 164.712 194.633C163.522 195.453 162.257 196.123 161.066 196.868C160.397 197.241 159.727 197.688 159.058 198.06C158.686 198.283 158.314 198.507 157.867 198.581C156.974 198.73 154.742 198.06 154.668 198.283C154.594 198.507 154.37 200.295 154.37 200.295C154.37 200.295 148.567 202.53 148.344 198.656C148.493 198.06 149.311 190.909 149.311 190.909Z" fill="#E16C3F"/>
<path d="M144.55 156.195C143.88 144.798 143.434 133.326 141.053 122.078C140.978 119.173 139.044 121.035 139.193 119.843C140.234 110.457 153.85 121.631 153.85 121.631C154.37 122.078 154.445 124.983 154.594 125.579C155.189 129.155 155.71 132.805 156.156 136.455C158.388 154.78 157.57 173.031 156.677 191.356C153.775 194.336 151.915 195.23 147.228 193.293C146.261 181.299 145.442 169.232 144.624 157.164L144.55 156.195Z" fill="#34323D"/>
<path d="M136.812 113.064C136.291 107.403 136.142 101.741 136.44 96.0799C136.514 94.59 136.961 90.9399 138.449 90.1205C141.722 88.2582 146.186 89.897 148.939 91.9083C152.585 94.59 154.668 119.694 154.742 125.877C149.683 127.888 143.136 128.633 138.002 126.473C137.556 126.324 137.481 120.141 137.407 119.396C137.184 117.31 137.035 115.224 136.812 113.064Z" fill="#8B93FC"/>
<path d="M147.228 104.87C147.526 108.52 150.13 111.574 153.626 112.542C153.626 112.915 153.701 115.075 153.775 115.448C149.683 114.479 146.633 109.339 146.261 104.944C146.186 104.274 147.228 104.274 147.228 104.87Z" fill="#34323D"/>
<path d="M147.377 79.3935C147.674 79.5425 149.311 86.5448 147.451 90.3439C145.591 94.143 139.639 88.7796 138.523 85.4274C137.407 82.0752 141.35 76.5628 147.377 79.3935Z" fill="#FCBF81"/>
<path d="M147.154 80.2873C146.93 81.5536 145.963 82.522 144.773 82.7455C142.764 83.0435 141.127 83.267 141.053 84.1609C140.978 85.0548 144.475 84.6823 144.103 86.6936C143.88 88.0345 143.434 89.3009 142.838 90.5672C142.466 91.4612 137.407 87.4386 136.514 82.0006C135.621 76.5626 140.532 76.1157 140.755 76.1157C140.978 76.1157 141.648 74.8493 144.029 74.7748C146.41 74.7003 146.856 75.7432 146.856 75.7432C148.046 75.2963 149.386 75.7432 150.13 76.7116C151.915 78.7974 150.799 81.7026 148.195 82.522L147.154 80.2873Z" fill="#E16C3F"/>
<path d="M148.716 94.7389C148.716 94.7389 161.587 99.134 165.754 98.3145C168.73 97.7186 174.533 95.5583 177.509 94.4409C180.857 96.3032 181.899 100.549 180.708 104.125C175.798 105.913 161.29 111.053 156.156 109.637C149.906 107.924 142.913 105.391 142.913 105.391C142.913 105.391 136.217 100.847 148.716 94.7389Z" fill="#8B93FC"/>
<defs>
<linearGradient id="paint0_linear_139_1463" x1="177.546" y1="160.516" x2="177.546" y2="200.295" gradientUnits="userSpaceOnUse">
<stop stop-color="#9367BA"/>
<stop offset="1" stop-color="#C685FF"/>
</linearGradient>
<linearGradient id="paint1_linear_139_1463" x1="298.038" y1="160.59" x2="298.038" y2="184.428" gradientUnits="userSpaceOnUse">
<stop stop-color="#9367BA"/>
<stop offset="1" stop-color="#C685FF"/>
</linearGradient>
<linearGradient id="paint2_linear_139_1463" x1="40.5746" y1="143.755" x2="40.5746" y2="183.31" gradientUnits="userSpaceOnUse">
<stop stop-color="#9367BA"/>
<stop offset="1" stop-color="#C685FF"/>
</linearGradient>
<linearGradient id="paint3_linear_139_1463" x1="128.367" y1="178.916" x2="128.367" y2="218.471" gradientUnits="userSpaceOnUse">
<stop stop-color="#9367BA"/>
<stop offset="1" stop-color="#C685FF"/>
</linearGradient>
</defs>
</svg>
