<svg width="348" height="252" viewBox="0 0 348 252" fill="none" xmlns="http://www.w3.org/2000/svg">
<path d="M179.223 248.478L341.243 152.688C346.436 149.795 350.813 145.046 345.768 141.93L183.154 48.143C180.706 46.659 176.997 45.6203 174.549 47.1042L4.36818 145.862C-0.824776 148.83 -1.715 157.214 3.47796 160.257L157.857 248.404C164.386 252.188 172.546 252.262 179.223 248.478Z" fill="#C685FF"/>
<path opacity="0.46" d="M225.143 124.196L180.558 111.286L44.0573 183.332C44.0573 183.332 71.6541 191.791 90.052 202.624C101.625 194.313 201.033 137.997 225.143 124.196Z" fill="url(#paint0_linear_139_1666)"/>
<path d="M228.927 122.044V45.3235L208.748 33.7485L171.285 54.4498V129.761L192.428 142.968L228.927 122.044Z" fill="#68E1FD"/>
<path d="M228.927 45.3232L192.353 66.3955V142.968L228.927 122.044V45.3232Z" fill="#68E1FD"/>
<path d="M192.353 66.3958L171.285 54.4498L208.748 33.7485L228.927 45.3235L192.353 66.3958Z" fill="#68E1FD"/>
<path opacity="0.37" d="M228.927 122.044V45.3235L208.748 33.7485L171.285 54.4498V129.761L192.428 142.968L228.927 122.044Z" fill="#1E2128"/>
<path opacity="0.37" d="M228.927 45.3232L192.353 66.3955V142.894L228.927 122.044V45.3232Z" fill="#1E2128"/>
<path opacity="0.15" d="M192.353 66.3958L171.285 54.3756L208.748 33.7485L228.927 45.3235L192.353 66.3958Z" fill="#1E2128"/>
<path d="M182.858 70.1801L162.531 58.2342L158.376 59.6439L151.7 29.8905L131.225 18.6865C131.225 18.6865 118.687 25.1418 115.201 38.2749C111.714 51.4079 114.236 69.8091 116.981 75.374L82.7818 96.2979C82.7818 96.2979 69.8736 106.389 81.2981 117.964C81.2981 117.964 70.3929 122.712 70.5413 132.432C70.6897 142.152 78.4049 143.711 78.4049 143.711C78.4049 143.711 72.9894 147.346 74.6957 155.582C76.4019 163.818 78.9984 165.154 78.9984 165.154C78.9984 165.154 73.7313 167.454 76.031 174.28C78.3307 181.106 106.15 190.826 106.299 189.936" fill="#68E1FD"/>
<path d="M182.858 70.1795C182.858 70.1795 178.481 73.741 176.478 73.37C174.475 72.999 159.638 63.7242 156.744 49.2556C153.851 34.7869 156.596 28.0349 146.952 29.8898C137.308 31.7448 128.035 70.1795 138.866 87.3934C138.866 87.3934 103.257 108.466 102.738 108.688C102.218 108.911 95.8385 115.96 97.5447 123.231C99.251 130.503 102.738 129.315 102.589 129.761C102.441 130.206 89.9778 134.658 91.3132 146.604C92.6485 158.55 101.551 153.133 101.551 153.133C101.551 153.133 90.5713 159.069 95.0224 169.012C99.4735 178.954 109.192 169.16 108.524 169.605C107.856 170.05 100.957 175.318 102.664 183.703C104.37 192.087 111.714 188.229 111.714 188.229L174.623 150.833C174.623 150.833 183.451 129.093 182.783 127.015C182.116 124.938 182.858 70.1795 182.858 70.1795Z" fill="white"/>
<path d="M87.6781 72.5536L85.601 71.8858L82.9303 67.1371L85.6751 66.8403" fill="#E03636"/>
<path d="M71.2832 44.3587L71.7283 69.5861C71.7283 70.4765 72.4702 71.1443 73.3604 71.1443C73.5829 71.1443 73.8055 71.0701 74.0281 70.9959L95.4676 60.3114C96.2094 59.9404 96.6545 59.1984 96.6545 58.3822L96.2094 33.1548C96.2094 32.1902 95.3934 31.4482 94.429 31.4482C94.2064 31.4482 93.9097 31.5224 93.6871 31.6708L72.4702 42.5038C71.7283 42.8748 71.2832 43.6167 71.2832 44.3587Z" fill="#E03636"/>
<path d="M97.3964 32.7091L94.9483 31.522L94.8741 33.4511L97.3964 32.7091Z" fill="#E03636"/>
<path d="M74.4732 71.8862L72.6927 70.9959L74.0281 70.1797L74.4732 71.8862Z" fill="#E03636"/>
<path d="M73.4346 45.3978L73.8797 70.6252C73.8797 71.5156 74.6215 72.1834 75.5118 72.1834C75.7343 72.1834 75.9569 72.1092 76.1794 72.035L97.6189 61.3504C98.3608 60.9794 98.8059 60.2374 98.8059 59.4213L98.3608 34.1939C98.3608 33.2293 97.5447 32.4873 96.5803 32.4873C96.3578 32.4873 96.061 32.5615 95.8385 32.7099L74.6215 43.5428C73.8797 43.8396 73.4346 44.5816 73.4346 45.3978Z" fill="#FF5454"/>
<path d="M92.0551 62.4629L87.6782 72.5538L83.7463 65.505" fill="#FF5454"/>
<path d="M90.052 43.0971C91.3874 42.3551 92.7969 42.9487 93.1678 44.7294C93.5387 46.807 92.7227 49.4781 91.8325 51.7041C90.9422 54.0784 89.9036 56.3786 88.7909 58.6045C88.7167 58.8271 87.3072 61.7208 87.1588 61.795C87.0104 61.8692 86.7137 61.5724 86.5653 61.4982C86.046 61.2014 85.6009 60.9047 85.1558 60.6079C83.3012 59.4949 81.7433 57.7883 80.7789 55.785C79.8887 53.8558 79.3694 50.9621 81.2982 48.5878C81.6691 48.1426 82.1142 47.7716 82.6335 47.4748C83.4495 46.9554 84.4881 46.9554 85.3042 47.4006C86.1202 48.1426 86.7137 49.1071 86.8621 50.2201C87.0846 48.291 87.6781 46.5102 88.5683 44.8036C88.8651 43.9875 89.4585 43.4681 90.052 43.0971Z" fill="white"/>
<path d="M215.647 115.218C215.054 113.734 213.644 112.547 212.606 111.359C211.419 110.246 210.603 108.762 210.232 107.204C210.084 106.388 211.122 95.9261 211.345 96.0003C208.748 95.4068 204.742 94.2938 203.407 91.9194C202.368 96.9649 200.143 108.317 200.439 108.911C200.885 109.727 203.036 110.914 203.036 110.914L203.778 104.682L203.926 110.766C204.075 111.285 204.371 111.73 204.742 112.176C205.336 112.769 206.078 113.214 206.819 113.585C208.229 114.476 209.713 115.218 211.271 115.737C212.383 116.108 214.98 116.702 215.722 115.366C215.672 115.317 215.647 115.267 215.647 115.218Z" fill="#1E2128"/>
<path d="M225.737 108.837C225.143 107.353 223.734 106.166 222.695 104.979C221.508 103.866 220.692 102.382 220.321 100.824C220.099 100.008 221.211 89.5458 221.434 89.62C218.837 89.0264 214.831 87.9134 213.496 85.5391C212.457 90.5845 210.232 101.937 210.529 102.53C210.974 103.347 213.125 104.534 213.125 104.534L213.867 98.3012L214.015 104.385C214.164 104.905 214.46 105.35 214.831 105.795C215.425 106.389 216.167 106.834 216.909 107.205C218.318 108.095 219.802 108.837 221.36 109.357C222.472 109.728 225.069 110.321 225.737 108.986V108.837Z" fill="#1E2128"/>
<path d="M210.084 22.5444C210.084 22.5444 218.244 35.3065 220.321 36.8647C220.321 36.8647 213.867 38.868 213.57 43.7651C213.57 43.7651 206.152 39.239 204.52 36.7163C202.888 34.1936 210.084 22.5444 210.084 22.5444Z" fill="#E03636"/>
<path d="M207.116 36.5672C207.116 36.5672 225.588 46.584 227.22 56.0072C228.852 65.4304 225.143 91.1771 222.472 92.5127C222.472 92.5127 213.274 91.9191 211.196 84.1283C211.196 84.1283 212.68 72.5534 214.609 64.7626C214.609 64.7626 204.445 62.8334 198.956 56.3782C195.692 52.5199 196.73 37.0124 199.327 35.6769C201.923 34.3413 207.561 27.1441 207.116 36.5672Z" fill="#EA7554"/>
<path opacity="0.37" d="M207.116 36.5672C207.116 36.5672 225.588 46.584 227.22 56.0072C228.852 65.4304 225.143 91.1771 222.472 92.5127C222.472 92.5127 213.274 91.9191 211.196 84.1283C211.196 84.1283 212.68 72.5534 214.609 64.7626C214.609 64.7626 204.445 62.8334 198.956 56.3782C195.692 52.5199 196.73 37.0124 199.327 35.6769C201.923 34.3413 207.561 27.1441 207.116 36.5672Z" fill="#1E2128"/>
<path d="M203.333 39.8323C203.333 39.8323 216.241 47.6231 217.873 56.9721C219.505 66.3211 214.09 98.2263 211.493 99.4877C211.493 99.4877 203.333 101.12 201.256 93.3292C201.256 93.3292 202.517 72.4053 204.371 64.6145C204.371 64.6145 196.656 60.2368 191.166 53.7816C187.902 49.9233 189.905 38.8677 192.502 37.5322C195.098 36.1966 203.704 30.4833 203.333 39.8323Z" fill="#EA7554"/>
<path d="M189.831 42.1323C189.831 42.1323 188.941 25.6603 193.392 19.947C197.843 14.2338 206.819 12.0078 209.119 13.3434C211.419 14.679 211.567 41.3903 207.71 42.1323C197.398 44.1357 189.831 42.1323 189.831 42.1323Z" fill="#E03636"/>
<path d="M198.362 22.5439C198.288 22.9149 196.508 31.0025 201.701 35.4544C204.223 37.7545 206.968 39.8321 209.861 41.6128C209.861 41.6128 203.407 48.81 203.629 50.8876C203.629 50.8876 183.525 44.2839 189.238 22.2471" fill="#E03636"/>
<path d="M207.339 6.07268C207.339 6.07268 208.377 16.312 203.778 18.0186C200.365 19.28 198.436 14.8281 198.14 12.1569C197.917 8.96641 199.327 5.85009 201.997 4.06933C204.223 2.51117 207.042 2.95636 207.339 6.07268Z" fill="#FFAC99"/>
<path d="M199.92 8.81742C199.92 8.81742 200.81 8.44643 201.256 8.81742C201.701 9.18841 200.81 10.7466 202.072 10.895C203.333 11.0434 206.745 11.1176 208.897 8.81742C211.048 6.51727 208.822 0.655614 204.445 0.0620279C200.069 -0.531558 193.54 3.17835 192.428 9.3368C191.315 15.4953 191.463 15.792 189.46 17.5728C187.457 19.3536 185.009 19.3536 186.27 22.6925C187.531 26.0314 191.463 24.77 191.389 27.738C191.315 30.7059 195.172 33.9706 199.549 31.7447C203.926 29.5187 203.259 24.8442 200.588 22.6925C197.917 20.5407 197.398 11.1176 199.92 8.81742Z" fill="#1E2128"/>
<path d="M211.122 55.785L200.736 49.7008L219.134 37.6807L228.927 41.539" fill="#1E2128"/>
<path d="M211.122 54.6716C210.974 53.9296 216.093 39.3868 216.093 39.3868L237.31 27.2925L230.781 43.8387L211.048 55.7104V54.6716H211.122Z" fill="#CCCCCC"/>
<path opacity="0.46" d="M218.17 191.272L194.134 184.965L132.115 215.98C132.115 215.98 138.569 226.071 147.991 231.561C153.925 227.332 205.929 198.321 218.17 191.272Z" fill="url(#paint1_linear_139_1666)"/>
<path d="M222.176 188.971V154.839L213.199 149.646L196.508 158.846V192.384L205.929 198.32L222.176 188.971Z" fill="#68E1FD"/>
<path d="M222.176 154.839L205.855 164.188V198.32L222.176 188.971V154.839Z" fill="#68E1FD"/>
<path d="M205.855 164.188L196.508 158.846L213.199 149.646L222.176 154.839L205.855 164.188Z" fill="#68E1FD"/>
<path opacity="0.37" d="M222.176 188.971V154.839L213.199 149.646L196.508 158.846V192.458L205.929 198.32L222.176 188.971Z" fill="#1E2128"/>
<path opacity="0.37" d="M222.176 154.839L205.855 164.188V198.32L222.176 188.971V154.839Z" fill="#1E2128"/>
<path opacity="0.15" d="M205.855 164.188L196.508 158.846L213.199 149.646L222.176 154.839L205.855 164.188Z" fill="#1E2128"/>
<path d="M201.626 165.896L192.576 160.553L190.721 161.221L187.754 147.94L178.629 142.968C178.629 142.968 173.065 145.862 171.507 151.724C169.949 157.585 171.062 165.747 172.323 168.27L157.041 177.545C157.041 177.545 151.329 182.071 156.373 187.19C156.373 187.19 151.477 189.342 151.551 193.646C151.626 197.949 155.038 198.691 155.038 198.691C155.038 198.691 152.664 200.323 153.406 203.959C154.148 207.595 155.335 208.188 155.335 208.188C155.335 208.188 153.035 209.227 154 212.269C154.964 215.312 167.427 219.689 167.427 219.244" fill="#68E1FD"/>
<path d="M201.626 165.896C201.626 165.896 199.698 167.454 198.807 167.305C197.917 167.157 191.315 163.002 189.979 156.547C188.644 150.091 189.905 147.123 185.603 147.94C181.3 148.756 177.145 165.896 181.967 173.538C181.967 173.538 166.092 182.887 165.869 183.035C165.647 183.184 162.828 186.3 163.57 189.491C164.311 192.681 165.869 192.236 165.795 192.384C165.721 192.533 160.157 194.536 160.75 199.878C161.344 205.221 165.276 202.772 165.276 202.772C165.276 202.772 160.38 205.443 162.383 209.821C164.386 214.199 168.688 209.895 168.392 210.118C168.095 210.34 165.053 212.64 165.795 216.424C166.537 220.209 169.801 218.428 169.801 218.428L197.843 201.807C197.843 201.807 201.775 192.162 201.478 191.197C201.181 190.233 201.626 165.896 201.626 165.896Z" fill="white"/>
<path opacity="0.46" d="M302.073 143.19L289.017 132.729L253.408 151.501C253.408 151.501 263.2 157.511 272.622 163.001C278.482 158.698 294.358 151.797 302.073 143.19Z" fill="url(#paint2_linear_139_1666)"/>
<path d="M279.076 120.708C279.076 120.708 276.479 142.968 288.275 147.271C300.07 151.575 306.302 140.371 306.524 120.708" fill="#68E1FD"/>
<path opacity="0.33" d="M279.076 120.708C279.076 120.708 276.479 142.968 288.275 147.271C300.07 151.575 306.302 140.371 306.524 120.708" fill="#1E2128"/>
<path d="M292.8 128.648C300.38 128.648 306.524 125.093 306.524 120.709C306.524 116.324 300.38 112.77 292.8 112.77C285.22 112.77 279.076 116.324 279.076 120.709C279.076 125.093 285.22 128.648 292.8 128.648Z" fill="#FF5454"/>
<path d="M296.361 103.05C296.361 103.05 290.945 95.2589 293.319 89.9166C293.319 89.9166 295.248 86.5035 297.993 85.9099C297.993 85.9099 297.696 93.2555 300.441 92.3652C303.186 91.4748 300.441 84.6485 300.441 84.6485C300.441 84.6485 303.334 80.7902 306.45 80.8644C309.566 80.9386 306.45 87.7649 308.676 86.6519C310.901 85.5389 308.824 79.7515 311.272 79.0837C313.498 78.5643 315.797 78.1933 318.097 77.9707C318.097 77.9707 320.397 84.7227 318.097 85.6873C315.797 86.6519 312.311 86.9487 314.017 88.4327C315.723 89.9166 320.323 88.2101 320.323 88.2101C320.323 88.2101 320.619 91.9942 318.987 93.6265C317.355 95.2589 308.082 91.6232 309.714 94.8879C311.346 98.1526 317.504 96.5203 317.504 96.5203C317.504 96.5203 314.388 101.046 310.679 103.05C306.969 105.053 296.361 103.05 296.361 103.05Z" fill="#8CCC00"/>
<path d="M297.548 122.49C297.548 122.49 293.69 118.631 294.432 115.367C294.432 115.367 295.174 113.215 296.658 112.621C296.658 112.621 297.325 116.851 298.735 116.034C300.144 115.218 297.919 111.657 297.919 111.657C297.919 111.657 299.106 109.134 300.96 108.837C302.815 108.54 301.702 112.77 302.815 111.879C303.928 110.989 302.147 107.947 303.483 107.279C304.744 106.76 305.931 106.314 307.266 105.943C307.266 105.943 309.343 109.505 308.082 110.321C306.821 111.137 304.966 111.657 306.005 112.324C307.043 112.992 309.566 111.508 309.566 111.508C309.566 111.508 310.159 113.66 309.417 114.699C308.676 115.738 303.038 114.699 304.299 116.405C305.56 118.112 308.898 116.48 308.898 116.48C308.156 118.186 307.043 119.67 305.708 120.931C303.854 122.564 297.548 122.49 297.548 122.49Z" fill="#8CCC00"/>
<path d="M283.304 114.179C283.304 114.179 273.883 114.55 270.619 109.653C270.619 109.653 268.764 106.166 269.728 103.569C269.728 103.569 275.812 107.724 276.479 104.904C277.147 102.085 269.951 100.749 269.951 100.749C269.951 100.749 268.171 96.2232 270.025 93.6263C271.88 91.0293 275.812 97.3362 276.034 94.8876C276.257 92.4391 270.322 91.1035 271.064 88.655C271.806 86.5032 272.77 84.3515 273.809 82.2739C273.809 82.2739 280.708 83.9063 280.263 86.429C279.818 88.9518 278.26 91.9939 280.411 91.4003C282.562 90.8067 283.601 85.9838 283.601 85.9838C283.601 85.9838 286.939 87.7646 287.459 89.9905C287.978 92.2165 279.966 98.1523 283.527 98.4491C287.088 98.7459 289.091 92.7359 289.091 92.7359C289.091 92.7359 291.168 97.8556 290.945 102.011C290.723 106.166 283.304 114.179 283.304 114.179Z" fill="#8CCC00"/>
<path d="M316.094 80.9383C315.13 81.7545 314.091 82.6449 313.052 83.5353C313.127 82.4965 313.275 81.3835 313.423 80.3447C313.498 79.7512 312.682 79.5286 312.533 80.1221C312.311 81.5319 312.162 82.9417 312.014 84.4256C309.343 86.7258 306.747 89.1743 304.299 91.7713C304.076 89.9905 304.002 88.1356 304.15 86.2806C304.15 85.687 303.26 85.687 303.26 86.2806C303.112 88.3581 303.26 90.5099 303.557 92.5874C301.999 94.294 300.515 96.0748 299.18 97.8555C297.622 95.7038 296.583 93.3294 296.138 90.7325C296.064 90.1389 295.174 90.4357 295.248 90.9551C295.767 93.7004 296.88 96.2974 298.586 98.5233L298.661 98.5975C294.729 104.162 292.058 110.395 291.836 117.592C291.836 118.186 292.726 118.186 292.726 117.592C292.948 110.618 295.545 104.608 299.328 99.1911C302.963 100.156 306.673 100.527 310.382 100.304C310.975 100.304 310.975 99.4137 310.382 99.4137C306.821 99.6363 303.334 99.3395 299.848 98.4491C301.702 95.9264 303.779 93.4778 306.079 91.2519H306.153C308.23 91.4003 310.308 91.6229 312.385 91.6971C313.72 91.7713 315.056 91.8455 316.242 91.2519C316.762 91.0293 316.317 90.2131 315.797 90.5099C314.388 91.2519 312.385 90.8809 310.827 90.7325C309.492 90.6583 308.156 90.5099 306.895 90.4357C310.085 87.3194 313.498 84.3514 316.762 81.5319C317.133 81.2351 316.465 80.5673 316.094 80.9383Z" fill="#1E2128"/>
<path d="M288.423 98.3007C288.497 98.0781 288.349 97.7814 288.126 97.7814C287.904 97.7072 287.607 97.8555 287.607 98.0781C286.643 101.343 284.64 104.237 281.895 106.314C280.93 103.495 279.966 100.675 279.15 97.7814C281.301 95.6296 283.082 93.1069 284.343 90.4357C284.565 89.9163 283.824 89.4712 283.601 89.9905C282.414 92.5133 280.782 94.8134 278.853 96.8168C277.889 93.5521 277.073 90.2131 276.405 86.8742C276.257 86.2806 275.441 86.5774 275.515 87.0968C276.479 91.6971 277.666 96.2232 279.002 100.675C277.295 100.378 275.663 99.7847 274.105 99.1169C273.586 98.8943 273.141 99.6363 273.66 99.8589C275.441 100.675 277.369 101.343 279.298 101.64C280.263 104.608 281.301 107.501 282.414 110.321C279.743 110.247 277.147 109.653 274.625 108.614C274.105 108.392 273.66 109.134 274.18 109.356C276.85 110.543 279.818 111.137 282.711 111.211C284.12 114.773 285.678 118.334 287.459 121.747C287.755 122.267 288.497 121.822 288.2 121.302C285.901 116.702 283.898 111.953 282.117 107.13C285.159 104.979 287.384 101.862 288.423 98.3007Z" fill="#1E2128"/>
<path d="M304.595 109.876C303.779 111.286 302.963 112.621 302.147 114.031C301.851 113.66 301.554 113.215 301.405 112.77C301.183 112.25 300.367 112.695 300.664 113.215C300.96 113.808 301.257 114.328 301.702 114.847L299.032 119.299C298.735 119.002 298.512 118.631 298.512 118.26C298.438 117.667 297.548 117.667 297.622 118.26C297.696 119.002 298.067 119.67 298.586 120.115L295.248 125.68C295.174 125.903 295.322 126.199 295.545 126.274C295.693 126.348 295.916 126.274 295.99 126.125C297.474 123.677 298.957 121.228 300.367 118.78C301.109 118.78 301.851 118.705 302.518 118.483C303.038 118.334 302.815 117.444 302.296 117.592C301.851 117.741 301.405 117.815 300.886 117.889C302.37 115.441 303.854 112.918 305.337 110.395C305.411 110.173 305.263 109.876 305.041 109.876C304.892 109.653 304.744 109.727 304.595 109.876Z" fill="#1E2128"/>
<defs>
<linearGradient id="paint0_linear_139_1666" x1="134.6" y1="111.286" x2="134.6" y2="202.624" gradientUnits="userSpaceOnUse">
<stop stop-color="#9367BA"/>
<stop offset="1" stop-color="#C685FF"/>
</linearGradient>
<linearGradient id="paint1_linear_139_1666" x1="175.142" y1="184.965" x2="175.142" y2="231.561" gradientUnits="userSpaceOnUse">
<stop stop-color="#9367BA"/>
<stop offset="1" stop-color="#C685FF"/>
</linearGradient>
<linearGradient id="paint2_linear_139_1666" x1="277.74" y1="132.729" x2="277.74" y2="163.001" gradientUnits="userSpaceOnUse">
<stop stop-color="#9367BA"/>
<stop offset="1" stop-color="#C685FF"/>
</linearGradient>
</defs>
</svg>
