<svg width="367" height="262" viewBox="0 0 367 262" fill="none" xmlns="http://www.w3.org/2000/svg">
<path d="M177.66 259.085L7.12461 158.547C1.68283 155.513 -2.95868 150.482 2.32304 147.208L173.499 48.8261C176.06 47.229 179.981 46.1909 182.622 47.7082L361.56 151.36C367.002 154.475 367.962 163.259 362.521 166.453L200.148 258.925C193.185 262.998 184.703 262.998 177.66 259.085Z" fill="#C685FF"/>
<path opacity="0.32" d="M307.863 151.121C299.3 156.87 291.057 162.061 282.895 167.251C291.617 171.723 303.701 177.952 309.623 181.386C315.225 178.112 334.351 166.533 341.154 160.623L307.863 151.121Z" fill="url(#paint0_linear_139_1585)"/>
<path d="M326.787 165.898C337.168 165.561 345.392 159.393 345.155 152.119C344.918 144.846 336.311 139.223 325.93 139.559C315.549 139.896 307.326 146.064 307.563 153.338C307.799 160.611 316.406 166.234 326.787 165.898Z" fill="#68E1FD"/>
<path opacity="0.5" d="M326.307 150.645C334.082 150.393 340.301 147.616 340.198 144.442C340.094 141.268 333.708 138.9 325.933 139.152C318.159 139.404 311.94 142.181 312.043 145.354C312.147 148.528 318.533 150.897 326.307 150.645Z" fill="#0B0F12"/>
<path d="M327.069 144.972C328.109 143.375 329.15 141.698 330.27 139.861C331.71 137.466 332.991 135.07 334.191 132.595C335.312 130.359 336.272 128.043 336.992 125.727C337.872 123.172 338.513 120.536 338.993 117.901C339.073 117.183 339.233 116.464 339.313 115.825C339.366 115.612 339.393 115.532 339.393 115.585C339.393 115.665 339.393 115.346 339.393 114.947C339.473 113.509 339.553 112.072 339.473 110.634C339.393 105.683 338.273 100.812 336.192 96.3403C331.31 103.847 328.189 112.311 326.909 121.175C326.829 121.734 326.749 122.213 326.669 122.772C326.669 122.693 326.589 123.731 326.509 124.13C326.429 124.529 326.429 125.328 326.429 125.487C326.349 126.126 326.349 126.845 326.349 127.484C326.189 130.039 326.189 132.674 326.269 135.31C326.429 138.504 326.749 141.778 327.069 144.972Z" fill="#999A1C"/>
<path d="M327.469 145.212C327.469 143.295 327.469 141.299 327.389 139.143C327.309 136.348 327.069 133.633 326.749 130.918C326.509 128.442 326.029 125.967 325.388 123.571C324.668 120.936 323.868 118.38 322.828 115.905C322.507 115.266 322.267 114.627 321.947 113.988C321.787 113.669 321.867 113.749 321.867 113.749C321.867 113.749 321.787 113.589 321.547 113.19C320.827 111.912 320.107 110.714 319.306 109.516C316.586 105.444 312.984 101.93 308.823 99.2949C308.823 108.239 310.744 117.103 314.505 125.168C314.745 125.647 314.905 126.126 315.145 126.605C315.145 126.605 315.545 127.484 315.785 127.803L316.425 129.001C316.746 129.56 317.066 130.199 317.386 130.758C318.666 132.994 320.107 135.23 321.547 137.306C323.388 140.101 325.388 142.656 327.469 145.212Z" fill="#999A1C"/>
<path d="M327.549 146.17C326.909 145.132 326.269 144.094 325.548 142.896C324.588 141.458 323.628 140.021 322.507 138.663C321.547 137.386 320.507 136.268 319.386 135.15C318.186 133.952 316.906 132.834 315.465 131.876C315.065 131.636 314.745 131.397 314.345 131.077C314.238 131.024 314.211 130.997 314.265 130.997L313.945 130.838C313.144 130.358 312.344 129.959 311.544 129.56C308.743 128.202 305.702 127.484 302.581 127.404C305.462 132.195 309.383 136.348 314.025 139.542L314.825 140.101L315.545 140.58L316.265 140.979L317.386 141.618C318.826 142.417 320.267 143.135 321.787 143.854C323.788 144.732 325.628 145.531 327.549 146.17Z" fill="#999A1C"/>
<path d="M227.997 90.6701L236.96 115.505L277.213 92.4269L268.57 67.1128" fill="#F67770"/>
<path d="M227.997 90.6701L256.806 92.0276L268.57 67.1128L227.997 90.6701Z" fill="#F67770"/>
<path d="M287.056 51.0623L304.021 76.4562L341.074 42.6775L319.947 11.4541" fill="#F67770"/>
<path d="M287.056 51.0623L311.144 48.9062L319.947 11.4541L287.056 51.0623Z" fill="#F67770"/>
<path opacity="0.5" d="M227.997 90.6706L256.806 92.0281L268.57 67.1133L227.997 90.6706Z" fill="#F2F2F2"/>
<path opacity="0.5" d="M287.056 51.0623L311.144 48.9062L319.947 11.4541L287.056 51.0623Z" fill="#F2F2F2"/>
<path opacity="0.32" d="M117.401 157.749L53.2197 119.179L29.2118 150.482L80.2685 180.827C92.5925 173.002 104.836 165.096 117.401 157.749Z" fill="url(#paint1_linear_139_1585)"/>
<path d="M82.3492 56.3328L66.7441 48.0278L29.2918 69.6686V150.482L44.7369 159.426" fill="#F67770"/>
<path opacity="0.3" d="M82.3492 56.3328L66.7441 48.0278L29.2918 69.6686V150.482L44.7369 159.426" fill="#0B0F12"/>
<path d="M44.7369 159.426C45.9373 159.346 44.7369 78.0536 44.7369 78.0536L82.3491 56.333V138.264L44.7369 159.426Z" fill="#F67770"/>
<path d="M44.8969 92.8264L44.8169 92.7466L29.2118 84.8409L29.2918 84.6812L44.8969 92.5869L82.2691 71.585L82.4292 71.7447L44.8969 92.8264Z" fill="#F2F2F2"/>
<path d="M44.8969 113.829H44.8169L29.2118 105.843L29.2918 105.684L44.8969 113.589L82.2691 92.5874L82.4292 92.7471L44.8969 113.829Z" fill="#F2F2F2"/>
<path d="M44.8969 132.754H44.8169L29.2118 124.769L29.2918 124.609L44.8969 132.515L82.2691 111.513L82.4292 111.672L44.8969 132.754Z" fill="#F2F2F2"/>
<path d="M44.8969 151.84H44.8169L29.2118 143.934L29.2918 143.694L44.8969 151.68L82.2691 130.598L82.4292 130.838L44.8969 151.84Z" fill="#F2F2F2"/>
<path d="M44.7369 78.0534L29.2918 69.6686L66.7441 48.0278L82.3492 56.3328L44.7369 78.0534Z" fill="#F67770"/>
<path opacity="0.5" d="M44.7369 78.0534L29.2918 69.6686L66.7441 48.0278L82.3492 56.3328L44.7369 78.0534Z" fill="#F2F2F2"/>
<path d="M53.8444 81.5625C54.4141 80.1749 53.9477 78.6706 52.8025 78.2024C51.6574 77.7342 50.2672 78.4795 49.6975 79.867C49.1278 81.2546 49.5942 82.7589 50.7394 83.2271C51.8845 83.6953 53.2747 82.95 53.8444 81.5625Z" fill="#F2F2F2"/>
<path d="M77.4675 66.7939L59.9418 76.3765L57.461 77.734C57.301 77.8139 57.301 78.0534 57.381 78.1333C57.461 78.2132 57.6211 78.293 57.7011 78.2132L75.2268 68.6305L77.7076 67.273C78.1078 67.1133 77.7877 66.6342 77.4675 66.7939Z" fill="#F2F2F2"/>
<path d="M53.8927 99.9941C54.4625 98.6066 53.996 97.1022 52.8509 96.634C51.7057 96.1658 50.3156 96.9111 49.7458 98.2987C49.1761 99.6862 49.6426 101.191 50.7877 101.659C51.9328 102.127 53.323 101.382 53.8927 99.9941Z" fill="#F2F2F2"/>
<path d="M77.4676 85.1604L59.9418 94.743L57.461 96.1005C57.1409 96.2603 57.461 96.8192 57.7811 96.5797L75.3068 86.9971L77.7876 85.6395C78.1078 85.5597 77.7877 85.0007 77.4676 85.1604Z" fill="#F2F2F2"/>
<path d="M53.8382 120.053C54.4079 118.666 53.9415 117.161 52.7963 116.693C51.6512 116.225 50.261 116.97 49.6913 118.358C49.1216 119.745 49.588 121.25 50.7332 121.718C51.8783 122.186 53.2685 121.441 53.8382 120.053Z" fill="#F2F2F2"/>
<path d="M77.4676 105.285L59.9418 114.867L57.461 116.225C57.1409 116.384 57.461 116.943 57.7811 116.704L75.3068 107.121L77.7876 105.764C78.1078 105.604 77.7877 105.125 77.4676 105.285Z" fill="#F2F2F2"/>
<path d="M53.8838 138.33C54.4535 136.942 53.9871 135.438 52.8419 134.97C51.6968 134.502 50.3067 135.247 49.7369 136.635C49.1672 138.022 49.6337 139.527 50.7788 139.995C51.9239 140.463 53.3141 139.718 53.8838 138.33Z" fill="#F2F2F2"/>
<path d="M77.4676 123.491L59.9418 133.074L57.461 134.432C57.1409 134.591 57.461 135.15 57.7811 134.911L75.3068 125.328L77.7876 123.971C78.1078 123.891 77.7877 123.332 77.4676 123.491Z" fill="#F2F2F2"/>
<path opacity="0.32" d="M244.482 220.754L150.291 161.662L137.887 169.727L192.145 255.412C205.749 246.707 230.558 228.82 244.482 220.754Z" fill="url(#paint2_linear_139_1585)"/>
<path d="M187.183 107.679L166.537 109.995C166.537 109.995 175.5 149.204 177.1 144.492C178.06 141.777 182.382 129.4 185.823 119.657C186.543 115.745 187.023 111.752 187.183 107.679Z" fill="#152B3F"/>
<path d="M155.893 169.647C155.893 169.647 154.613 173.24 155.573 175.476C156.533 177.712 162.855 183.142 162.135 186.416C161.415 189.691 160.215 190.01 156.213 188.732C152.212 187.455 151.172 187.055 149.411 183.941C147.65 180.827 147.41 177.473 145.25 175.876L143.809 176.754C143.809 176.754 138.207 172.442 137.967 169.727C137.727 167.012 147.17 162.46 147.57 162.38C147.971 162.3 155.893 169.647 155.893 169.647Z" fill="#0B0F12"/>
<path d="M182.942 197.117C182.942 197.117 186.143 204.304 189.344 207.339C192.545 210.373 195.266 215.404 194.946 217.56C194.626 219.716 192.625 220.515 191.185 220.675C189.744 220.834 184.302 220.675 181.341 218.039C178.381 215.404 174.139 207.578 174.139 207.578V210.533C174.139 210.533 170.138 208.058 169.097 206.221V193.684" fill="#0B0F12"/>
<path d="M175.42 148.326C174.459 141.139 173.979 133.872 173.499 126.605C172.939 118.78 172.619 111.034 172.379 103.128C171.898 110.235 169.258 124.529 167.497 126.286C159.094 134.83 143.729 160.464 143.489 163.339C142.929 169.807 156.373 170.845 156.373 170.845C156.373 170.845 163.336 163.339 175.099 144.892C175.019 144.653 175.5 148.645 175.42 148.326Z" fill="#152B3F"/>
<path d="M152.612 103.687C153.172 105.923 160.535 141.618 161.335 146.649C162.135 151.68 168.617 198.635 170.618 200.312C172.619 201.989 180.461 202.547 184.703 198.076C184.703 198.076 181.021 155.353 180.461 149.763C179.901 144.173 179.021 101.052 178.22 100.812C177.42 100.572 152.612 103.687 152.612 103.687Z" fill="#152B3F"/>
<path opacity="0.1" d="M152.612 103.687C153.172 105.923 160.535 141.618 161.335 146.649C162.135 151.68 168.617 198.635 170.618 200.312C172.619 201.989 180.461 202.547 184.703 198.076C184.703 198.076 181.021 155.353 180.461 149.763C179.901 144.173 179.021 101.052 178.22 100.812C177.42 100.572 152.612 103.687 152.612 103.687Z" fill="#F2F2F2"/>
<path d="M208.95 42.3578C208.95 42.3578 216.153 37.2471 216.713 33.0148C217.273 28.7824 213.432 27.1055 213.432 27.1055L208.47 33.0148" fill="#F67770"/>
<path d="M207.27 30.1402C206.47 30.1402 204.869 28.2237 204.389 27.5848C203.509 26.6265 202.788 25.5086 202.228 24.3107C199.107 17.6029 203.269 8.57927 211.031 8.02029C211.591 7.94043 212.151 7.94043 212.712 7.94043C217.833 8.18 221.675 13.2109 222.155 18.0022C222.315 20.3978 221.915 22.8734 220.954 25.0294C220.474 26.0676 219.834 27.0258 219.034 27.9042C218.474 28.4632 216.793 30.2999 215.993 30.22L207.27 30.1402Z" fill="#FBB03B"/>
<path d="M213.352 30.6194H212.952C212.952 30.2201 213.512 23.7518 213.912 19.9188C213.432 19.9986 212.952 19.9986 212.392 20.0785C211.271 20.1583 210.231 20.0785 209.111 19.9986L209.911 30.6194H209.511L208.71 19.8389C207.03 19.5993 205.909 19.0403 205.429 18.2418C205.029 17.603 205.109 16.7245 205.509 16.0857C205.669 15.5267 206.15 15.2073 206.71 15.1274C207.83 15.1274 208.87 16.9641 208.87 17.044V17.1238L209.031 19.5195C210.151 19.6792 211.191 19.6792 212.312 19.6792C212.792 19.6792 213.352 19.5993 213.832 19.5195C213.912 18.2418 214.072 17.3634 214.072 17.1238C214.152 16.6447 214.792 16.0058 215.593 15.7663C216.233 15.4469 217.033 15.5267 217.593 16.0058C218.073 16.4051 218.233 17.044 217.993 17.603C217.833 18.0821 217.113 19.3598 214.152 19.9188C213.912 23.7518 213.352 30.5395 213.352 30.6194ZM206.79 15.6066C206.47 15.6066 206.15 15.8461 205.909 16.3253C205.589 16.8044 205.509 17.5231 205.829 18.0821C206.23 18.7209 207.27 19.2001 208.79 19.5195L208.63 17.2835C208.31 16.8044 207.51 15.6066 206.79 15.6066ZM216.633 16.0058C216.393 16.0058 216.073 16.0857 215.833 16.1656C215.273 16.3253 214.792 16.7245 214.552 17.2037C214.552 17.3634 214.472 18.2418 214.312 19.4396C216.393 19.0403 217.433 18.1619 217.753 17.4432C217.913 17.044 217.753 16.5648 217.433 16.3253C217.193 16.0857 216.873 16.0058 216.633 16.0058Z" fill="#F2F2F2"/>
<path d="M206.07 29.9004H217.273C217.833 29.9004 218.233 30.2997 218.233 30.8587V32.0565C218.233 32.6155 217.833 33.0147 217.273 33.0147H206.07C205.509 33.0147 205.109 32.6155 205.109 32.0565V30.8587C205.109 30.3795 205.589 29.9004 206.07 29.9004Z" fill="#F2F2F2"/>
<path d="M206.07 33.0146H217.273C217.833 33.0146 218.233 33.4139 218.233 33.9729V35.1707C218.233 35.7297 217.833 36.129 217.273 36.129H206.07C205.509 36.129 205.109 35.7297 205.109 35.1707V33.9729C205.109 33.4139 205.589 33.0146 206.07 33.0146Z" fill="#F2F2F2"/>
<path opacity="0.2" d="M206.07 29.9004H217.273C217.833 29.9004 218.233 30.2997 218.233 30.8587V32.0565C218.233 32.6155 217.833 33.0147 217.273 33.0147H206.07C205.509 33.0147 205.109 32.6155 205.109 32.0565V30.8587C205.109 30.3795 205.589 29.9004 206.07 29.9004Z" fill="#0B0F12"/>
<path opacity="0.2" d="M206.07 33.0146H217.273C217.833 33.0146 218.233 33.4139 218.233 33.9729V35.1707C218.233 35.7297 217.833 36.129 217.273 36.129H206.07C205.509 36.129 205.109 35.7297 205.109 35.1707V33.9729C205.109 33.4139 205.589 33.0146 206.07 33.0146Z" fill="#0B0F12"/>
<path d="M170.458 116.144C171.658 116.224 173.739 116.144 174.939 116.144L175.259 97.937L176.62 116.144C181.662 116.144 187.744 113.349 190.224 107.36C189.504 97.8572 188.384 74.8589 188.384 74.8589L157.974 76.2963C157.974 76.3761 157.974 76.456 157.894 76.456C157.894 76.6956 157.814 76.9351 157.654 77.1747C154.773 86.917 150.291 103.367 148.291 113.269C154.533 116.224 164.136 115.745 170.458 116.144Z" fill="#152B3F"/>
<path d="M203.589 40.2819C203.589 40.2819 204.789 34.6122 204.789 34.213C204.789 33.8137 206.39 28.9425 207.99 28.8627C209.591 28.7828 212.952 28.9425 213.352 29.9008C213.752 30.859 211.031 31.7374 209.271 31.7374C209.271 31.7374 212.152 34.9316 211.031 38.6848C209.911 42.438 206.39 44.5941 206.39 44.5941" fill="#F67770"/>
<path d="M160.695 87.8754C163.095 87.7956 169.818 89.4725 174.379 89.1531C178.781 88.9934 183.102 88.1949 187.343 86.8373C187.503 86.0388 187.664 85.1604 187.824 84.282C190.865 60.9642 190.064 44.5939 187.824 40.9206C185.583 37.2472 172.299 34.2926 166.297 35.9696C160.295 37.6465 151.092 44.5939 151.092 44.5939C151.092 44.5939 153.572 64.398 158.054 78.4525C158.854 81.1144 159.734 84.2553 160.695 87.8754Z" fill="#152B3F"/>
<path d="M187.824 40.8404C190.624 45.6317 192.865 50.7425 194.466 56.0129C194.466 56.0129 201.828 38.3649 203.269 38.6045C204.709 38.844 209.591 41.8785 209.991 43.9548C210.391 46.031 202.708 73.1019 193.265 75.5774C183.822 78.0529 178.541 57.1309 178.541 57.1309" fill="#152B3F"/>
<path d="M144.209 91.0693L175.74 105.284L176.54 134.271L174.059 135.229C174.059 135.229 139.808 120.137 139.808 119.498C139.808 118.859 144.209 91.0693 144.209 91.0693Z" fill="#CE4823"/>
<path d="M169.578 102.489C169.898 102.169 170.058 101.85 170.058 101.451C170.458 95.1421 170.858 86.4379 162.615 85.5595C156.773 84.9207 151.652 88.2746 150.371 93.8645L144.289 91.0695C144.209 91.8681 155.493 113.589 158.054 113.189C160.615 112.79 175.82 105.284 175.82 105.284L169.578 102.489ZM153.412 95.222C154.053 90.9897 157.974 88.1149 162.135 88.7537C162.455 88.8336 162.775 88.8336 163.095 88.9933C168.217 90.3508 167.017 97.2982 166.777 101.291L153.412 95.222Z" fill="#CE4823"/>
<path opacity="0.5" d="M169.578 102.489C169.898 102.169 170.058 101.85 170.058 101.451C170.458 95.1421 170.858 86.4379 162.615 85.5595C156.773 84.9207 151.652 88.2746 150.371 93.8645L144.289 91.0695C144.209 91.8681 155.493 113.589 158.054 113.189C160.615 112.79 175.82 105.284 175.82 105.284L169.578 102.489ZM153.412 95.222C154.053 90.9897 157.974 88.1149 162.135 88.7537C162.455 88.8336 162.775 88.8336 163.095 88.9933C168.217 90.3508 167.017 97.2982 166.777 101.291L153.412 95.222Z" fill="#0B0F12"/>
<path d="M165.736 84.1223L160.855 82.4454C158.374 81.567 154.933 84.6813 155.413 87.077C155.653 88.1949 157.014 90.1115 158.534 92.028C159.414 91.7086 160.455 91.469 161.415 91.469C162.135 91.5489 162.615 92.028 163.256 92.1877C163.496 92.3474 163.736 92.587 163.976 92.7467C165.816 92.8265 166.857 92.1078 166.937 90.4309C166.937 90.351 166.937 90.2712 167.017 90.1115C165.496 88.3547 163.816 86.518 164.456 86.5978C165.496 86.6777 170.618 87.7957 170.378 86.5978C170.138 85.4 165.736 84.1223 165.736 84.1223Z" fill="#F67770"/>
<path d="M156.693 91.3889C157.094 91.7083 157.414 91.9478 157.894 92.1075C158.774 92.0277 159.654 91.6284 160.615 91.4687C159.975 90.5104 156.934 86.1184 156.133 85.7191C155.333 85.3199 155.413 87.6357 155.413 87.6357C155.413 87.6357 155.973 89.5522 156.693 91.3889Z" fill="#F67770"/>
<path d="M151.332 44.3545C151.332 44.3545 136.527 62.2421 134.926 68.5506C133.326 74.8592 153.732 90.2712 153.732 90.2712L161.175 82.3656C161.175 82.3656 147.971 69.9082 149.891 67.9916C151.812 66.0751 161.895 56.5723 161.895 56.5723" fill="#152B3F"/>
<path d="M161.895 37.9658C161.895 37.9658 163.656 40.6809 164.216 41.719C177.26 64.877 181.662 85.0803 180.781 83.5631C180.781 83.5631 180.301 42.3578 179.901 40.7607C178.941 36.9277 177.58 36.1291 177.58 36.1291C177.58 36.1291 170.698 32.0565 161.895 37.9658Z" fill="#F2F2F2"/>
<path opacity="0.2" d="M163.336 37.0074L167.977 42.6772C168.457 42.198 172.379 37.9657 172.379 37.9657L175.82 41.3196L177.26 36.129C177.18 36.129 168.857 33.973 163.336 37.0074Z" fill="#0B0F12"/>
<path d="M169.258 41.0802C170.378 42.0384 171.498 42.9168 172.779 43.7154C173.099 43.7154 175.179 40.6809 175.179 40.6809L172.379 37.9658L169.258 41.0802Z" fill="#CE4823"/>
<path d="M172.218 41.959C172.058 42.1985 173.979 61.8429 173.979 61.8429L181.021 84.2024L180.461 60.8048L172.939 41.959H172.218Z" fill="#CE4823"/>
<path d="M166.137 29.9004L167.737 36.0492C167.737 36.0492 168.137 37.8061 172.459 37.8859C172.459 37.8859 175.259 38.2053 175.259 35.65V31.4176" fill="#F67770"/>
<path opacity="0.2" d="M166.137 29.9004L167.737 36.0492C167.737 36.0492 168.137 37.8061 172.459 37.8859C172.459 37.8859 175.259 38.2053 175.259 35.65V31.4176" fill="#0B0F12"/>
<path d="M169.017 27.3451C168.137 26.5466 166.217 25.1092 166.377 23.5919C166.457 23.5121 166.537 23.3524 166.617 23.2725C167.337 21.9948 166.937 20.3179 165.656 19.5193C165.416 19.4395 165.176 19.2798 164.936 19.1201C167.257 18.0819 166.857 13.9295 163.816 13.8496C161.255 13.9295 159.174 16.0856 159.174 18.6409C159.174 20.238 159.894 21.7553 161.015 22.7934C160.775 26.2272 162.615 28.8624 165.176 31.0983C166.217 32.1364 167.977 32.1364 169.017 31.0983C170.058 30.0602 170.058 28.3833 169.017 27.3451Z" fill="black"/>
<path d="M183.902 16.405C183.822 16.405 183.822 16.3251 183.742 16.3251C182.782 15.3668 183.822 12.6518 182.142 10.8949C180.461 9.13813 179.341 11.4539 177.74 10.336C176.14 9.21798 171.978 7.06189 168.377 8.57914C164.776 10.0964 164.856 13.2107 162.935 13.61C161.335 13.7697 159.974 15.0474 159.814 16.6445C159.654 17.8423 161.815 25.748 163.736 29.9803C164.616 30.7789 165.656 31.3379 166.777 31.7372L181.261 24.1509C182.302 23.3524 183.262 22.3941 183.982 21.356C184.863 19.679 184.783 17.8423 183.902 16.405Z" fill="black"/>
<path d="M180.701 18.4014C181.421 19.1999 179.021 34.612 174.299 35.171C169.578 35.73 165.656 29.9804 165.176 28.1437C164.696 26.3071 163.336 16.0057 165.256 15.0475C167.177 14.0892 176.3 13.6101 180.701 18.4014Z" fill="#F67770"/>
<path d="M178.46 13.9298C178.46 13.9298 179.421 17.5233 173.739 18.1621C168.057 18.8009 167.737 20.0786 167.017 22.075C165.736 25.7483 161.815 30.0605 160.455 18.9607C160.375 18.4017 164.456 10.8154 168.777 10.2564C173.099 9.69745 178.46 13.9298 178.46 13.9298Z" fill="black"/>
<path d="M166.617 24.071C166.617 24.071 164.856 21.0365 163.496 22.4739C162.135 23.9113 163.576 26.4667 165.416 27.5048" fill="#F67770"/>
<path d="M178.38 27.0259C176.78 27.0259 175.5 25.7483 175.5 24.1512C175.5 22.5541 176.78 21.2764 178.38 21.2764C179.981 21.2764 181.261 22.5541 181.261 24.1512C181.261 25.7483 179.981 27.0259 178.38 27.0259ZM178.38 21.6756C177.02 21.6756 175.9 22.7936 175.9 24.1512C175.9 25.5087 177.02 26.6267 178.38 26.6267C179.741 26.6267 180.861 25.5087 180.861 24.1512C180.861 22.7936 179.741 21.6756 178.38 21.6756Z" fill="#0B0F12"/>
<path d="M171.178 27.0259C169.578 27.0259 168.297 25.7483 168.297 24.1512C168.297 22.5541 169.578 21.2764 171.178 21.2764C172.779 21.2764 174.059 22.5541 174.059 24.1512C174.139 25.7483 172.779 27.0259 171.178 27.0259ZM171.178 21.6756C169.818 21.6756 168.697 22.7936 168.697 24.1512C168.697 25.5087 169.818 26.6267 171.178 26.6267C172.539 26.6267 173.659 25.5087 173.659 24.1512C173.659 22.7936 172.619 21.6756 171.178 21.6756Z" fill="#0B0F12"/>
<path d="M175.66 23.9116H173.899V24.3109H175.66V23.9116Z" fill="#0B0F12"/>
<path d="M166.412 23.3845L166.367 23.7812L168.515 24.0227L168.559 23.6259L166.412 23.3845Z" fill="#0B0F12"/>
<path d="M217.593 1.15266C217.353 2.11092 217.033 3.06919 216.793 4.02745C216.233 6.02383 219.354 6.90224 219.994 4.90586L220.794 2.03107C221.355 -0.0451671 218.233 -0.843719 217.593 1.15266Z" fill="#FBB03B"/>
<path d="M227.196 2.98935L222.635 7.06196C221.194 8.33965 223.275 10.4159 224.716 9.1382C226.156 7.86052 227.757 6.42312 229.277 5.06559C230.798 3.70805 228.637 1.71167 227.196 2.98935Z" fill="#FBB03B"/>
<path d="M228.317 13.0512C228.077 12.2526 227.276 11.7735 226.476 12.0131C225.836 12.2526 225.276 12.4123 224.556 12.572C223.755 12.8116 223.275 13.6102 223.515 14.4087C223.755 15.2073 224.556 15.6864 225.356 15.4468C225.996 15.2871 226.636 15.1274 227.276 14.8878C228.077 14.6483 228.557 13.8497 228.317 13.0512Z" fill="#FBB03B"/>
<defs>
<linearGradient id="paint0_linear_139_1585" x1="303.272" y1="177.007" x2="314.631" y2="159.957" gradientUnits="userSpaceOnUse">
<stop stop-color="#F9D8A3" stop-opacity="0"/>
<stop offset="0.99" stop-color="#0B0F12"/>
</linearGradient>
<linearGradient id="paint1_linear_139_1585" x1="85.5982" y1="163.587" x2="53.1436" y2="138.469" gradientUnits="userSpaceOnUse">
<stop stop-color="#F9D8A3" stop-opacity="0"/>
<stop offset="0.99" stop-color="#0B0F12"/>
</linearGradient>
<linearGradient id="paint2_linear_139_1585" x1="199.723" y1="223.757" x2="149.292" y2="184.723" gradientUnits="userSpaceOnUse">
<stop stop-color="#F9D8A3" stop-opacity="0"/>
<stop offset="0.99" stop-color="#0B0F12"/>
</linearGradient>
</defs>
</svg>
